<svg xmlns="http://www.w3.org/2000/svg" fill-rule="evenodd" fill="#000" viewBox="0 0 16 16">
  <path d="M13.074 2.852C11.78.99 9.207.444 7.356 1.618L4.094 3.706A3.707 3.707 0 0 0 2.41 6.21a3.883 3.883 0 0 0 .391 2.526 3.581 3.581 0 0 0-.557 1.4 3.991 3.991 0 0 0 .676 3.013c1.305 1.862 3.867 2.408 5.717 1.234l3.262-2.076a3.707 3.707 0 0 0 1.685-2.503 3.883 3.883 0 0 0-.392-2.527c.285-.427.475-.901.558-1.4a3.908 3.908 0 0 0-.676-3.024zM7.036 13.326a2.585 2.585 0 0 1-2.776-1.032 2.402 2.402 0 0 1-.415-1.815c.024-.107.048-.202.071-.308l.06-.19.166.119a4.33 4.33 0 0 0 1.28.64l.12.036-.012.118a.794.794 0 0 0 .13.487.785.785 0 0 0 1.044.237l3.25-2.076a.672.672 0 0 0 .309-.45.736.736 0 0 0-.12-.546.778.778 0 0 0-.841-.309c-.071.024-.143.048-.202.083l-1.245.795c-.202.13-.427.225-.665.285a2.585 2.585 0 0 1-2.775-1.032 2.396 2.396 0 0 1-.404-1.815 2.246 2.246 0 0 1 1.02-1.507l3.262-2.075c.202-.13.427-.226.665-.297a2.585 2.585 0 0 1 2.775 1.032c.38.522.522 1.174.416 1.815a2.97 2.97 0 0 1-.084.308l-.059.19-.166-.119a4.327 4.327 0 0 0-1.28-.64l-.12-.036.012-.118a.794.794 0 0 0-.13-.487.778.778 0 0 0-.842-.308c-.072.024-.143.047-.202.083L6.028 6.47a.672.672 0 0 0-.309.45.736.736 0 0 0 .12.546.777.777 0 0 0 .841.309c.071-.024.143-.048.202-.083l1.245-.795c.202-.13.427-.225.665-.297a2.585 2.585 0 0 1 2.775 1.032 2.4 2.4 0 0 1 .415 1.815 2.246 2.246 0 0 1-1.02 1.507L7.7 13.029c-.201.13-.427.226-.664.297z" fill-rule="nonzero"/>
</svg>
