<svg xmlns="http://www.w3.org/2000/svg" fill-rule="evenodd" fill="#000" viewBox="0 0 16 16">
   <path d="m7.3573 1.0271c-1.0217 0.088579-2.1524 0.47004-3.0619 1.0355-0.85143 0.5279-1.7097 1.3828-2.2376 2.2378-1.4509 2.3399-1.4066 5.2999 0.11571 7.5753 1.1171 1.669 2.8404 2.7658 4.826 3.0656 0.53471 0.07844 1.4884 0.07844 2.0094 0 2.8066-0.42918 5.051-2.4422 5.773-5.1773 0.15671-0.58934 0.218-1.0831 0.218-1.7576 0-1.359-0.344-2.5614-1.0593-3.7229-0.51771-0.8345-1.3827-1.6963-2.2309-2.2242-1.301-0.80722-2.8199-1.1648-4.3526-1.0321zm0.30657 2.4831v1.7712h-0.071571c-0.15671 0-0.80386-0.10901-1.1069-0.1873-0.49043-0.12944-1.0354-0.35417-1.0354-0.42918 0-0.034003 0.054571-0.21116 0.11914-0.39518 0.34743-0.95709 0.87871-1.7916 1.3896-2.1765 0.20429-0.15673 0.57557-0.35417 0.66414-0.35417 0.030714 0 0.041 0.37803 0.041 1.7712zm0.97071-1.6724c0.579 0.27588 1.1036 0.87879 1.5156 1.7473 0.184 0.39504 0.40871 0.98095 0.40871 1.073 0 0.16001-1.1954 0.52448-1.9821 0.60634l-0.23157 0.023859v-1.7746c0-1.3966 0.010143-1.7746 0.044286-1.7746 0.020286 0 0.13271 0.04429 0.24514 0.098723zm-2.5987 0.18059c-0.46657 0.58591-0.82414 1.2364-1.1137 2.047l-0.10557 0.29974-0.28271-0.20102c-0.29286-0.20773-0.85486-0.70506-0.85486-0.75621 0-0.047719 0.48029-0.43933 0.81743-0.6642 0.37457-0.25202 0.89228-0.51776 1.2806-0.6642 0.31671-0.11558 0.30314-0.1123 0.25886-0.061148zm4.7681 0.31674c0.201 0.10215 0.49386 0.26574 0.64714 0.36789 0.30986 0.20102 0.87871 0.65734 0.87871 0.70506 0 0.051147-0.55857 0.54505-0.85486 0.75621l-0.28271 0.20102-0.10557-0.29974c-0.28943-0.80379-0.64714-1.4647-1.1171-2.047-0.054428-0.068292 0.42914 0.11572 0.83443 0.3166zm-7.4144 1.7576c0.22486 0.22816 0.613 0.54162 0.96386 0.77321 0.17371 0.11587 0.27586 0.20773 0.26571 0.23502-0.092 0.23845-0.26571 1.4613-0.31329 2.1969l-0.020571 0.36789h-2.5919l0.023857-0.29631c0.068143-0.91623 0.47686-2.0539 1.0251-2.868 0.21114-0.31331 0.42229-0.58248 0.45643-0.58248 0.013571 0 0.098714 0.078293 0.19071 0.17373zm9.5636-0.027288c0.39514 0.48362 0.85486 1.3353 1.0593 1.9722 0.143 0.43604 0.252 0.95366 0.28271 1.342l0.02043 0.28617h-2.5986v-0.095437c0-0.53133-0.201-2.064-0.32357-2.4627-0.01357-0.037432 0.06471-0.10901 0.26229-0.24188 0.35071-0.23159 0.739-0.54505 0.96386-0.77321 0.092-0.095437 0.17714-0.17373 0.19071-0.17373 0.01343 1.429e-4 0.07814 0.068292 0.14286 0.14658zm-7.2408 1.492c0.44957 0.17373 0.94 0.28945 1.502 0.36103l0.44957 0.057862v1.6894h-2.7009l0.023857-0.35089c0.047714-0.67778 0.12257-1.2705 0.23157-1.7712 0.027286-0.13287 0.044286-0.16016 0.088571-0.14301 0.034143 0.013573 0.21457 0.085151 0.40529 0.15673zm5.0849 0.00329c0.09871 0.46661 0.23843 1.6417 0.23843 2.0266v0.078436h-2.6906v-1.6962l0.26557-0.023859c0.579-0.051147 1.4679-0.27245 1.9481-0.48704 0.08514-0.040861 0.16343-0.071578 0.17714-0.071578 0.01029-0.00343 0.03743 0.078293 0.06129 0.17359zm-6.4914 3.1507c0.047714 0.7425 0.22143 1.9619 0.31329 2.2038 0.010143 0.02729-0.051143 0.08858-0.16357 0.15673-0.286 0.17716-0.70157 0.50405-0.99443 0.78336l-0.26571 0.25545-0.10214-0.11915c-0.21114-0.25202-0.60957-0.88565-0.79014-1.2603-0.32014-0.66763-0.545-1.4647-0.58929-2.1016l-0.020428-0.28274h2.5917zm3.3581 0.48033v0.84808l-0.35414 0.037432c-0.613 0.068149-1.209 0.21459-1.7574 0.43261-0.15671 0.06472-0.29286 0.11244-0.29629 0.10558-0.054428-0.054434-0.22471-1.2875-0.26571-1.921l-0.023857-0.34746h2.6974zm3.3581-0.51433c-0.04429 0.64377-0.12943 1.2977-0.23157 1.7746-0.03057 0.14301-0.05114 0.17373-0.092 0.15673-0.68114-0.2896-1.4066-0.48033-2.1047-0.54505l-0.24857-0.02386v-1.6929h2.6974zm3.2696-0.040861c-0.04771 0.65063-0.26571 1.4271-0.58571 2.0948-0.18057 0.3746-0.579 1.0082-0.79014 1.2603l-0.10214 0.11915-0.26557-0.25545c-0.29971-0.28274-0.55514-0.48704-0.92643-0.73235-0.14986-0.10215-0.24186-0.18402-0.23157-0.20773 0.092-0.24188 0.26571-1.4646 0.31328-2.2038l0.02043-0.36446h2.5917zm-6.6277 3.8693v1.7746l-0.092-0.02386c-0.58914-0.14644-1.2567-0.86179-1.7131-1.8359-0.15671-0.33374-0.40871-1.0048-0.40871-1.0934 0-0.05786 0.61643-0.29974 1.0387-0.40875 0.34743-0.08858 0.86514-0.17716 1.066-0.18387l0.109-0.0034v1.7746zm1.1819-1.7202c0.19757 0.02729 0.50071 0.08858 0.67771 0.13287 0.41214 0.10901 1.0353 0.35418 1.0353 0.40875 0 0.09872-0.25543 0.77321-0.42571 1.124-0.47686 0.98438-1.1103 1.6587-1.6961 1.8053l-0.092 0.02386v-3.5492h0.071571c0.041 0 0.23514 0.02386 0.42929 0.05443zm-3.6886 1.7542c0.15671 0.36103 0.46314 0.89922 0.66757 1.1684 0.28271 0.36789 0.27586 0.3406 0.047714 0.25545-0.39171-0.13973-0.99114-0.44618-1.359-0.69492-0.378-0.25202-0.83443-0.61648-0.83443-0.66763 0-0.04772 0.56871-0.54834 0.85486-0.75278l0.28271-0.20102 0.10557 0.29974c0.061286 0.16359 0.16686 0.43261 0.235 0.59277zm6.4097-0.62334c0.28271 0.21116 0.76286 0.64377 0.76286 0.68463 0 0.05115-0.45971 0.41561-0.83443 0.66763-0.36786 0.24859-0.96728 0.55519-1.3556 0.69492-0.22143 0.08172-0.22143 0.08172 0.01357-0.21802 0.34057-0.43947 0.71528-1.1615 0.93657-1.812 0.11271-0.32031 0.07514-0.31688 0.477-0.01714z"/>
</svg>
