<svg xmlns="http://www.w3.org/2000/svg" fill-rule="evenodd" fill="#000" viewBox="0 0 16 16">
  <path d="M 2.9609375 0.69921875 C 2.1009393 0.69921875 1.4003906 1.3997674 1.4003906 2.2597656 L 1.4003906 13.740234 C 1.4003906 14.600234 2.1009393 15.300781 2.9609375 15.300781 L 13.039062 15.300781 C 13.899061 15.300781 14.599609 14.600234 14.599609 13.740234 L 14.599609 2.2597656 C 14.599609 1.3997674 13.899061 0.69921875 13.039062 0.69921875 L 2.9609375 0.69921875 z M 2.9609375 2 L 13.039062 2 C 13.198506 2 13.300781 2.1003215 13.300781 2.2597656 L 13.300781 13.740234 C 13.300781 13.899679 13.198506 14 13.039062 14 L 2.9609375 14 C 2.8014934 14 2.6992187 13.899679 2.6992188 13.740234 L 2.6992188 2.2597656 C 2.6992188 2.1003215 2.8014934 2 2.9609375 2 z M 4.8496094 3.0996094 L 4.8496094 9.1542969 L 5.8300781 8.6992188 C 5.8300781 8.6992188 7.4400014 7.9648438 8.875 7.9648438 C 9.5749993 7.9648438 9.75 8.3492191 9.75 8.6992188 L 9.75 12.900391 L 11.150391 12.900391 L 11.150391 8.6992188 C 11.150391 8.5942189 11.149687 7.8254682 10.554688 7.2304688 C 10.274688 6.950469 9.7499991 6.5996094 8.875 6.5996094 C 7.9300009 6.5996094 6.9499993 6.844844 6.25 7.0898438 L 6.25 3.0996094 L 4.8496094 3.0996094 z M 9.75 3.0996094 C 9.6100001 3.9046086 9.2592182 4.6400007 8.6992188 5.375 L 10.099609 5.375 C 10.729609 4.6400007 11.045391 3.9046086 11.150391 3.0996094 L 9.75 3.0996094 z M 4.8496094 10.099609 L 4.8496094 12.900391 L 6.4257812 11.5 L 4.8496094 10.099609 z " />
</svg>
