<?xml version="1.0" encoding="UTF-8" standalone="no"?>
<svg xmlns="http://www.w3.org/2000/svg" fill-rule="evenodd" fill="#000" viewBox="0 0 16 16">
  <path d="m 8.121013,15.219732 c 0.9407085,-1.206809 1.6565881,-2.55307 2.3454,-3.888672 0.525379,-1.07957 1.005448,-2.1795085 1.389503,-3.3070854 0.492075,-1.4283579 0.875322,-2.9226028 0.885495,-4.4308141 -0.02498,-0.3691242 0.08915,-1.3612759 -0.49159,-0.7074333 -0.43625,0.199822 -0.763887,0.4446877 -0.58214,0.9052905 0.01797,0.6302156 -0.0054,1.3327039 -0.365884,1.8776628 C 10.299081,5.521974 9.3161167,5.1525226 8.5590241,4.5239606 8.0899191,4.5488483 7.5343799,4.3901891 7.1970198,4.7821706 6.4810448,5.2394821 5.6463721,5.5472057 4.7850178,5.678341 4.3665939,4.9689594 4.3945354,4.1005095 4.4653685,3.312224 4.0216184,3.2218423 3.2654407,2.2286099 3.3908841,3.1619152 3.2738055,5.4776509 4.040476,7.7314293 4.948029,9.8615716 5.5133205,11.155324 6.1713707,12.422976 6.8921284,13.652084 7.178561,14.13412 7.7606108,14.898009 7.8759101,15.184332 5.6807749,13.550094 3.9211814,11.451176 2.7120242,9.1182643 1.8494208,7.5653367 1.2094338,5.8754613 1.0776638,4.1308495 0.9846336,3.5074289 1.4075921,3.0060887 1.9457383,2.6784224 2.5238716,2.303011 2.9040517,1.6927055 3.5360766,1.4000293 3.9801789,1.3523825 3.4711928,1.9968922 3.9627682,2.1682081 4.3067462,2.5147857 4.7173695,2.8962062 4.8781001,2.2685775 5.8459934,2.5118056 6.8187664,2.8544538 7.5651144,3.4841948 7.8998147,3.4809165 8.2344969,3.4776382 8.5691792,3.4743775 9.2617653,2.8396194 10.233927,2.50691 11.171796,2.2923682 c 0.207538,0.092019 0.273644,0.5494616 0.568012,0.1291869 0.455014,-0.2265763 0.59172,-0.7990099 0.720176,-1.0215584 0.676571,0.1611151 1.014902,0.8327721 1.571771,1.1846875 0.530556,0.3542242 1.071357,0.7978475 0.961917,1.4662626 -0.01258,1.4616452 -0.56918,2.8588607 -1.153549,4.1978196 -0.957406,2.0233706 -2.274261,3.9075996 -3.9330236,5.5183416 -0.5981899,0.494021 -1.1321252,1.064883 -1.7988115,1.493819 l 0.012575,-0.04061 z M 7.7320279,12.679352 C 7.1241033,11.723445 8.6052139,11.6207 8.4570062,12.505096 8.4014685,12.695438 8.0612496,12.99502 7.7320279,12.679352 Z M 7.7001998,9.6553523 C 7.3629347,8.8408316 8.7183665,8.7289569 8.4486142,9.6140606 8.1916228,9.8904344 7.9218052,9.8084792 7.7001998,9.6553523 Z M 7.6339935,6.2189242 C 7.5944763,5.3820139 8.7561974,5.6318022 8.5221662,6.3592763 8.4563829,6.5324256 8.2553171,6.7286671 7.9079076,6.6237505 c 0,0 -0.2565139,-0.036313 -0.2739141,-0.4048263 z"/>
</svg>
