<svg xmlns="http://www.w3.org/2000/svg" viewBox="0 0 16 16">
	<path d="M 5.077203,8.1665194 8.7313353,14.496242 7.0520379,14.512 6.0764623,12.811415 5.0939492,14.50291 4.2595484,14.50258 3.8322258,13.764275 5.232014,11.35738 4.238317,9.628209 Z" fill="#4767a9" />
	<path d="M 6.3961268,5.5592285 2.7413833,11.888598 1.8880875,10.442192 2.8730785,8.7470434 0.91691532,8.7419261 0.5,8.0191638 0.92574301,7.279946 3.7101104,7.2887314 4.7107981,5.5635957 Z" fill="#7eb6e1" />
	<path d="m 6.676503,10.618843 7.308875,3.53e-4 -0.826001,1.462165 -1.960567,-0.0054 0.97365,1.696612 -0.417484,0.722434 -0.853066,9.12e-4 -1.3845795,-2.415676 -1.994385,-0.0039 z" fill="#7eb6e1" />
	<path d="M 10.930537,7.8454806 7.2764045,1.5157579 8.955702,1.5 9.9312773,3.2005845 10.91379,1.5090897 l 0.834401,3.292e-4 0.427324,0.7383058 -1.399789,2.4068946 0.993697,1.7291716 z" fill="#7eb6e1" />
	<path d="M 9.3161488,5.3785563 2.007273,5.3782034 2.8332747,3.9160392 l 1.9605665,0.00544 -0.97365,-1.696612 0.4174854,-0.7224332 0.8530656,-9.12e-4 1.3845793,2.4156754 1.9943849,0.00403 z" fill="#4767a9" />
	<path d="m 9.6032963,10.451751 3.6547427,-6.3293689 0.853297,1.4464064 -0.984991,1.6951486 1.956162,0.00512 0.416917,0.7227608 -0.425744,0.7392179 -2.784368,-0.00877 -1.000687,1.7251362 z" fill="#4767a9" />
</svg>
