<svg xmlns="http://www.w3.org/2000/svg" fill-rule="evenodd" fill="#000" viewBox="0 0 16 16">
  <path d="M 8.1015625 0.75195312 C 6.8546757 0.72845715 5.5705692 1.0308426 4.3671875 1.7246094 C -0.44599951 4.4994583 -0.44599951 11.500541 4.3671875 14.275391 C 9.1803641 17.050229 15.25 13.550252 15.25 8 C 15.25 3.8372748 11.842806 0.82246403 8.1015625 0.75195312 z M 7.7265625 1.9511719 C 7.8470715 1.9472753 7.9641588 1.9489509 8.0839844 1.9511719 C 11.202283 2.0099408 14.050781 4.5120796 14.050781 8 C 14.050781 10.159165 12.932621 11.902586 11.361328 12.962891 L 9.7539062 10.962891 C 10.134318 11.005961 10.521165 11.050811 10.871094 11.085938 C 11.139364 11.112867 11.386254 11.132449 11.59375 11.136719 C 11.800487 11.141019 11.957401 11.143015 12.119141 11.078125 C 12.233071 11.033115 12.253066 10.991535 12.304688 10.939453 C 12.356307 10.887373 12.412155 10.825711 12.472656 10.753906 C 12.593658 10.610298 12.733637 10.430336 12.867188 10.253906 C 13.134288 9.9010472 13.376953 9.5585937 13.376953 9.5585938 L 13.53125 9.34375 L 13.306641 9.203125 C 13.306641 9.203125 12.616669 8.7671833 11.808594 8.2109375 C 11.026582 7.6726328 10.154803 7.0223309 9.6972656 6.5722656 C 9.7410025 5.7719273 9.7204432 4.8802673 9.6777344 4.171875 C 9.6551636 3.7975039 9.6277866 3.4760827 9.6074219 3.2480469 C 9.5972395 3.1340289 9.5883117 3.0422515 9.5820312 2.9804688 C 9.5788913 2.9495768 9.5779719 2.9264532 9.5761719 2.9101562 C 9.5752739 2.9020063 9.5729156 2.895955 9.5722656 2.890625 C 9.5719428 2.887955 9.5730045 2.8859794 9.5722656 2.8808594 C 9.5718962 2.8782994 9.5683894 2.8614521 9.5683594 2.8613281 C 9.5683453 2.8612662 9.5273437 2.7714844 9.5273438 2.7714844 C 9.3790198 2.7560846 9.2760387 2.7480457 9.1503906 2.7363281 L 7.953125 3.9042969 L 7.3457031 1.9824219 C 7.4821222 1.9645374 7.6060535 1.9550685 7.7265625 1.9511719 z M 6.4511719 2.1289062 L 6.5214844 2.359375 C 5.7820502 3.1546191 5.178523 4.1986499 4.7519531 5.453125 C 3.8941256 6.4211835 3.1184805 8.0138482 2.375 9.9960938 C 1.4703422 7.4075218 2.2716707 4.3174395 4.9667969 2.7636719 C 5.4696322 2.4737787 5.9294476 2.2618182 6.4511719 2.1289062 z M 6.8847656 3.4550781 L 7.671875 6.0917969 L 7.7148438 6.1367188 C 8.889319 7.3111941 10.618081 8.7194964 11.867188 9.375 C 11.954547 9.5274854 12.031995 9.6461479 12.070312 9.7089844 C 12.080442 9.725596 12.079526 9.7247575 12.083984 9.7324219 C 12.072785 9.7494694 12.059094 9.7741046 12.027344 9.8125 C 11.972554 9.8787519 11.866776 10.006563 11.761719 10.134766 C 9.4187641 9.9318818 8.1331286 9.7633362 7.3164062 9.6777344 C 6.687957 9.6118657 6.2639769 9.65978 5.7734375 9.7109375 C 5.9874875 9.4055064 6.2539062 9.0214844 6.2539062 9.0214844 L 6.4960938 8.796875 L 6.2148438 8.6269531 C 6.2148438 8.6269531 5.8565802 8.4826257 5.5722656 8.3671875 C 5.6025746 8.3224655 5.6197028 8.2848355 5.6523438 8.2421875 C 5.7407493 8.126678 5.8222259 8.0338769 5.8671875 7.9785156 L 6.4394531 7.2753906 L 5.5878906 7.5859375 C 5.4747939 7.6272643 5.1944442 7.7516742 4.8867188 7.9335938 C 4.7328561 8.0245536 4.5781597 8.1266375 4.4453125 8.2421875 C 4.3124653 8.3577375 4.1933516 8.4811617 4.1425781 8.6660156 L 4.0742188 8.9140625 L 4.3222656 8.9746094 C 4.524641 9.0243473 4.7204129 9.1005738 4.9160156 9.1738281 C 4.6351964 9.5831135 4.382061 10.017921 4.3320312 10.515625 L 4.2988281 10.833984 L 4.6152344 10.789062 C 6.3413898 10.538473 7.1985837 10.768834 8.0390625 10.808594 L 9.8242188 13.722656 C 8.1079689 14.245689 6.6228266 14.035491 5.4921875 13.515625 C 4.3240627 12.978523 3.5568694 12.177424 3.2714844 11.771484 C 3.5310817 10.676412 3.8152514 9.4905206 4.1621094 8.4824219 C 4.5235796 7.4318542 4.9673591 6.5817532 5.4121094 6.2480469 L 5.453125 6.21875 L 5.4785156 6.1738281 C 5.777642 5.6525927 5.9553152 5.044082 6.1835938 4.4863281 C 6.3528908 4.0726843 6.6149583 3.7604085 6.8847656 3.4550781 z M 8.7617188 4.515625 C 8.7676487 4.9295209 8.7642085 5.3841449 8.7421875 5.8769531 C 8.6038887 5.779323 8.4469836 5.6479962 8.4042969 5.6210938 C 8.3899006 5.5346284 8.3347187 5.2520516 8.2714844 4.9882812 L 8.7617188 4.515625 z M 8.1171875 7.4472656 C 8.0311496 7.4461956 7.9428115 7.4520858 7.8554688 7.4648438 L 7.6992188 7.4882812 L 7.3984375 8.4726562 L 7.7792969 8.4257812 C 7.9834191 8.4010033 8.2362121 8.4794805 8.5546875 8.6640625 L 8.6464844 8.7167969 L 9.9179688 8.3496094 L 9.5097656 8.0488281 C 9.1474116 7.7816529 8.708131 7.4546093 8.1171875 7.4472656 z " />
</svg>
