<svg xmlns="http://www.w3.org/2000/svg" fill-rule="evenodd" fill="#000" viewBox="0 0 16 16">
  <path d="M 5.0657414,12.845347 A 1.7828707,1.802321 0 0 1 3.2828707,14.647668 1.7828707,1.802321 0 0 1 1.5,12.845347 1.7828707,1.802321 0 0 1 3.2828707,11.043026 1.7828707,1.802321 0 0 1 5.0657414,12.845347 Z" />
  <path d="M 10.117208,14.647668 H 7.5914091 C 7.5914091,11.246599 4.86414,8.4894964 1.5,8.4894964 v -2.553135 c 4.7593158,0 8.617208,3.900079 8.617208,8.7113066 z" />
  <path d="M 11.900079,14.647668 C 11.900079,8.8410502 7.2439294,4.1339089 1.5,4.1339089 V 1.5054692 c 7.1797146,0 13,5.8840252 13,13.1421988 z" />
</svg>
