<svg xmlns="http://www.w3.org/2000/svg" fill-rule="evenodd" fill="#000" viewBox="0 0 16 16">
  <path d="m 9.0104,1.000298 c -2.4115,0.01985 -4.8418,1.03175 -5.8229,3.019225 2.231,-3.19997505 9.074025,-2.926475 10.366025,0.76 H 15 C 14.45225,2.229548 11.743425,0.97779795 9.0104,1.000298 Z m -3.891875,2.88475 a 1.589,1.58899 0 0 0 -1.3045,0.62 2.382,2.381985 0 0 0 -0.4935,1.5205 2.5275,2.527484 0 0 0 0.1425,0.883 3.023,3.0229808 0 0 0 0.544,0.884 6.87,6.8699565 0 0 0 0.92,0.7725 3.35,3.3499788 0 0 1 0.857,0.8345 1.331,1.3309915 0 0 1 0.1875,0.6975 1.507,1.5069905 0 0 1 -0.1275,0.5785 1.015,1.0149935 0 0 1 -0.3405,0.45 0.829,0.82899475 0 0 1 -0.487,0.1575 0.975,0.97499375 0 0 1 -0.7825,-0.48 2.066,2.065987 0 0 1 -0.403,-1.1155 0.6155,0.615496 0 0 0 -0.0675,-0.2645 0.24,0.2399985 0 0 0 -0.225,-0.1225 0.243,0.2429985 0 0 0 -0.205,0.1575 1.2385,1.2384923 0 0 0 -0.05,0.4305 c -0.003,0.281 -0.0225,0.646 -0.0575,1.0855 -0.0065,0.075 -0.0095,0.135 -0.0095,0.185 a 0.6115,0.61149625 0 0 0 0.11,0.3565 1.0745,1.0744933 0 0 0 0.4255,0.304 2.442,2.4419845 0 0 0 1.1,0.2625 1.804,1.8039885 0 0 0 1.083,-0.3005 2.046,2.045987 0 0 0 0.667,-0.906 3.3115,3.311479 0 0 0 0.2425,-1.2655 2.9535,2.9534813 0 0 0 -0.1575,-0.984 2.263,2.2629858 0 0 0 -0.462,-0.7785 6.935,6.934956 0 0 0 -0.9385,-0.8 4.4235,4.423472 0 0 1 -0.9895,-0.872 0.924,0.92399425 0 0 1 -0.1575,-0.5115 1.054,1.0539933 0 0 1 0.235,-0.678 0.7405,0.74049525 0 0 1 0.613,-0.2975 0.7635,0.76349525 0 0 1 0.6135,0.3 2.196,2.195986 0 0 1 0.376,1.0385 l 0.024025,0.15 0.1775,0.05 h 0.016975 a 0.268,0.26799825 0 0 0 0.1425,-0.05 l 0.085,-0.0525 0.016,-0.1225 c 0.006,-0.05 0.0145,-0.15 0.022,-0.45 l 0.0145,-0.5195 c 0,-0.0475 -0.012025,-0.215 -0.0325,-0.4615 l -0.00848,-0.1 -0.06,-0.0625 a 1.7625,1.7624888 0 0 0 -0.4965,-0.377 1.8655,1.8654883 0 0 0 -0.763,-0.145 z m 7.175975,0.165 -1.85,0.018975 -0.0425,0.1675 -0.02052,0.12 a 0.4645,0.464497 0 0 0 0.0775,0.25 l 0.045,0.0725 0.368,0.065 a 2.0885,2.0884868 0 0 1 0.2695,0.055 0.207,0.20699875 0 0 1 0.0925,0.07 c 0.0095,0.016 0.01403,0.025 0.01403,0.025 a 10.584,10.583933 0 0 1 -0.38,1.856 c -0.0225,0.1225 -0.035,0.1925 -0.04,0.21 l -0.273,1.073 c -0.14,0.534 -0.281,1.0395 -0.4165,1.5035 l -0.0875,0.305 c -0.17,-0.6215 -0.3325,-1.201 -0.495,-1.7645 l -0.8145,-2.683 a 2.446,2.4459845 0 0 1 -0.1175,-0.571 0.6875,0.68749575 0 0 1 0.215,-0.05 2.297,2.2969855 0 0 1 0.35,-0.0245 h 0.0325 a 0.2855,0.28549825 0 0 0 0.2835,-0.1825 l 0.035,-0.245 -0.020975,-0.0625 a 0.323,0.322998 0 0 0 -0.115,-0.165 l -0.065,-0.0275 L 9.3205,4.062043 c -0.08,-0.004 -0.1625,-0.00602 -0.25,-0.00902 -0.0875,-0.003 -0.175,-0.00298 -0.266,-0.00298 -0.4465,0 -0.763,0.00598 -0.9465,0.017975 -0.0425,0.0055 -0.0825,0.0055 -0.12,0.0055 H 7.613 C 7.4005,4.066018 7.183,4.062043 6.963,4.062043 h -0.13 l -0.095,0.328 0.016475,0.0775 a 0.4225,0.42249725 0 0 0 0.125,0.23 0.6905,0.6904955 0 0 0 0.2,0.0825 2.2315,2.2314858 0 0 1 0.384,0.15 1.675,1.6749895 0 0 1 0.145,0.3335 l 1.2175,3.965475 c 0.2,0.6435 0.458,1.5545 0.768,2.70845 l 0.0325,0.1225 0.1,0.03 a 0.481,0.480997 0 0 0 0.145,0.02452 0.2965,0.296498 0 0 0 0.195,-0.0875 l 0.0525,-0.05 0.135,-0.58 c 0.1325,-0.598 0.3655,-1.4655 0.6895,-2.579975 l 1.039,-3.699975 a 0.75,0.74999525 0 0 1 0.1075,-0.235 0.9,0.89999425 0 0 1 0.324,-0.09 0.773,0.772995 0 0 0 0.22,-0.07 l 0.075,-0.035 0.03,-0.095 a 0.7135,0.7134955 0 0 0 0.0375,-0.2425 l -0.01602,-0.1925 -0.105,-0.05 a 0.8215,0.82149475 0 0 0 -0.3645,-0.0575 z M 1,11.220498 c 1.031,4.800975 9.7195,4.998975 11.8125,0.76 -2.231,3.199975 -9.074025,2.926475 -10.366025,-0.76 z" />
</svg>
