<svg xmlns="http://www.w3.org/2000/svg" fill-rule="evenodd" fill="#000" viewBox="0 0 16 16">
  <path d="M 1,1 V 15 H 15 V 1 Z m 0.875,0.875 h 12.25 v 12.25 H 1.875 Z m 8.207031,4.3652344 a 1.919,1.919 0 0 0 -0.0039,0.00391 c -3.14e-4,0.00554 -0.0019,0.00999 -0.002,0.015625 0.0038,-0.008 0.0064,-0.014344 0.0059,-0.019531 z" />
  <path d="M 8.1776817,12.494506 C 7.6900808,12.450018 7.2668208,12.265693 6.8717107,11.92577 6.7866908,11.852624 6.7699186,11.831087 6.7168574,11.726924 6.6334354,11.563161 6.561312,11.373161 6.5110153,11.184654 l -0.043014,-0.161211 -0.00796,-0.749986 c -0.00438,-0.4124909 -0.00862,-1.518572 -0.0094,-2.457958 L 6.4492007,6.1075247 H 6.0229388 5.596678 l -0.0078,-0.038085 C 5.570011,5.9772907 5.5,5.5542688 5.5,5.5324105 5.5,5.5131315 5.526624,5.4956855 5.6318336,5.4460185 5.8488147,5.343592 6.0786655,5.2672116 6.3262467,5.2152623 L 6.4492004,5.1894629 6.4493213,4.9307344 C 6.4493874,4.7884333 6.4546681,4.6087255 6.4610407,4.5313832 6.4804029,4.2966403 6.4472382,4.3350803 6.7334409,4.2156518 7.0648235,4.0773707 7.6357204,3.8236284 8.0243942,3.6418709 8.1978935,3.5607363 8.3424387,3.4969457 8.345606,3.500113 8.366148,3.520655 8.423432,4.3832219 8.4481395,5.0440691 l 0.00778,0.2080037 h 0.050773 c 0.027923,0 0.4631402,-0.029077 0.9671426,-0.064616 0.5039961,-0.03554 0.9175539,-0.063219 0.9190059,-0.061525 0.0063,0.00695 -0.08987,0.5459768 -0.134871,0.7589373 -0.02656,0.1256811 -0.05141,0.2460648 -0.05521,0.267519 l -0.0071,0.039005 -0.294211,-0.00743 C 9.6157373,6.1767679 9.1773368,6.1633867 8.6886204,6.1469545 l -0.2390491,-0.00804 0.00668,2.2313297 c 0.00662,2.2092708 0.00698,2.2322528 0.031037,2.3250758 0.075743,0.292007 0.2523693,0.464753 0.5288674,0.517252 0.326913,0.06207 0.9497045,-0.123135 1.4035463,-0.417387 0.06013,-0.03894 0.113546,-0.06824 0.118756,-0.06498 0.0056,0.0029 0.08194,0.122099 0.170523,0.26417 0.159704,0.256169 0.16086,0.258522 0.139049,0.282953 -0.07906,0.08855 -0.452949,0.384309 -0.666822,0.527486 -0.4831188,0.323419 -1.1777903,0.641751 -1.4762296,0.676482 -0.1541836,0.01795 -0.406322,0.02426 -0.5273334,0.01326 z" />
</svg>
