<svg viewBox="0 0 32 32" xmlns="http://www.w3.org/2000/svg">
  <path d="M16,2,3.987,9.02l0,14L16,30l12-7.1.013-13.8ZM26.954,22.3,16,28.78,5.038,22.408l0-12.78L16,3.22,26.966,9.7Z" fill="#000" />
  <polygon points="25.569 13.654 19.946 16.964 19.943 24.89 25.59 21.565" fill="#0d8fe8"/>
  <polygon points="23.282 12.303 25.569 13.654 19.946 16.964 19.943 24.89 17.327 23.37 17.348 15.875" fill="#1e9cef"/>
  <polygon points="22.512 10.35 22.514 11.816 16.411 15.498 16.418 23.597 14.998 24.431 14.994 14.856" fill="#65a41e"/>
  <polygon points="20.008 8.871 22.512 10.35 14.994 14.856 14.998 24.431 12.194 22.801 12.189 13.413" fill="#6aab20"/>
  <polygon points="19.226 6.606 19.226 8.374 11.21 13.074 11.21 23.172 9.808 23.988 9.835 12.277" fill="#ce2827"/>
  <polygon points="16.16 4.784 6.53 10.394 6.529 22.071 9.827 23.988 9.835 12.277 19.235 6.606" fill="#d52a29"/>
</svg>
