<svg xmlns="http://www.w3.org/2000/svg" fill-rule="evenodd" fill="#000" viewBox="0 0 16 16">
  <path d="M 14.523855,4.5354774 8.7168147,0.72862942 c -0.397216,-0.26039467 -0.9110614,-0.26039467 -1.3082774,0 L 1.6014973,4.5354774 C 1.2651347,4.7559787 1.0625,5.1311147 1.0625,5.5333121 v 4.9333759 c 0,0.402197 0.2026347,0.777333 0.5389973,0.997835 l 5.80704,3.806837 c 0.397216,0.260405 0.9110614,0.260405 1.3082774,0 L 14.523855,11.464523 C 14.860217,11.244021 15.0625,10.868885 15.0625,10.466688 V 5.5333121 c 0,-0.4021974 -0.202283,-0.7773334 -0.538645,-0.9978347 z M 12.671097,10.100213 H 11.7961 v 0.991712 c 0,0.25775 -0.208928,0.466678 -0.466677,0.466678 H 4.7959293 c -0.2577493,0 -0.4666773,-0.208928 -0.4666773,-0.466678 V 10.100213 H 3.454244 V 7.7668801 h 0.875008 v -1.633408 c 0,-0.2577494 0.208928,-0.4666773 0.4666773,-0.4666773 H 8.455044 V 4.7997761 H 7.3043347 V 3.0737067 h 1.7260586 v 2.5930881 h 2.2990297 c 0.257749,0 0.466677,0.208928 0.466677,0.4666773 v 1.633408 h 0.874997 z M 7.4151507,7.4806721 6.351332,8.5444908 5.821988,8.0151468 5.3527507,8.4792641 6.351332,9.4647041 7.8927293,7.9364481 Z m 3.0916693,0 -1.0638187,1.0638187 -0.529344,-0.529344 -0.4692373,0.4641173 0.9985813,0.98544 1.5413977,-1.528256 z" />
</svg>
