<svg xmlns="http://www.w3.org/2000/svg" fill-rule="evenodd" fill="#000" viewBox="0 0 16 16">
	<path d="M 2.7061131,13.904762 V 1.9047621 h 1.5988776 v 4.3054734 a 3.5734793,3.2917893 0 0 1 2.825463,-1.1949471 3.8107056,3.5103157 0 0 1 1.8217061,0.3789471 2.4264281,2.2351579 0 0 1 1.1065982,1.0515794 5.2635455,4.8486313 0 0 1 0.333216,1.9484205 V 13.904762 H 8.7930954 V 8.3961305 A 2.4682513,2.2736842 0 0 0 8.2733914,6.7874992 1.9327778,1.780421 0 0 0 6.8027239,6.2822355 2.593035,2.3886315 0 0 0 5.4650688,6.6220247 2.0829298,1.9187368 0 0 0 4.5737563,7.5428678 4.5936898,4.2315788 0 0 0 4.3070478,9.1470776 v 4.7576844 z" />
</svg>
