<svg xmlns="http://www.w3.org/2000/svg" fill-rule="evenodd" fill="#000" viewBox="0 0 16 16">
  <path d="m 2.53125,2 h 10.9375 C 14.314,2 15,2.686 15,3.53125 v 7.4375 C 15,11.80875 14.30875,12.5 13.46875,12.5 H 2.53125 C 1.69125,12.5 1,11.80875 1,10.96875 V 3.53125 C 1,2.686 1.686,2 2.53125,2 Z M 2.3125,10.969625 c 0,0.12075 0.098,0.21875 0.21875,0.21875 h 10.9375 c 0.119875,0 0.21875,-0.09888 0.21875,-0.21875 v -5.63675 l -5.355,3.1395 c -0.20475,0.12075 -0.46025,0.12075 -0.665,0 l -5.355,-3.1395 z M 13.6875,3.81125 v -0.28 c 0,-0.119875 -0.09887,-0.21875 -0.21875,-0.21875 H 2.53125 c -0.119875,0 -0.21875,0.098875 -0.21875,0.21875 v 0.28 L 8,7.145 Z" />
</svg>
