<svg xmlns="http://www.w3.org/2000/svg" fill-rule="evenodd" fill="#000" viewBox="0 0 24 16">
  <path d="m 12.176771,0.456399 c 0,0 -0.838593,0.6627005 -1.693489,1.320901 C 9.6038455,1.7493609 7.8789554,1.9462776 6.9442895,2.2861901 6.0833198,1.7407347 5.3267839,1.138501 5.3267839,1.138501 c 0,0 -0.6464711,1.1121565 -1.052993,1.7648243 C 3.6708687,3.2239789 3.0655367,3.5846404 2.5260321,4.061834 1.8985198,3.8126635 1.1710985,3.5088541 1.1473691,3.4988213 1.9783636,5.1749741 2.5370238,6.8533891 4.056612,7.8620709 6.4760221,4.0410308 17.718816,4.3931596 20.188144,7.8404072 21.784035,7.0080111 22.404711,5.217146 23.032223,3.5637144 22.963406,3.5863863 22.109434,3.8722943 21.55584,4.083424 21.225325,3.7235739 20.446265,3.1703235 20.003473,2.9032515 19.583476,2.1341501 18.972168,1.0951243 18.972168,1.0951243 c 0,0 -0.724028,0.5384964 -1.563211,1.1260252 C 16.275211,2.011869 14.903974,1.7575789 13.750703,1.8205293 12.965569,1.1751893 12.176623,0.45630064 12.176623,0.45630064 Z"/>
  <path d="m 2.006347,7.061273 c 0,0 1.1778364,2.8519482 1.9958473,4.833656 3.4662065,4.573003 12.3176227,4.890951 16.1765317,0.08854 0.913125,-2.0578879 2.145059,-4.9499669 2.145059,-4.9499669 -0.989968,1.4665721 -2.60113,2.4789179 -3.593336,3.0243239 -0.705094,0.38626 -2.331968,0.619742 -2.331968,0.619742 L 12.127198,8.4641964 7.8315705,10.63328 c 0,0 -1.6052598,-0.2579 -2.3319681,-0.59761 C 4.0328827,9.2526994 3.0464056,8.3276728 2.006347,7.0612632 Z"/>
</svg>
