<svg xmlns="http://www.w3.org/2000/svg" fill-rule="evenodd" fill="#000" viewBox="0 0 16 16">
   <path d="m 8.9761494,13.133333 h 5.9478716 c 0.188928,2.2e-5 0.374507,-0.04928 0.538112,-0.14288 0.163616,-0.09365 0.299456,-0.228298 0.393867,-0.390474 0.0944,-0.162187 0.144096,-0.346134 0.144,-0.533366 -8.5e-5,-0.187232 -0.04992,-0.371146 -0.14448,-0.533248 L 11.861109,4.6762454 c -0.0944,-0.1621334 -0.230229,-0.2967787 -0.393802,-0.3904 -0.163574,-0.093653 -0.34912,-0.1428907 -0.538006,-0.1428907 -0.188874,0 -0.374432,0.04928 -0.537994,0.1428907 -0.163574,0.093653 -0.299392,0.2282666 -0.3937922,0.3904 L 8.9761494,6.4307413 6.9792214,2.999872 C 6.8847148,2.83776 6.7488534,2.7031254 6.5852481,2.6095254 6.4216214,2.5159467 6.2360428,2.4666667 6.0471361,2.4666667 c -0.1889066,0 -0.374496,0.04928 -0.5381013,0.1428587 C 5.3454081,2.703072 5.2095361,2.83776 5.1150401,2.999872 L 0.14446948,11.533365 C 0.04985615,11.695467 8.5483057e-5,11.879381 1.4972447e-7,12.066613 -7.4516942e-5,12.253845 0.04960015,12.437792 0.14401082,12.599979 c 0.0944,0.162176 0.23026133,0.296842 0.39385601,0.390474 0.16360534,0.09365 0.34920533,0.142902 0.53812267,0.14288 h 3.7335786 c 1.4792854,0 2.570208,-0.644 3.3208533,-1.900426 L 9.9528748,8.1048 10.929013,6.4307413 l 2.9296,5.0285337 H 9.9528748 Z M 4.7486935,11.457547 2.1431362,11.45696 6.0488748,4.75264 7.9976961,8.1048 6.6928748,10.345333 c -0.4985067,0.8152 -1.064832,1.112214 -1.9441813,1.112214 z" />
</svg>
