<svg xmlns="http://www.w3.org/2000/svg" fill-rule="evenodd" fill="#000" viewBox="0 0 16 16">
  <path d="m 8.7656734,9.9538529 c 0,0 8e-7,-2.6663488 8e-7,-3.4175822 0,-0.7512337 -0.4549729,-1.0157527 -0.4549729,-1.0157527 0,0 0.5607807,-0.031742 0.7935572,0.2221958 C 9.982461,4.6846385 11.738867,4.197924 11.738867,4.197924 L 10.52208,5.8379408 V 9.9538529 C 10.966471,10.715668 12.077451,9.6152696 12.426617,9.1602971 12.225581,9.7316574 11.305056,11.181221 9.8978146,11.995939 L 8.9561275,11.181221 7.9192143,12.239297 C 6.8247022,12.10016 5.6337698,11.805486 4.6709209,10.768572 5.1363648,10.90504 5.3670222,10.73441 5.3670222,10.493471 V 7.0644279 C 5.2238921,6.1988325 4.207598,6.91175 3.4964567,7.7318957 2.9044073,8.4146945 2.5841133,9.1575709 2.5962835,9.2579276 2.3653886,7.113905 5.4164991,4.326675 7.2471656,3.8648857 6.0358383,4.7057998 6.5172627,5.9754905 7.0568818,5.7850367 v 4.2852053 c 0.5590487,0.750992 1.1328606,0.396701 1.7087916,-0.1163891 z" />
  <path d="m 14.179842,7.9999988 c 0,3.4130322 -2.76681,6.1798402 -6.179842,6.1798402 -3.4130321,0 -6.1798421,-2.766808 -6.1798421,-6.1798402 0,-3.4130316 2.7668097,-6.17984 6.1798421,-6.17984 3.413032,0 6.179842,2.7668089 6.179842,6.17984 z M 8,1 C 4.1340066,1 1,4.1340061 1,7.9999988 c 0,3.8659932 3.1340066,6.9999992 7,6.9999992 3.865993,0 7,-3.134007 7,-6.9999992 C 15,4.1340063 11.865993,1 8,1 Z" />
</svg>
