<svg xmlns="http://www.w3.org/2000/svg" fill-rule="evenodd" fill="#000" viewBox="0 0 16 16">
  <path d="m 10.178913,1.3758441 c 0.122514,0.1520885 0.184988,0.3573213 0.309935,0.7677994 l 2.72968,8.9670105 c -1.009247,-0.52355 -2.10638,-0.901153 -3.2634664,-1.104873 L 8.177777,3.9997639 C 8.1486957,3.9014901 8.0584266,3.8340751 7.9559552,3.8340751 c -0.1027488,0 -0.1931818,0.067768 -0.2220235,0.1663821 L 5.9781523,10.002743 C 4.8157088,10.205555 3.7135581,10.583839 2.7,11.109293 L 5.4430673,2.1415635 h 1.26e-5 C 5.5684179,1.7318039 5.6310807,1.5269242 5.7536077,1.3751054 5.8617643,1.2410795 6.002456,1.1369907 6.162258,1.0727573 6.3432753,1 6.557521,1 6.9860252,1 H 8.94526 c 0.4290714,0 0.6435945,0 0.8247757,0.07291 0.1599532,0.064366 0.3007203,0.1686637 0.4088773,0.3029341 z" />
  <path d="m 10.505551,11.537394 c -0.449997,0.384788 -1.348163,0.647212 -2.3827473,0.647212 -1.2697934,0 -2.3340892,-0.395313 -2.6165065,-0.92697 -0.1009587,0.304692 -0.1235985,0.653415 -0.1235985,0.876182 0,0 -0.06652,1.093818 0.6942946,1.854696 0,-0.395061 0.3202594,-0.715245 0.7153082,-0.715245 0.6771256,0 0.6763567,0.590701 0.675739,1.069968 -1.26e-5,0.01437 -3.78e-5,0.02862 -3.78e-5,0.04273 0,0.727472 0.4446142,1.351074 1.0769267,1.614028 -0.094442,-0.194253 -0.1474232,-0.412457 -0.1474232,-0.642888 0,-0.693816 0.4073267,-0.952232 0.8807197,-1.252499 v 0 c 0.3766697,-0.238877 0.7951651,-0.504226 1.0835821,-1.036689 0.150487,-0.277829 0.235941,-0.595958 0.235941,-0.934105 0,-0.20793 -0.03231,-0.408322 -0.0922,-0.596424 z" fill="#ff5d01" />
</svg>
