<svg xmlns="http://www.w3.org/2000/svg" fill-rule="evenodd" fill="#000" viewBox="0 0 16 16">
  <path d="m 10.39008,9.4713314 c 0.01816,0.5052116 0.288474,0.5014353 0.609858,0.4896375 0.432877,-0.00791 0.670502,-0.1405779 0.887717,-0.035937 -0.0034,-0.012109 -0.07129,-0.2149093 -0.371071,-0.1796313 0.03486,-0.075038 0.04961,-0.1766235 0.03906,-0.3161409 -0.03945,-0.5048571 -0.333191,-0.9058879 -0.655405,-0.8945023 -0.321393,0.010976 -0.527974,0.4302318 -0.510171,0.936623 z m 0.479898,-0.6159401 a 0.16382197,0.16382197 0 0 1 0.167127,0.1614625 0.16458885,0.16458885 0 0 1 -0.161043,0.1675376 0.16500184,0.16500184 0 0 1 -0.167548,-0.1622291 0.16399892,0.16399892 0 0 1 0.161464,-0.166771 z M 5.9773876,10.051994 c 0.033388,7.67e-4 0.068251,0 0.1038233,-7.67e-4 0.031152,0 0.062236,-7.67e-4 0.094804,-0.0019 0.3225696,-0.0031 0.5898056,0.02725 0.5856181,-0.4783702 -0.00531,-0.505565 -0.2297168,-0.9149727 -0.5522287,-0.9115499 -0.321804,0.00301 -0.6334019,0.4176664 -0.6148191,0.9229366 0.00566,0.1319071 0.025019,0.2266494 0.056035,0.2952563 -0.2804498,0.070908 -0.3580839,0.2441112 -0.3626854,0.2550832 0.1766235,-0.09512 0.3763718,-0.08154 0.6894444,-0.08066 z M 6.2544751,8.977447 C 6.3454411,8.974377 6.420834,9.046411 6.4239014,9.1373753 A 0.16488387,0.16488387 0 0 1 6.26356,9.3060936 0.16417587,0.16417587 0 0 1 6.0945467,9.1461067 0.16382197,0.16382197 0 0 1 6.2544751,8.9773884 Z M 7.0114072,3.5894921 H 7.915761 v -0.37295 H 8.1192856 V 4.9395927 H 7.8119347 V 5.903529 H 9.3951146 V 4.9395928 H 9.0873501 V 3.216542 h 0.2039367 v 0.37295 H 10.196407 V 2.3125421 H 7.0114067 Z" />
  <path d="m 15.494163,6.0516588 a 3.8805216,3.8805216 0 0 0 -0.03106,-0.3263459 c -0.0076,-0.05456 -0.01562,-0.1091368 -0.02685,-0.1625826 -0.01055,-0.055341 -0.02129,-0.1065401 -0.03906,-0.1667711 l -0.01143,-0.04248 -0.02988,-0.023887 C 15.183352,5.1946765 14.997991,5.0923253 14.809638,5.0021843 14.653897,4.9286197 14.495793,4.8645554 14.336223,4.8057989 13.8901,3.5686087 13.124437,2.4717037 12.116611,1.7079877 11.075395,0.91807931 9.8507121,0.5 8.5756498,0.5 7.2998796,0.5 6.0755509,0.91807931 5.0339807,1.7079877 4.2407101,2.3091209 3.5982231,3.1171988 3.1429787,4.0371266 h -0.00218 A 7.3312831,7.3312831 0 0 0 2.8122088,4.8057979 C 2.6522219,4.8645571 2.4941812,4.9286201 2.3383818,5.0021244 2.149606,5.0923873 1.9646652,5.1946765 1.7921715,5.3295913 l -0.030322,0.023887 -0.011328,0.04248 a 1.7775006,1.7775006 0 0 0 -0.039462,0.166771 c -0.010615,0.053447 -0.019297,0.1080147 -0.026543,0.1625826 -0.010976,0.077695 -0.018174,0.1565661 -0.024599,0.2353799 h 0.00265 a 2.4079527,2.4079527 0 0 0 -0.00649,0.091386 4.1084682,4.1084682 0 0 0 0.019004,0.6549339 4.1182019,4.1182019 0 0 0 0.1212881,0.6454946 3.4452754,3.4452754 0 0 0 0.1057735,0.3146067 c 0.020058,0.051914 0.04206,0.1034679 0.06666,0.1553864 0.012148,0.025781 0.025429,0.051201 0.038701,0.077343 l 0.021592,0.038281 c 0.00832,0.014394 0.014043,0.024658 0.026543,0.043183 l 0.021592,0.03416 0.034863,0.017822 c 0.036757,0.018935 0.06749,0.032978 0.1008732,0.048906 l 0.096982,0.043945 c 0.017822,0.0072 0.035283,0.014756 0.053798,0.022363 C 1.9214247,8.5570838 1.4408135,9.0881331 1.025035,9.7446012 L 0.5,10.572026 1.2372283,9.9250001 c 0.01292,-0.010937 0.6306881,-0.5457982 1.6616986,-1.1525943 l 0.014394,0.1185752 0.037519,0.2990912 0.1887757,1.5339208 c 0.00413,0.0292 0.019297,0.05537 0.043603,0.07197 l 0.3869899,0.271775 c 0.00678,0.02158 0.013213,0.04316 0.019697,0.06562 0.00908,0.03066 0.017402,0.06104 0.026904,0.0917 l 0.08831,0.266473 c 0.1936722,0.602319 0.4681045,1.145455 0.8020021,1.622645 -0.015928,0.005 -0.032207,0.0094 -0.048144,0.01406 C 4.2577559,13.034903 3.5546253,12.708931 3.3184788,12.602388 L 2.8245943,12.38069 3.1168428,12.836644 c 0.02124,0.03291 0.5253276,0.819104 0.936623,1.34898 0.3854558,0.494654 0.912672,0.99951 1.9072249,0.99951 a 3.5773005,3.5773005 0 0 0 0.3741307,-0.02119 c 0.2967905,-0.03457 0.5196636,-0.06103 0.6890909,-0.08301 1.0438705,0.384333 2.195344,0.407048 3.2881187,-0.0065 a 4.779625,4.779625 0 0 0 0.821771,-0.405807 c 0.0053,-7.68e-4 0.01016,-0.0024 0.01475,-0.0034 0.406334,-0.09783 0.8676,-0.208133 1.09543,-0.271775 0.03633,-0.0099 0.08223,-0.0209 0.129608,-0.03223 0.317263,-0.07236 0.847484,-0.195975 1.129882,-0.761468 0.284636,-0.570816 0.749388,-1.444901 0.753929,-1.453574 l 0.217566,-0.406755 -0.422613,0.183876 c -0.02315,0.0099 -0.559078,0.24364 -0.837689,0.389645 -0.0094,0.0057 -0.02158,0.01055 -0.03252,0.01592 0.226649,-0.462086 0.339616,-0.83014 0.380153,-0.971486 l 0.152792,-0.630337 0.440026,-0.9843475 c 0,0 0.123524,-1.0760218 0.126248,-1.0753139 l 0.04316,-0.4116489 c 0.03857,-0.016279 0.27367,-0.032558 0.319509,-0.050732 0.06563,-0.02584 0.131142,-0.051201 0.196737,-0.079648 l 0.09668,-0.043945 c 0.03408,-0.015928 0.06445,-0.02997 0.101278,-0.048964 l 0.03486,-0.017754 0.02207,-0.034101 c 0.01211,-0.018584 0.01885,-0.029199 0.02617,-0.043242 l 0.02129,-0.038281 c 0.01475,-0.026133 0.02725,-0.051562 0.03906,-0.077275 a 2.7891617,2.7891617 0 0 0 0.06748,-0.155445 3.6874983,3.6874983 0 0 0 0.105009,-0.3146068 c 0.05752,-0.2133751 0.0993,-0.4282845 0.121288,-0.6454946 0.02432,-0.216797 0.02949,-0.4358361 0.01865,-0.6545794 z M 5.45206,8.7075566 C 5.4615,8.7010666 5.8568662,8.4418547 6.5023611,8.1261269 a 27.965062,27.965062 0 0 1 2.1142884,-0.07999 c 0.1849408,0 0.3664608,0.00265 0.5457396,0.00572 C 9.0373247,8.1526801 8.9054186,8.247773 8.7682019,8.3300682 L 8.3122497,8.6059761 C 8.0245441,8.6408391 7.7751829,8.7124566 7.7614965,8.7162915 a 0.09657067,0.09657067 0 0 0 -0.023838,0.010205 c -0.022422,0.01292 -0.039462,0.034101 -0.047021,0.05917 L 7.2244284,10.321117 4.7361279,10.874113 3.9518828,10.324892 3.7237001,8.4778401 C 4.1686798,8.3956045 4.7645029,8.3012166 5.4793146,8.2212231 A 3.8167507,3.8167507 0 0 0 5.2580342,8.5100508 L 4.8323444,9.1210935 Z M 8.8103215,15.13366 C 8.3997927,15.161 7.9828939,15.11286 7.5746664,15.000986 c 0.034101,-0.0068 0.058759,-0.01055 0.089081,-0.01406 0.03334,-0.0046 0.766017,-0.100858 1.0953712,-0.590512 l 0.031084,7.09e-4 0.081884,-7.68e-4 c 0.054218,0 0.1034679,-0.0045 0.156152,-0.0068 0.1250644,-0.01025 0.245998,-0.02842 0.3661659,-0.05264 0.012861,0.0126 0.025019,0.025 0.038281,0.03857 0.2474735,0.245232 0.5548831,0.385807 0.8925555,0.410465 -0.5680963,0.230828 -1.1029197,0.320329 -1.5149228,0.347585 z m 0.037168,-0.898283 c 0.061708,-0.137626 0.1083692,-0.244871 0.1435876,-0.325642 a 10.984271,10.984271 0 0 0 0.2684148,0.288826 c -0.08082,0.01211 -0.1604,0.02236 -0.2388603,0.02891 -0.051494,0.0022 -0.1053605,0.008 -0.1546198,0.008 h -0.018584 z m -1.2209072,-3.169486 0.2224601,-0.05 a 0.10353175,0.10353175 0 0 0 0.076572,-0.07129 L 8.3903559,9.415932 c 0.080341,-0.010615 0.1508435,-0.016279 0.211842,-0.016279 0.059111,0 0.130786,0.00572 0.2107804,0.016279 l 0.4783105,1.574154 c 0.012148,0.04014 0.046601,0.06934 0.087538,0.07383 l 0.1773901,0.02012 0.045478,0.005 3.0558081,0.347585 c 0.02529,0.003 0.05039,-0.0042 0.07129,-0.01865 l 0.307058,-0.214549 0.283865,-0.198631 0.105009,-0.07383 c -0.01719,0.07314 -0.03604,0.145887 -0.05576,0.217566 a 9.3631591,9.3631591 0 0 1 -0.09131,0.275144 c -0.125477,0.357077 -0.266062,0.681127 -0.419196,0.973732 a 2.1107488,2.1107488 0 0 1 -0.134207,0.0045 c -0.148603,0 -0.299451,-0.01211 -0.466627,-0.02764 -0.290242,-0.02685 -0.750033,-0.07959 -0.894856,-0.0958 -0.126249,-0.100449 -0.554878,-0.440436 -0.910832,-0.721303 -0.01357,-0.01055 -0.02578,-0.02197 -0.03818,-0.03184 -0.0626,-0.05303 -0.133797,-0.112968 -0.27821,-0.112968 -0.131903,0 -0.3236893,0.04785 -0.7872567,0.187596 0.2414559,-0.18034 0.2433436,-0.412712 0.2433436,-0.412712 0,0 -0.3433946,0.31991 -0.8975696,0.390407 -0.5526409,0.07129 -0.9873563,-0.268767 -0.9873563,-0.268767 0.018174,0.05918 0.043945,0.192909 0.1694254,0.306287 -0.1474812,-0.01719 -0.306642,-0.0292 -0.4738271,-0.0292 -0.059882,0 -0.1212881,0.0015 -0.1800444,0.0045 C 6.8818761,11.608623 6.4028567,12.122636 6.0666003,12.64153 5.9013634,12.69387 5.3847662,12.857973 4.7874087,13.03348 4.4345125,12.545306 4.1953563,12.049888 4.0600283,11.731149 3.9811618,11.545447 3.9372061,11.419198 3.9273547,11.389287 v -7.67e-4 c -0.010976,-0.03037 -0.022763,-0.0626 -0.032978,-0.09482 l 0.1432928,0.100126 v 7.09e-4 l 0.3543681,0.24865 0.1182802,0.08232 c 0.017822,0.0126 0.039404,0.01885 0.059882,0.01885 0.00755,0 0.015156,-7.08e-4 0.023125,-0.0022 z M 9.5118595,8.7856625 A 0.10518349,0.10518349 0 0 0 9.4406003,8.715878 C 9.4250829,8.710981 9.1176763,8.6234373 8.7913294,8.5957686 l 0.059882,-0.0046 c 0.051562,-0.00378 0.9085422,-0.1083692 1.9323566,-0.4616153 1.133657,0.086777 2.059248,0.2259415 2.692238,0.3410948 L 13.25181,10.042143 12.461138,10.595138 9.9757872,10.312744 Z m 5.4562095,-2.116943 c -0.02773,0.2024026 -0.119404,0.5965897 -0.119404,0.5965897 l -0.07168,0.011807 c -0.0376,-0.010264 -0.386989,-0.1008732 -0.98889,-0.2122541 0.01934,-0.00419 0.03799,-0.00838 0.05605,-0.0125 a 2.7731158,2.7731158 0 0 0 0.366931,-0.1175126 c 0.05908,-0.025361 0.118221,-0.052324 0.173963,-0.084189 0.05537,-0.032207 0.10955,-0.067841 0.151962,-0.1159795 -0.602656,0.1970939 -1.848111,0.107661 -2.95528,-0.00678 C 10.570063,6.6232433 9.5546231,6.5558151 8.5342901,6.5535144 7.5143117,6.555815 6.5000546,6.6236603 5.4872726,6.7278967 4.3801028,6.842342 3.1350089,6.9317749 2.5323422,6.7346808 c 0.04248,0.047783 0.096982,0.083769 0.1527312,0.1159795 0.055341,0.031855 0.1140918,0.058408 0.1732016,0.084189 a 2.8169472,2.8169472 0 0 0 0.367286,0.1175126 c 0.043955,0.010205 0.08873,0.020059 0.1334403,0.028017 -0.549219,0.1042423 -0.867189,0.1868881 -0.9028791,0.1967405 0,0 -0.1265976,0.020469 -0.1542653,-0.076572 C 2.2469354,7.0064627 2.2101291,6.8707803 2.1824565,6.6687312 A 4.4650184,4.4650184 0 0 1 2.144576,6.0608144 C 2.14493,6.027426 2.144163,5.9607049 2.144163,5.9607049 2.146053,5.8925119 2.149123,5.8242549 2.15555,5.7560015 2.159325,5.7056211 2.3446789,5.5442191 2.5039002,5.4524269 2.6759808,5.3523809 2.8567927,5.2621756 3.040967,5.1784068 3.2232535,5.0919817 3.8141802,4.9665062 4.1704948,4.9020858 4.5268092,4.8369008 5.8010454,4.6678866 5.8966131,4.6321955 5.9917588,4.5958579 6.5424622,4.1712873 6.6387378,4.1360688 6.4363938,4.1694084 3.639858,4.596564 3.5140273,4.636384 4.4218029,2.262529 6.2036097,1.1064545 8.575223,1.1064545 c 2.370848,0 4.153067,1.0915958 5.061551,3.4658637 -1.199199,-0.3187366 -2.86013,-0.4673379 -3.062533,-0.5010817 0.09629,0.035283 0.640962,0.418433 0.742123,0.4313528 0.829319,0.1076612 2.137001,0.397609 2.231742,0.4351282 0.188006,0.076161 0.376374,0.1546198 0.559077,0.2406894 0.184647,0.083769 0.365046,0.1739682 0.537125,0.2740201 0.159158,0.092148 0.344167,0.2531961 0.348649,0.3036342 0.0088,0.1015841 0.0126,0.2027571 0.01367,0.3044017 0.0015,0.2031106 -0.0126,0.4070474 -0.03857,0.6082713 z" />
</svg>
