<svg xmlns="http://www.w3.org/2000/svg" fill-rule="evenodd" fill="#000" viewBox="0 0 16 16">
	<path d="m 14.632502,1.233331 v 2.333326 c 0,0.128865 -0.105799,0.233331 -0.236299,0.233331 H 4.471832 c -0.130503,0 -0.236296,0.104466 -0.236296,0.23333 V 8.818964 C 4.235832,9.190961 4.086196,9.547772 3.819657,9.81063 L 1.4,12.199956 V 1.233331 C 1.4,1.104467 1.505793,1 1.636295,1 h 12.759908 c 0.1305,0 0.236299,0.104467 0.236299,0.233331 z M 7.307276,9.399943 h 5.23392 c 0.1305,0 0.236299,-0.104475 0.236299,-0.233337 V 6.833268 c 0,-0.128862 -0.105799,-0.233337 -0.236299,-0.233337 h -5.23392 c -0.130499,0 -0.236298,0.104475 -0.236298,0.233337 v 2.333338 c 0,0.128862 0.105799,0.233337 0.236298,0.233337 z M 3.819657,14.589313 1.4,12.199987 h 12.996203 c 0.1305,0 0.236299,0.104476 0.236299,0.233337 v 2.333339 C 14.632502,14.895524 14.526703,15 14.396203,15 H 4.823904 C 4.447203,15.000283 4.085865,14.852518 3.819657,14.589313 Z" />
</svg>
