<svg xmlns="http://www.w3.org/2000/svg" fill-rule="evenodd" fill="#000" viewBox="0 0 16 16">
	<path d="M 14.72656,1.27344 V 5.10156 H 10.89844 V 1.27344 h 3.82812 m -4.8125,0 V 5.10156 H 6.08594 V 1.27344 h 3.82812 m -4.8125,0 V 5.10156 H 1.27344 V 1.27344 h 3.82812 m 9.625,4.8125 V 9.91406 H 10.89844 V 6.08594 h 3.82812 M 15,1 H 10.625 V 5.375 H 15 Z m -4.8125,0 h -4.375 v 4.375 h 4.375 z M 5.375,1 H 1 V 5.375 H 5.375 Z M 15,5.8125 h -4.375 v 4.375 H 15 Z m -4.8125,4.375 h -4.375 v -4.375 h 4.375 z m 0,0.4375 H 5.8125 V 15 h 4.375 z m 4.8125,0 H 10.625 V 15 H 15 Z m -9.625,0 H 1 V 15 h 4.375 z" />
</svg>
