<svg xmlns="http://www.w3.org/2000/svg" fill-rule="evenodd" fill="#000" viewBox="0 0 512 512">
<path d="m104.32 290.75s-29.805 30.694-62.903 2.7713c-37.7-31.844-14.955-80.577-14.955-80.577s-49.518 31.373-13.072 97.623c36.759 66.825 101.65 34.824 101.65 34.824-5.4452 19.9 0.41008 11.824-9.9349 24.053 13.191 30.525-2.9219 35.346-0.26144 47.478 1.2549 5.0721 7.6865 6.3269 7.6865 6.3269 4.3815 9.4366 8.8996 10.446 19.87 5.8041 11.671 5.0342 17.536 4.9397 25.674-5.804 6.3403 0.16656 13.844 1.5005 14.902-9.1505l-17.412-15.739-0.83662-24.001c10.211-13.647 29.476-32.598 24.837-61.23 22.173-12.551 24.186 19.972 48.89 19.085-1.212 11.144-1.5629 21.557 1.6209 28.968 13.043 9.7206 9.3159 21.918 19.87 34.458 4.2418 5.0977 10.439 4.527 18.914 9.9573 13.244 8.4861 16.841 22.674 13.278 32.825-3.48 9.9138-10.873 14.803-4.8963 27.912 8.9964-0.28662 15.216 2.4088 22.38 9.9348 8.2321-5.4175 18.27-9.7913 33.099-2.5099 18.2-2.7803 3.881-15.286 24.001-15.739 13.126-19.002-10.497-14.195-17.412-33.935l9.0982-10.771c9.0047 4.1831 16.521 6.3117 24.001 3.3465l0.83661-5.804c-33.746-66.145 7.9407-99.494-9.9872-162.3 16.927-30.567 115.31 33.797 125.07-19.922-13.756 6.6408-25.74-4.5121-40.576-22.38 14.109-5.6515 40.133-5.41 50.511 22.38 15.064-14.602 20.57-29.086 1.8301-68.708 12.524-13.794 11.47-35.335 9.9348-57.152-7.8471 21.141-14.046 28.623-29.805 37.23-30.176 0.61498-59.881 4.4493-59.661-24.837 18.313-23.237 45.993-40.913 48.053-62.903-37.254 18.226-63.895 37.429-77.021 53.857l-4.1308-6.6407c18.994-21.472 19.937-42.155 14.118-63.74-5.2017 20.481-15.093 36.62-32.262 47.217-11.736 1.6857-15.78-13.292-19.085-21.543-12.323 6.6291-18.45-1.3746-25.674-9.9349-13.131 8.8416-23.557 10.557-38.119 9.0983-7.9332 9.8419-22.94 10.592-35.609 10.771 6.0403 16.704-6.4656 24.582-23.164 30.641l14.066 14.066c-30.505 16.715-34.963 36.885-58.773 51.348-60.903 13.171-91.964 53.306-78.642 123.35zm199.17 66.668-3.6079-30.223 11.713-3.6079 2.2484 42.877-10.353-9.046z"/>
</svg>
