<svg xmlns="http://www.w3.org/2000/svg" fill-rule="evenodd" fill="#000" viewBox="0 0 16 16">
  <path d="m 15.998935,4.2819079 c 0,0 -0.0994,-0.41134 -0.64576,-0.99145 -0.57421,-0.60962 -1.12262,-0.42187 -1.13588,-0.48515 -0.0132,-0.0633 0.0729,-0.18985 0.0729,-0.18985 0,0 -0.24505,0.0633 -0.78816,0.5801 -0.346,0.32925 -0.64432,0.68669 -0.79313,0.87277 -0.005,-0.004 -0.01,-0.007 -0.0149,-0.0107 0.0509,-0.22099 0.24108,-0.7457 1.19204,-2.07501 -1.14238,1.27408 -1.31687,1.85151 -1.33571,2.05281 -0.0806,0.0224 -0.14016,0.10052 -0.14016,0.19373 0,0.0873 0.0523,0.16132 0.12504,0.18881 0.0254,0.24814 0.0541,0.76297 0.0465,1.46709 -0.008,0.76876 -0.20867,1.41163 -0.29155,1.6456 -0.011,-0.006 -0.0205,-0.009 -0.0274,-0.009 -0.0347,0.003 -0.18236,0.25119 -0.22898,0.36179 -0.0466,0.11059 0.002,0.19062 0.002,0.19062 0,0 -6e-4,0.002 -0.002,0.004 -0.0101,0.0126 -0.0163,0.0281 -0.0193,0.0473 -0.0388,0.0922 -0.13115,0.29878 -0.27451,0.54175 -0.0101,-0.007 -0.0177,-0.0115 -0.0177,-0.0115 0,0 -0.0435,-0.008 -0.0752,0.0158 -0.0316,0.0237 -0.1009,0.12956 -0.33223,0.24522 -0.0788,0.0394 -0.15043,0.0624 -0.21379,0.0762 0.074,-0.37302 0.13332,-0.80663 0.16237,-1.31022 0.10574,-1.83278 -1.12326,-2.7528 -2.09624,-2.78444 -0.0278,-9.1e-4 -0.0555,-0.001 -0.083,-0.001 -10e-6,-0.005 2.8e-4,-0.0101 10e-4,-0.0146 0.0141,-0.0651 0.0158,-0.0844 -0.058,-0.0211 -0.015,0.0128 -0.0285,0.0256 -0.0405,0.038 -0.0317,0.001 -0.0631,0.004 -0.0943,0.006 -0.002,-0.0194 -0.004,-0.0447 -0.002,-0.0759 0.003,-0.0501 0.0158,-0.0844 -0.058,-0.0211 -0.0505,0.0433 -0.0851,0.0855 -0.0972,0.11647 -0.0176,0.003 -0.0351,0.006 -0.0525,0.009 -0.0104,-0.0277 -0.0354,-0.07 -0.0322,-0.1071 0.007,-0.0784 0.029,-0.0923 -0.0246,-0.0426 -0.0651,0.0603 -0.13438,0.1505 -0.1466,0.1989 -0.0215,0.006 -0.0428,0.0133 -0.0639,0.0204 -0.0125,-0.0123 -0.0492,-0.0472 -0.0576,-0.11861 -0.009,-0.0737 -0.008,-0.11074 -0.0527,-0.0343 -0.0478,0.0815 -0.0758,0.17038 -0.0875,0.23266 -0.0209,0.01 -0.0415,0.0203 -0.0618,0.0309 -0.0178,-0.0216 -0.0356,-0.0558 -0.0376,-0.11551 -0.003,-0.0961 0.027,-0.17406 -0.045,-0.045 -0.0381,0.0683 -0.0751,0.17181 -0.0972,0.27036 -0.0239,0.0169 -0.0473,0.0343 -0.07,0.0524 -0.003,-0.0338 -0.005,-0.0715 -0.005,-0.11344 -0.001,-0.0942 0.0142,-0.19645 -0.0449,-0.0166 -0.0174,0.0529 -0.0349,0.12815 -0.0467,0.21465 -0.26926,0.25623 -0.43288,0.6114 -0.42933,1.0478 0.002,0.26078 0.0327,0.46695 0.081,0.62807 -0.0635,0.0866 -0.0688,0.45897 -0.007,0.5453 0.0497,0.0696 0.33482,0.23557 0.39289,0.26631 0.13447,0.0712 0.15029,0.41134 0.0791,0.56955 -0.0712,0.15821 0.0712,0.18985 0.18985,0.21358 0.11865,0.0237 0.27686,-0.0158 0.3085,-0.0791 0.0316,-0.0633 -0.10283,-0.20566 -0.1582,-0.49835 -0.0554,-0.29268 0.087,-0.31641 0.087,-0.31641 0,0 0.0633,0.0158 0.15821,0.16612 0.0737,0.11674 0.15132,0.2089 0.22361,0.27503 -0.0227,0.0305 -0.0628,0.0706 -0.13396,0.11522 0.0795,0.004 0.16014,-0.0342 0.2031,-0.0584 0.0162,0.0117 0.0319,0.0215 0.047,0.03 -0.0104,0.011 -0.0216,0.0223 -0.0339,0.0336 0.0266,-0.002 0.0509,-0.008 0.073,-0.0147 0.0204,0.008 0.0394,0.0134 0.0562,0.0147 0.10284,0.008 0.3797,-0.24522 0.3797,-0.29268 0,-0.0475 -0.14238,-0.11865 -0.23731,-0.23731 -0.0949,-0.11865 -0.0949,-0.27686 -0.0949,-0.27686 0,0 0.19776,-0.17403 -0.3006,-0.73566 -0.20126,-0.22683 -0.42316,-0.37492 -0.61622,-0.47091 -0.0405,-0.4644 0.2568,-0.8837 1.00383,-0.84484 1.11536,0.058 1.60527,1.24085 1.46341,2.37573 -0.003,0.0281 -0.008,0.0559 -0.012,0.0836 -1.8e-4,1.6e-4 -3.4e-4,3.1e-4 -5.1e-4,4.7e-4 -0.0585,0.0549 -0.0445,0.0581 -0.01,0.0591 -0.0114,0.0612 -0.025,0.12139 -0.0404,0.18044 -0.007,0.004 -0.0134,0.007 -0.0202,0.0115 -0.0826,0.0493 -0.0476,0.0483 -6e-5,0.0613 -0.0139,0.0477 -0.029,0.0947 -0.045,0.1408 -0.0189,0.005 -0.0392,0.012 -0.0606,0.0206 -0.0904,0.036 -0.0539,0.0402 -0.008,0.0611 0.0121,0.006 0.0229,0.0111 0.0326,0.0165 -0.0205,0.0528 -0.0422,0.10451 -0.0648,0.15491 -0.0185,0.003 -0.0383,0.007 -0.0593,0.0123 -0.0942,0.0244 -0.0585,0.0331 -0.0159,0.0596 0.0118,0.007 0.0222,0.0145 0.0315,0.0214 -0.0232,0.0477 -0.0471,0.0943 -0.0714,0.13945 -0.0296,7.9e-4 -0.066,0.006 -0.10636,0.0168 -0.0941,0.0244 -0.0585,0.0332 -0.0159,0.0596 0.0238,0.0148 0.0421,0.029 0.0563,0.0411 -0.0268,0.0459 -0.0538,0.0902 -0.0807,0.1329 -0.033,-0.004 -0.0815,9.3e-4 -0.13764,0.0155 -0.0942,0.0244 -0.0585,0.0332 -0.0159,0.0596 0.0323,0.02 0.0546,0.0391 0.0697,0.0531 -0.0286,0.0423 -0.0568,0.0827 -0.084,0.12081 -0.031,-0.0118 -0.0864,-0.0138 -0.15345,-0.004 -0.0962,0.014 -0.0618,0.0266 -0.0223,0.0576 0.0447,0.0351 0.0676,0.0656 0.0791,0.0785 -0.0145,0.0194 -0.0285,0.038 -0.0419,0.0558 -0.0293,-0.0388 -0.0991,-0.0823 -0.16386,-0.12854 -0.0554,-0.0396 -0.16216,-0.087 -0.1938,-0.087 -0.0316,0 -0.13183,0.17931 -0.67765,0.13185 -0.54581,-0.0475 -0.58009,-0.10021 -0.62756,-0.10021 -0.0454,0 -0.14353,0.0361 -0.15208,0.0392 -0.0468,-0.0256 -0.093,-0.0526 -0.13796,-0.0814 -0.64338,-0.41134 -1.01253,-0.81214 -1.01253,-0.81214 0,0 0.0738,-0.0844 -0.0316,-0.18985 -0.0765,-0.0765 -0.26334,-0.21942 -0.38479,-0.29228 -0.0998,-0.1372 -0.26702,-0.40171 -0.46953,-0.85735 -0.31643,-0.71197 -0.34213,-1.2044 -0.3263,-1.41945 0.0637,-0.0502 0.10481,-0.12791 0.10481,-0.21536 0,-0.13908 -0.10364,-0.25369 -0.23784,-0.27153 -0.13942,-0.2901 -0.67313,-1.00974 -2.69426,-2.53399 1.96868,1.68634 2.35296,2.34585 2.4549,2.6216 -0.004,0.004 -0.008,0.009 -0.0113,0.013 -0.25077,-0.19453 -0.69749,-0.52504 -1.20961,-0.83107 -0.86486,-0.51681 -1.25511,-0.5801 -1.25511,-0.5801 0,0 0.13711,0.12657 0.11602,0.18985 -0.0211,0.0633 -0.8944,-0.12446 -1.80883,0.48516 -0.87013,0.5801 -1.02834,0.99144 -1.02834,0.99144 0,0 0.36646,-0.5117 1.0525,-0.86986 -0.009,0.23549 -0.0283,1.3228 0.29753,2.74725 0.343,1.49935 0.98635,2.9165101 1.07581,3.1098501 0.003,0.11881 0.0105,0.18084 0.0105,0.18084 0,0 0.0986,-1.1926001 0.50385,-2.4312201 0.11642,0.18848 0.50544,0.74489 1.38409,1.39761 1.0544,0.7832701 1.55391,1.0118301 1.59938,1.0319501 0.001,0.10539 0.004,0.15987 0.004,0.15987 0,0 0.003,-0.0658 0.0117,-0.17521 0.0445,-0.0641 0.20965,-0.29662 0.36801,-0.44707 0.18255,-0.17343 0.32552,-0.2678 0.36072,-0.29008 0.0208,0.0732 0.0416,0.13622 0.0612,0.1846 -0.0127,-0.065 -0.0241,-0.12778 -0.0344,-0.18852 0.0727,0.007 0.36072,0.0451 0.80432,0.26236 0.2291,0.11221 0.40627,0.26376 0.53266,0.39777 -0.004,10e-4 -0.007,0.002 -0.0106,0.003 0,0 0.0826,0.0741 0.17947,0.26803 -0.20846,-0.007 -0.3753,0.0255 -0.48681,0.056 -0.0199,-0.0418 -0.0417,-0.0846 -0.0651,-0.12573 -0.004,-0.0296 -0.012,-0.06 -0.0257,-0.0902 -0.0183,-0.0405 -0.0638,-0.0658 -0.10929,-0.0931 -0.0225,-0.0211 -0.0457,-0.0377 -0.0693,-0.0486 -0.0155,-0.0141 -0.0286,-0.0299 -0.0372,-0.049 -0.0555,-0.12272 -0.53206,0.008 -0.62765,0.11977 -0.11652,0.13634 -0.13936,0.30969 -0.0937,0.4055 0.0146,0.0306 0.0475,0.0549 0.0922,0.0736 10e-4,0.14777 0.0916,0.50059 0.26949,0.75583 -0.0944,-0.4412 -0.0792,-0.55736 -0.0636,-0.68696 0.0304,0.22166 0.11372,0.46163 0.38619,0.75901 -0.17364,-0.37752 -0.14501,-0.5971 -0.12753,-0.79157 0.002,-3.2e-4 0.005,-5.5e-4 0.007,-8.7e-4 0.0244,0.17561 0.095,0.35615 0.32181,0.64256 -0.15047,-0.28401 -0.13743,-0.51419 -0.11192,-0.69133 0.002,-6.7e-4 0.004,-0.001 0.005,-0.002 0.0311,0.0201 0.0609,0.0465 0.0893,0.0844 0.0857,0.11424 0.12586,0.2324 0.14164,0.31319 -0.0176,0.0945 -8.9e-4,0.18694 0.0445,0.25607 -0.44377,0.32462 -0.8674,0.59051 -1.26072,0.8006 -0.69527,-0.40262 -1.19411,-0.67078 -1.77249,-0.7749 -0.62044,-0.11169 -1.19119,0.18816 -1.32202,0.72108 -0.10336,0.42105 0.10315,1.10452 1.20218,1.15713 0.64987,0.0311 1.43746,-0.27184 2.2153,-0.6549 0.0672,0.0359 0.135,0.0725 0.20425,0.11065 1.69785,0.93561 2.73153,1.05708 4.10215,0.48521 -0.65274,0.19738 -1.82245,0.52851 -3.39522,-0.33799 -0.24347,-0.13414 -0.46541,-0.26059 -0.67045,-0.37895 0.45184,-0.23163 0.89511,-0.48151 1.30061,-0.69941 0.002,-2.5e-4 0.004,-5.8e-4 0.005,-0.001 0,0 0.0554,-0.0119 0.10679,-0.0277 0.11392,-0.0351 0.27344,-0.099 0.46333,-0.18869 0.0187,0.078 0.0632,0.14309 0.12995,0.16891 0.16347,0.0633 0.28119,0.014 0.35794,-0.0797 0.0511,-0.0277 0.12574,-0.0818 0.17205,-0.0943 0.0355,-0.01 0.0691,-0.0213 0.10153,-0.0341 -0.0987,0.1989 -0.062,0.39008 -0.062,0.39008 0.0285,-0.24763 0.14639,-0.40536 0.26122,-0.47693 0.0431,-0.0179 0.087,-0.0337 0.13368,-0.0447 0.0423,-4.7e-4 0.0768,0.0152 0.0955,0.047 0.0471,0.0801 0.14515,0.12909 0.24316,0.15066 0.0156,0.10003 -0.0301,0.26888 -0.26689,0.57709 0.28935,-0.1929 0.41673,-0.36105 0.46006,-0.49453 0.0102,0.13293 -0.0239,0.33842 -0.20693,0.7002 0.15792,-0.15085 0.26938,-0.2929 0.34255,-0.42074 0.004,0.12727 -0.006,0.29589 -0.042,0.52357 0.23825,-0.46488 0.21574,-0.74322 0.15277,-0.90114 -10e-4,-0.0174 -0.004,-0.0339 -0.007,-0.0495 0.009,-0.0116 0.0184,-0.0242 0.0283,-0.0381 0.0791,-0.11075 -0.0316,-0.2294 -0.10283,-0.27686 -0.0396,-0.0264 -0.13353,-0.10242 -0.30227,-0.10477 -0.15004,-0.17934 -0.33958,-0.10017 -0.63906,0.0969 -0.0385,0.0253 -0.0753,0.0456 -0.11011,0.0619 -0.009,-0.024 -0.0207,-0.0501 -0.0369,-0.0781 0.10722,-0.064 0.21728,-0.13242 0.32894,-0.2053 0.21207,-0.13844 0.3698,-0.27804 0.48707,-0.41141 0.33868,-0.34365 0.45914,-0.6789 0.80495,-0.96235 -0.003,1.6e-4 -0.006,5.6e-4 -0.008,8e-4 0.0134,-0.007 0.0267,-0.0148 0.04,-0.0219 0.55228,-0.2958601 0.85551,-0.3611801 0.89258,-0.3684201 -5.4e-4,0.028 -10e-4,0.0563 -0.002,0.0853 0.004,-0.0242 0.008,-0.0522 0.0121,-0.0832 0.0312,0.0146 0.18019,0.0885 0.32091,0.22926 0.14698,0.1469801 0.23018,0.3029801 0.24126,0.3243901 0.0189,0.1248 0.0291,0.20123 0.0291,0.20123 0,0 9.5e-4,-0.0755 -0.006,-0.21978 0.11674,-0.11672 0.68765,-0.7127201 1.14924,-1.6453201 0.46199,-0.93337 0.62903,-1.67997 0.67837,-1.94887 0.30302,0.86808 0.44279,1.64379 0.44279,1.64379 0,0 -9.7e-4,-0.0872 -0.0204,-0.25005 0.0665,-0.23063 0.34391,-1.25315 0.41798,-2.50354 0.0662,-1.11747 -0.0429,-1.85155 -0.093,-2.11578 0.43186,0.35823 0.66256,0.87124 0.66256,0.87124 z M 4.254705,13.204748 c -0.76053,-0.21653 -0.4232,-1.40408 0.8554,-0.90896 0.31286,0.12115 0.67676,0.27504 1.09012,0.4749 -0.85595,0.41519 -1.54396,0.54839 -1.94552,0.43406 z m 3.70659,-3.8048401 c -0.008,-0.004 -0.0155,-0.008 -0.0232,-0.0124 0.006,0.003 0.0138,0.007 0.0232,0.0124 z m 0.012,1.8582301 c -0.0369,0.008 -0.0731,0.0244 -0.10676,0.0469 -0.026,-0.0332 -0.0554,-0.0809 -0.0838,-0.14904 -0.004,-0.008 -0.007,-0.0172 -0.011,-0.0262 0.0582,0.029 0.12627,0.07 0.20159,0.1284 z" />
</svg>
