<svg fill-rule="evenodd" viewBox="0 0 16 16" xmlns="http://www.w3.org/2000/svg">
    <path d="m5.4257 6.0169 1.5949 2.5826c-0.87108 1.6335-1.6468 2.4927-2.3271 2.5775-0.46442 0.057924-1.3347 0.26112-2.6107 0.6096-0.44865 0.12252-0.9183-0.11912-1.049-0.53974-0.064636-0.20802-0.035694-0.43178 0.080102-0.61929l2.8473-4.6107c0.23413-0.37914 0.75178-0.50855 1.1562-0.28905 0.12794 0.069443 0.23425 0.1691 0.30832 0.28905z" fill="#f3a261"/>
    <path d="m9.0137 3.9718 3.5462 5.5027c0.24165 0.37497 0.1133 0.8626-0.28667 1.0891-0.27497 0.15574-0.6203 0.15207-0.89142-0.0095l-0.81385-0.48496-6.3303 1.7289c-0.44865 0.12253-0.91831-0.11911-1.049-0.53972-0.06618-0.21297-0.034213-0.4422 0.088144-0.63206l4.2885-6.6545c0.24165-0.37497 0.76178-0.49529 1.1618-0.26875 0.11737 0.066481 0.21575 0.15871 0.28667 0.26875z" fill="#e5c66b"/>
    <path d="m11.084 4.7431 3.7913 5.7923c0.24441 0.3734 0.11966 0.86184-0.27863 1.091-0.21088 0.12132-0.46783 0.15002-0.70321 0.07856l-3.3464-1.016-3.7629 1.071c-0.44715 0.12727-0.91968-0.10939-1.0554-0.52859-0.070295-0.21707-0.038092-0.45196 0.088463-0.64532l3.8245-5.8429c0.24441-0.3734 0.76541-0.49035 1.1637-0.26122 0.11351 0.065302 0.20898 0.1548 0.27863 0.26122z" fill="#2b9e8e"/>
</svg>
