<svg xmlns="http://www.w3.org/2000/svg" fill-rule="evenodd" fill="#000" viewBox="0 0 16 16">
  <path d="M 15.030568,13.045773 C 15.024904,8.031366 12.34861,3.3817316 8.0079711,0.87711009 l -6.89e-4,-4.72e-5 C 3.6198994,3.3544143 0.89659782,7.9960914 0.87163089,13.03757 5.462081,15.540341 10.853332,15.436821 15.030568,13.046065 Z M 10.37021,6.2447914 C 11.020738,6.6868523 10.924211,7.751038 10.819435,8.4797985 10.686162,9.2825536 9.9168318,10.602525 8.9169088,11.463766 9.0462932,11.64922 9.1210052,11.877594 9.1199574,12.12126 8.5003246,12.434465 7.8859022,12.081237 7.1422937,11.444425 6.3987041,10.807641 5.5966475,9.5315621 5.3304878,8.2202274 5.0944206,8.2452415 4.8528219,8.1925703 4.6454879,8.0617983 4.699575,7.326487 5.4800439,6.8893723 6.1716891,6.6315475 6.8633438,6.3737321 8.6453404,6.286834 9.9016629,6.7334446 9.9996805,6.5277719 10.161753,6.3550989 10.370238,6.2455371 Z" />
</svg>
