<svg xmlns="http://www.w3.org/2000/svg" fill-rule="evenodd" fill="#000" viewBox="0 0 16 16">
  <path d="M 6.4452094,14.598084 6.1610803,2.5459503 q -1.2407496,0.4650615 -1.9381852,1.455585 -0.6896805,0.990876 -0.6896805,2.4639728 0,0.3358572 0.035061,0.551507 0.042944,0.2066527 0.085889,0.3358571 0.042945,0.1206711 0.078005,0.1895863 0.042944,0.069565 0.042944,0.1206711 -0.4564912,0 -0.8095261,-0.08626 Q 2.6121999,7.4818911 2.3709318,7.2837715 2.1381692,7.0861157 2.0089463,6.7584208 1.8883123,6.4314679 1.8883123,5.9488761 q 0,-0.5857326 0.2495044,-1.1543524 Q 2.3962626,4.2263213 2.8356595,3.7176289 3.2836452,3.2098084 3.8783063,2.7788984 4.4815506,2.3480626 5.161864,2.0378052 5.8507654,1.7190145 6.5917585,1.5470511 7.34132,1.3656271 8.0823632,1.3656271 q 0.1981288,0 0.3619856,0.00856 0.1720004,0.00856 0.3440101,0.025043 L 8.9436175,12.253818 12.656514,1.450607 h 1.231799 L 8.9868206,14.597537 H 6.4447679 Z" />
</svg>
