<svg xmlns="http://www.w3.org/2000/svg" fill-rule="evenodd" fill="#000" viewBox="0 0 16 16">
  <path d="m10.142 8.6029 1.4898 2.7755-1.5918 2.9183h1.1224l1.102-1.9592 1.102 1.9592h1.1224l-1.5918-2.9184 1.4694-2.7755h-1.1224l-0.97956 1.8163-0.97957-1.8163h-1.1428l-7e-5 3e-5zm-3.102 0.12247c1.2083-0.44344 2.136 0.12244 2.4081 0.7755l-0.87757 0.57144c-0.12975-0.23416-0.40625-0.47356-0.72547-0.49069-0.2895-0.0155-0.55862 0.13581-0.56722 0.52731 0.0172 0.57048 0.76732 0.57041 1.6668 1.1402 0.65897 0.41743 0.78238 0.7365 0.84331 1.3132 0.0452 0.42743-0.0352 1.166-0.87625 1.5392-0.91503 0.40603-2.5388 0.25803-3.0963-0.96804l0.91835-0.53059c0.45919 0.87244 1.6501 0.87034 1.8839 0.29575 0.22834-0.56107-0.46044-0.78044-1.3152-1.1595-0.37178-0.19172-0.94707-0.49369-1.1197-1.2315-0.13029-0.55678-0.014-1.3981 0.85712-1.7823l1e-4 6e-5zm9.0409 5.4694v-12.408c-0.0213-0.85147-0.56859-1.7784-1.796-1.7959h-12.408c-0.94897-7e-3 -1.7833 0.73537-1.7959 1.7959v12.408c0.0126 1.0605 0.84694 1.8031 1.7959 1.7959h12.408c1.2274-0.0175 1.7747-0.94444 1.796-1.7959zm-0.93888 0c-8e-3 0.34282-0.17784 0.78719-0.85712 0.83675h-12.408c-0.44647-4e-3 -0.82666-0.3059-0.83675-0.83675v-12.408c0.0101-0.53082 0.39025-0.83322 0.83675-0.83676h12.408c0.67931 0.0496 0.84909 0.49391 0.85712 0.83676v12.408zm-9.5554-4.4445-1.4242-1e-5v4.5466h-1.1428v-4.5466h-1.4242v-1.1429l3.9912 1e-5v1.1429z"/>
</svg>
