<?xml version="1.0" encoding="UTF-8" standalone="no"?>
<svg xmlns="http://www.w3.org/2000/svg" fill-rule="evenodd" fill="#000" viewBox="0 0 16 16">
  <path d="m 13.192712,8.0549021 c 0,-0.1591056 -0.11755,-0.250853 -0.261802,-0.2052694 L 3.007152,10.997487 c -0.1445417,0.04588 -0.2618007,0.212239 -0.2618007,0.371053 v 3.217247 c 0,0.159106 0.117259,0.251143 0.2618007,0.205269 l 9.923758,-3.147564 c 0.144252,-0.04588 0.261802,-0.212238 0.261802,-0.371343 z" fill="#de7e00" />
  <path d="m 2.7453513,7.9702315 c 0,0.1590962 0.1172427,0.3254505 0.2617644,0.3713212 l 9.9238323,3.1479563 c 0.144521,0.04587 0.261764,-0.04616 0.261764,-0.204966 V 8.067199 c 0,-0.158806 -0.117243,-0.3251602 -0.261764,-0.3710311 L 3.0071157,4.5482118 C 2.862594,4.502341 2.7453513,4.5940826 2.7453513,4.7531788 Z" fill="#ff9800" />
  <path d="m 13.192712,1.4519122 c 0,-0.1591058 -0.11755,-0.2511433 -0.261802,-0.2052697 L 3.007152,4.3942071 C 2.8626103,4.4400809 2.7453513,4.6064452 2.7453513,4.7655508 V 7.982797 c 0,0.1591055 0.117259,0.2508529 0.2618007,0.2052697 L 12.93091,5.0402115 c 0.144252,-0.045874 0.261802,-0.2122378 0.261802,-0.3710532 z" fill="#f58e00" />
</svg>
