<svg xmlns="http://www.w3.org/2000/svg" fill-rule="evenodd" fill="#000" viewBox="0 0 16 16">
	<circle cx="1.4495323" cy="10.147148" r="0.69724679" id="circle1" />
	<path d="m 5.5229214,5.53064 c -0.1100916,0.1504586 -2.5614645,5.475222 -2.6055012,5.607332 -0.044037,0.13211 0.091743,0.242202 0.366972,0.370642 0.2825685,0.13211 0.3743115,0.12477 0.4550453,0.01101 C 3.8201714,11.405862 6.3119112,6.0994466 6.366957,5.9233001 6.4220028,5.7508232 6.2935626,5.6554105 6.0587005,5.5416492 5.8238385,5.4278879 5.633013,5.3801815 5.5229214,5.53064 Z" />
	<circle cx="9.4862194" cy="5.1196313" r="0.69724679" />
	<path d="m 7.3577814,6.789354 c 0,0.4733939 0,0.4770636 0.2568804,0.4770636 H 8.935761 v 1.5522916 c 0,0.9027511 -0.018349,1.7394468 -0.036697,1.8568778 -0.069725,0.411009 -0.3229353,0.645871 -0.6972468,0.645871 -0.2165135,0 -0.4403664,-0.09908 -0.5394488,-0.242201 C 7.4752125,10.811367 7.4238364,10.771 7.2990659,10.771 c -0.1137613,0 -0.1467888,0.02936 -0.3816509,0.341284 -0.3082565,0.407339 -0.3155959,0.473394 -0.117431,0.693577 0.8330264,0.92477 2.5394462,0.686238 3.0678859,-0.433027 0.1944951,-0.411008 0.2055041,-0.561467 0.2055041,-2.9174271 V 6.5691708 c 0,-0.2348621 -0.1100914,-0.366972 -0.3669718,-0.366972 H 7.9082394 c -0.5467883,0 -0.550458,0 -0.550458,0.5871552 z m 3.8054996,2.1210982 c 0.110092,1.1082558 0.91743,1.8311898 1.607337,1.9339428 0.52844,0.06972 0.895412,0 1.376145,-0.330275 v 1.504585 c 0,0.297247 0,0.366972 0.550458,0.366972 0.499082,0 0.550458,-0.07339 0.550458,-0.550458 V 6.6242166 c 0,-0.3633023 -0.06972,-0.366972 -0.550458,-0.366972 -0.480733,0 -0.510091,0.055046 -0.510091,0.300917 -0.377981,-0.326605 -1.288071,-0.5467882 -1.919263,-0.1798162 -0.631192,0.366972 -1.255044,1.0201821 -1.104586,2.5321068 z m 2.946785,-0.3926601 c 0,1.0715583 -0.38532,1.3064203 -0.869723,1.3064203 -0.653211,0 -0.913761,-0.5394488 -1.001834,-1.0862371 -0.09908,-0.6165129 0.09174,-1.5412824 0.961467,-1.5412824 0.627522,0 0.91009,0.3266051 0.91009,1.3210992 z" />
</svg>
