<svg xmlns="http://www.w3.org/2000/svg" fill-rule="evenodd" fill="#000" viewBox="0 0 16 16">
  <path d="m 7.9731655,3.0533665 c -1.44954,-0.06506 -2.97926,0.673351 -3.59142,2.035622 -0.11792,0.249185 -0.47994,1.001475 -0.29517,1.003819 0.70051,-0.966261 2.12954,-1.481684 3.1981,-0.804153 1.02163,0.625049 1.63183,1.78983 2.7943305,2.213866 1.39022,0.581911 3.10549,0.526633 4.37972,-0.313286 0.8246,-0.59847 1.3291,-1.550342 1.55566,-2.527623 -0.64942,0.996415 -2.00685,1.649011 -3.14258,1.081608 -1.09512,-0.545229 -1.68355,-1.753964 -2.82019,-2.245909 C 9.4086955,3.1812495 8.6863455,3.0488295 7.9731655,3.0533665 Z m -4.02061,4.824734 c -1.44954,-0.06506 -2.97926003,0.67335 -3.59141999,2.0356228 -0.11792,0.2491837 -0.47994,1.0014737 -0.29517,1.0038177 0.70050996,-0.9662607 2.12952999,-1.4816847 3.19809999,-0.804153 1.02163,0.625049 1.63183,1.78983 2.79433,2.213866 1.39022,0.58191 3.10549,0.526633 4.3797205,-0.313285 0.8246,-0.59847 1.3291,-1.550342 1.55566,-2.5276247 -0.64942,0.9964157 -2.0068503,1.6490117 -3.1425805,1.0816087 -1.09513,-0.545229 -1.68356,-1.7539645 -2.8202,-2.2459095 -0.64291,-0.31606 -1.36526,-0.44848 -2.07844,-0.443943 z" />
</svg>
