<svg xmlns="http://www.w3.org/2000/svg" fill-rule="evenodd" fill="#000" viewBox="0 0 16 16">
  <path d="m 0.18,2.68 c 0.06,-0.27 0.3,-0.44 0.57,-0.44 0.05,0 0.09,0 0.14,0.02 l 6,1.44 v 0 0 C 6.93,3.7 6.96,3.71 7,3.72 7.65,3.89 8.36,3.89 9.01,3.72 9.04,3.71 9.07,3.7 9.11,3.7 v 0 0 l 6,-1.44 c 0.05,-0.01 0.1,-0.02 0.14,-0.02 0.26,0 0.5,0.17 0.57,0.44 C 15.89,2.99 15.7,3.3 15.4,3.37 L 9.39,4.81 c -0.03,0 -0.05,0.01 -0.08,0.02 -0.44,0.13 -0.74,0.54 -0.74,1 v 0.73 c 0,0.35 0.1,0.69 0.29,0.98 l 2.29,3.53 c 0.27,0.42 0.86,0.47 1.2,0.1 l 2.5,-2.69 c 0.22,-0.23 0.58,-0.25 0.81,-0.03 0.23,0.22 0.25,0.58 0.03,0.81 l -2.5,2.69 c -0.85,0.91 -2.33,0.78 -3,-0.26 L 8.11,8.48 C 8.06,8.4 7.94,8.4 7.89,8.48 l -2.08,3.21 c -0.68,1.04 -2.15,1.17 -3,0.26 L 0.31,9.26 C 0.1,9.03 0.11,8.67 0.34,8.45 0.57,8.23 0.93,8.25 1.15,8.48 l 2.5,2.69 c 0.34,0.36 0.93,0.31 1.2,-0.1 L 7.14,7.54 C 7.33,7.24 7.43,6.9 7.43,6.56 V 5.82 C 7.43,5.36 7.13,4.96 6.69,4.82 6.66,4.82 6.64,4.81 6.61,4.81 L 0.6,3.37 C 0.29,3.3 0.1,2.99 0.18,2.68 Z" />
</svg>
