<svg fill-rule="evenodd" viewBox="0 0 16 16" xmlns="http://www.w3.org/2000/svg">
<path d="m6.503 0v2.259c0.143 0.116 0.29 0.216 0.414 0.34 0.12 0.12 0.217 0.263 0.332 0.406h2.528c0.399-0.628 0.97-0.981 1.725-0.991 0.555-7e-3 1.041 0.195 1.426 0.595 0.834 0.865 0.74 2.167-0.126 2.913-0.901 0.776-2.329 0.616-3.027-0.512h-2.536c-0.513 0.758-1.216 1.123-2.123 0.946-0.816-0.16-1.341-0.681-1.548-1.49-0.19-0.738 0.067-1.643 0.934-2.195v-2.271h2.001zm-1.006 5.002c0.53 0.032 1.006-0.453 1.011-0.985 5e-3 -0.559-0.471-1.018-1.003-1.016-0.565 3e-3 -1.001 0.479-1.005 1.001-4e-3 0.527 0.456 1.022 0.997 1zm5.998 0c0.536 0.034 1.009-0.454 1.015-0.981 7e-3 -0.562-0.469-1.02-0.999-1.02-0.566 1e-3 -1.003 0.476-1.009 0.996-5e-3 0.531 0.455 1.025 0.993 1.005zm-5.985 8.998h-3.016c0.431-0.422 0.852-0.829 1.268-1.241 0.422-0.417 0.84-0.839 1.26-1.259l1.248-1.248c0.417-0.416 0.832-0.832 1.249-1.249h2.261c0.396-0.62 0.959-0.969 1.7-0.987 0.555-0.014 1.043 0.184 1.433 0.579 0.826 0.836 0.778 2.13-0.081 2.905-0.863 0.779-2.336 0.684-3.062-0.49h-1.268c-0.998 0.996-1.999 1.997-2.992 2.99zm5.99-2.996c0.53 0.032 1.006-0.453 1.011-0.985 5e-3 -0.559-0.471-1.018-1.003-1.016-0.565 3e-3 -1.001 0.479-1.005 1-4e-3 0.529 0.455 1.024 0.997 1.001z"/>
</svg>
