<svg xmlns="http://www.w3.org/2000/svg" fill-rule="evenodd" fill="#000" viewBox="0 0 16 16">
  <path d="M 7.8164062,1.4453125 C 7.3789631,1.5020059 6.5504938,1.7429721 6.0292784,2.1041919 4.9593584,2.8299445 3.7606652,3.3464173 2.7278828,4.1275775 1.1543276,5.2837587 0.2001306,7.2911653 0.50462033,9.2459756 0.82936384,11.54105 2.762952,13.302934 4.8769331,14.034759 7.8626354,15.106317 11.519611,14.565762 13.812742,12.289529 15.085418,11.065436 15.717027,9.2001867 15.336727,7.4632325 14.980261,5.6747878 13.616908,4.2588413 12.04915,3.4185151 10.877582,2.8595755 9.8902364,1.9418695 8.6415771,1.5469021 8.3729257,1.4712084 8.0950953,1.439415 7.8164062,1.4453125 Z m 0.1386719,1.0429687 c 1.0897142,0.090997 1.8807975,0.941767 2.8215369,1.4019847 1.249106,0.683241 2.569796,1.4554654 3.200503,2.7995243 C 14.754365,8.2069008 14.443474,10.1613 13.2488,11.373269 11.485671,13.305227 8.6180841,13.854719 6.133488,13.322376 4.2034535,12.902263 2.2971279,11.634761 1.6603491,9.6921372 1.1368231,8.0233924 1.8363845,6.1485802 3.1887229,5.0863976 4.2831552,4.2203234 5.5859995,3.6764586 6.7349497,2.8905654 7.1090433,2.6782524 7.5199356,2.5064556 7.9550781,2.4882812 Z M 10.234375,6.7597656 C 9.2635014,6.812812 8.6956792,8.0891599 9.3205669,8.8371659 9.8538679,9.6005588 11.171218,9.4773694 11.524353,8.6075778 11.8771,7.8674929 11.350622,6.7998295 10.496178,6.7871625 10.414662,6.7442869 10.321821,6.757514 10.234375,6.7597656 Z m -4.6679688,0.00391 C 4.5409618,6.7031867 3.8721958,8.0986632 4.5687505,8.8609674 5.1341583,9.6271491 6.5008393,9.4380454 6.7955816,8.5138054 7.1155378,7.7121638 6.4374532,6.7224903 5.5664062,6.7636756 Z m 4.6386718,0.7167969 c 0.669256,-0.1632646 0.822554,1.0732768 0.0086,0.9203417 -0.5298079,-0.094832 -0.4842126,-0.7837069 -0.0086,-0.9203417 z m -4.8222655,0.00586 C 6.2244546,7.476225 5.7891019,8.7755191 5.1087544,8.31858 4.6978818,8.075509 4.928289,7.4650732 5.3828125,7.4863325 Z m 1.21875,1.7714844 C 5.7299302,9.6735413 6.4464939,10.869971 7.0243756,11.262302 7.7744231,11.955375 8.9638729,11.501905 9.4355434,10.70455 9.9448401,10.215731 9.8030165,9.1417452 8.9468018,9.2876928 8.1647746,9.2994202 7.3834396,9.2945228 6.6015625,9.2578169 Z M 8.6914063,10.714848 C 8.2612199,11.184761 7.3444786,11.123393 7.051076,10.522895 6.6575263,10.174237 6.8003066,9.6347396 7.3813341,9.8311024 c 0.5786553,0.04001 1.1980819,-0.06201 1.753263,0.050317 0.042904,0.3195004 -0.2566008,0.6044134 -0.4431908,0.8334284 z" />
  <path d="M 8.3850956,2.3732368 C 8.2053894,2.8185557 7.5761241,2.183482 7.7632489,2.8529469 8.1009248,3.372731 8.2059221,3.9908747 8.1398935,4.6029968 8.0360453,4.902605 7.9171944,5.7233822 8.4323535,5.3172628 8.9045825,4.6631342 8.9242422,3.7367302 8.435163,3.0840816 7.9160433,2.3133745 8.9635396,3.3001547 9.0868202,3.618286 9.4753961,4.0256318 9.3363975,4.7855012 9.7637482,5.0651138 10.242283,4.5367872 9.927002,3.6050455 9.505117,3.1060162 9.2117022,2.7620546 8.8175216,2.5048105 8.3850956,2.3732368 Z M 7.4618037,2.4806671 C 7.0344219,2.9293371 7.3239903,3.6903084 6.8750447,4.1792683 6.7355721,4.5303686 5.7194864,5.2977294 6.5718362,5.2579114 7.4854869,4.8235477 8.020244,3.6163796 7.6138981,2.6721214 L 7.5454817,2.5708368 7.4617559,2.480687 Z m -0.5878256,0.27567 C 6.4363665,3.1214867 6.2861191,3.7420053 5.7621038,4.0282413 5.4985076,4.3294525 4.1341125,4.5899395 4.9630873,4.9285719 6.0592387,4.9243094 6.9774445,3.9795398 7.0774198,2.9093013 7.0630246,2.8150656 6.9665646,2.7483647 6.8739781,2.7563371 Z" />
</svg>
