<svg xmlns="http://www.w3.org/2000/svg" fill-rule="evenodd" fill="#000" viewBox="0 0 16 16">
	<path d="M 3,12.600254 V 1.0000044 c 0,-9.96e-6 5.86323,0 5.86323,0 1.64022,0.0247 3.07262,0.89801 3.8816,2.20177 -0.59374,-0.72981 -1.51157,-1.14048 -2.42198,-1.14048 -1.73176,0 -2.16717,0.61601 -5.49214,6.7291 C 4.07103,10.176294 3.43309,11.467744 3,12.600254 Z m 10.56212,2.39975 -2.63583,-5.21917 c 2.26246,-1.1698196 3.24716,-4.0262396 1.91255,-6.4182496 -1.04169,-1.05788 -3.20783,-1.28919 -3.77522,-0.005 -0.54585,1.27364 0.8520398,2.68622 1.54148,2.67073 0.6436,-0.029 0.43983,-0.95741 -0.0831,-2.08441 0.56217,1.06044 0.82251,1.5143 0.74099,1.87634 -0.10275,0.4664 -0.76895,0.77899 -2.07815,2.03248 -2.3255,2.2265396 -4.65847,6.9049096 -5.09355,7.1472296 z" />
</svg>
