<svg xmlns="http://www.w3.org/2000/svg" fill-rule="evenodd" fill="#000" viewBox="0 0 16 16">
  <path d="m 2,10.992593 c 1.0024691,0 2.0049382,0 3.0074073,0 0,1.002468 0,2.004938 0,3.007407 C 4.0049382,14 3.0024691,14 2,14 2,12.997531 2,11.995061 2,10.992593 Z" />
  <path d="M 8,4.9925929 C 8,3.9950619 8,2.9975309 8,2 7.0024691,2 6.0049382,2 5.0074073,2 c 0,0.9975309 0,1.9950619 0,2.9925929 -1.0024691,0 -2.0049382,0 -3.0074073,0 0,0.9975309 0,1.9950618 0,2.9925927 1.0024691,0 2.0049382,0 3.0074073,0 0,1.0024693 0,2.0049396 0,3.0074074 0.9975309,0 1.9950618,0 2.9925927,0 0,0.997531 0,1.995062 0,2.992593 0.9975308,0 1.9950618,0 2.992593,0 0,-0.997531 0,-1.995062 0,-2.992593 1.002468,0 2.004938,0 3.007407,0 0,-1.0024678 0,-2.0049381 0,-3.0074074 -1.002469,0 -2.004939,0 -3.007407,0 0,-0.9975309 0,-1.9950618 0,-2.9925927 -0.9975312,0 -1.9950622,0 -2.992593,0 z" />
</svg>
