<svg xmlns="http://www.w3.org/2000/svg" fill-rule="evenodd" fill="#000" viewBox="0 0 16 16">
  <path
     d="m 7.9909886,9.1474317 c 0.231864,-0.1440303 0.386669,-0.4925723 0.69543,-0.4325155 0.160513,-0.033238 0.68234,0.068052 0.606746,-0.053095 C 9.1122656,8.432618 8.7972336,8.4867434 8.5417096,8.4151701 8.3143356,8.0297657 9.0845686,8.3348531 8.8391026,8.1288033 8.6656666,7.9339542 8.3173136,8.0492843 8.3838016,7.686245 8.4011216,7.4681185 8.5279876,7.2748423 8.4399216,7.0045386 L 8.3188476,5.5386185 c -0.120224,0.4969734 -0.09,1.010609 -0.121931,1.5173613 -0.157474,0.2656665 -0.485572,0.061164 -0.418531,-0.2028059 -0.02317,-0.4398244 -0.0067,-0.8840414 -0.1139,-1.3145554 -0.05261,0.6369757 -0.105222,1.2739511 -0.157833,1.9109268 0.181751,0.097441 0.128775,0.5823165 -0.113608,0.5472925 -0.30497,0.063599 -0.429393,0.3038621 -0.01753,0.2100333 0.276611,0.1672294 -0.174801,0.2945486 -0.374202,0.2844825 -0.2585,0.023804 -0.519759,0.3279864 -0.08875,0.2235626 0.26557,0.030162 0.591787,-0.1003014 0.770096,0.160972 0.102777,0.090515 0.205554,0.181029 0.30833,0.2715435 z" />
  <path
     d="M 9.4023386,7.4007729 C 9.2766756,7.8313618 10.16098,8.143845 9.7445876,8.5585944 9.5464586,8.720296 9.4117196,9.0341008 9.1117016,8.9513264 8.8247136,8.8690184 8.6740966,9.1215849 8.4898736,9.2916279 8.4489936,9.5624019 8.1515996,9.4330117 7.9377436,9.4607262 7.6513106,9.5173942 7.5559356,9.4298532 7.4197886,9.2163731 7.2618416,8.9953763 7.0534496,8.8984884 6.7836526,8.9526812 6.5059206,8.9781582 6.3818346,8.6349738 6.1745456,8.4914298 5.9051896,8.0527556 6.8478796,7.7390273 6.5248296,7.3449791 4.5167906,5.5299862 2.5087516,3.7149931 0.5007116,1.9 c 0.0096,0.7143482 -0.09282,1.5821428 0.564269,2.0630016 0.79505,0.3503981 0.463557,1.1387461 0.686808,1.7889535 0.532088,0.5287479 1.137879,0.9578075 0.931882,1.8036245 0.273188,0.7896179 1.102915,1.2264537 1.642282,1.8312999 0.235458,0.2080288 -0.431647,0.062374 -0.616533,0.1056842 -0.399853,0 -0.799706,0 -1.199559,0 0.720521,0.6435243 1.441042,1.2870483 2.161562,1.9305713 0.788712,0 1.577423,0 2.366135,0 -0.107398,0.246606 -0.232118,0.463471 -0.53609,0.372567 -0.47973,0 -0.959459,0 -1.439189,0 0.214587,0.159032 0.401168,0.393673 0.632296,0.508044 0.499143,0 0.998286,0 1.497429,0 0.267119,-0.525093 0.534237,-1.050186 0.801356,-1.575277 0.272764,0.525092 0.545528,1.050184 0.818292,1.575278 0.505109,0 1.010219,0 1.5153284,0 0.197234,-0.169348 0.394469,-0.338696 0.591703,-0.508044 -0.580639,0 -1.1612774,0 -1.7419164,0 -0.172387,-0.246607 -0.293712,-0.463473 0.113397,-0.372567 0.6829474,0 1.3658934,0 2.0488414,0 0.712957,-0.643524 1.425913,-1.287048 2.13887,-1.9305723 -0.643524,0 -1.287048,0 -1.930571,0 0.571261,-0.5978633 1.314024,-1.0733312 1.727311,-1.7989874 0.06068,-0.6119623 -0.08793,-1.2534702 0.601906,-1.5656256 0.706001,-0.348929 0.287048,-1.2465955 0.591148,-1.7384136 0.575567,-0.4569155 1.125554,-1.0583525 1.011717,-1.8563454 0.04913,-0.4545964 0.03553,-0.7889232 -0.325907,-0.3336819 -1.917047,1.7337544 -3.834095,3.4675087 -5.7511404,5.2012631 z" />
  <path
     d="m 8.0072466,11.76251 c -0.254813,0.607509 -0.509626,1.215018 -0.764438,1.822526 0.175218,0.170138 0.350438,0.340278 0.525657,0.510416 -0.148393,0.416521 -0.25826,1.586619 0.360811,1.372421 0.602801,-0.383338 -0.199455,-1.169892 0.3093,-1.541001 0.173848,-0.182476 0.442781,-0.347122 0.219337,-0.604096 -0.216889,-0.520089 -0.433778,-1.040178 -0.650667,-1.560266 z" />
</svg>
