<svg xmlns="http://www.w3.org/2000/svg" fill-rule="evenodd" fill="#000" viewBox="0 0 16 16">
  <path d="M 9.0760801,2.5 C 9.460831,2.6047517 9.670341,2.6920184 9.8973359,2.8672601 L 5.2661022,8.2673728 C 6.5243945,9.0886044 7.85294,11.151343 7.1364967,12.828744 7.4853828,10.556466 5.1438598,8.860956 3.7578861,8.6346637 Z M 5.3708538,14.99562 c 0.8742002,0.03557 1.730431,0.05242 2.6214623,0.05242 1.9405873,0 3.8100449,-0.08732 5.5578999,-0.261922 0.628528,-0.05241 1.153539,-0.55934 1.240275,-1.206001 C 14.930756,12.4097 15,11.186239 15,9.92788 15,8.6695277 14.93076,7.4454741 14.790491,6.2750358 14.703751,5.6109652 14.178744,5.1214319 13.550216,5.0515653 12.780719,4.9817893 11.994379,4.9287891 11.191202,4.876444 c 0,0 -3.3210678,7.218373 -3.6706014,7.952301 -0.4895089,1.101195 -1.1707949,1.904959 -2.1497468,2.166875 z m 1.4333039,-2.56911 c 0,-2.219287 -3.7558053,-3.1807482 -5.0370813,-2.569027 L 7.6957819,2.9720119 C 7.3282856,2.8846892 6.9089093,2.9545585 6.9263396,2.9545585 L 5.2314773,4.8595479 C 4.2750384,4.8944919 3.3472586,4.9642996 2.4489549,5.0515663 1.8095602,5.1214356 1.288742,5.6109661 1.2080334,6.2750328 1.0668843,7.445471 1,8.6695246 1,9.927877 c 0,1.258358 0.066884,2.481819 0.2080336,3.652233 0.091223,0.734581 0.5960876,1.101249 1.2409215,1.206002 1.7701317,0.297429 4.3552026,0.03492 4.3552026,-2.359602 z" />
</svg>