<svg xmlns="http://www.w3.org/2000/svg" viewBox="0 0 16 16">
  <path d="m3.9126 11.866-2.224-2.224c-0.26378-0.27047-0.42722-0.65277-0.42722-1.0265 0-0.17299 0.097486-0.44346 0.17108-0.59829l2.0529-4.276z" fill="#01579b"/>
  <path d="m11.525 4.1687-2.224-2.224c-0.19402-0.19497-0.59829-0.42722-0.94045-0.42722-0.29437 0-0.583 0.059256-0.76937 0.17108l-4.1049 2.0529z" fill="#40c4ff"/>
  <path d="m11.952 14.517v-2.3091c-1.3399-0.42785-2.6799-0.85571-4.0198-1.2836-1.2259 0.42785-2.4518 0.85571-3.6777 1.2836 0.76969 0.76969 1.5394 1.5394 2.3091 2.3091h5.3885z" fill="#40c4ff"/>
  <path d="m3.4854 10.669c0 0.68622 0.086017 0.85443 0.42722 1.1975l0.34216 0.34216h7.6975l-3.7628-4.276-4.7042-4.1909z" fill="#29b6f6"/>
  <path d="m3.4863 3.7402 8.3809 8.3828h0.001953l0.083984 0.083984v0.001953h2.3086v-0.001953-5.3027l-0.085938-0.083984-2.6504-2.6523c-0.38421-0.38516-0.72608-0.42773-1.1973-0.42773h-6.8418z" fill="#01579b"/>
  <path d="m3.9986 11.951c-0.34216-0.34311-0.42722-0.68144-0.42722-1.2826v-6.8422l-0.085061-0.085061v6.9272c-9.557e-4 0.60116-9.557e-4 0.76746 0.51228 1.2826l0.25614 0.25614z" fill="#54c5f8"/>
  <path d="m11.525 4.1687c-0.42435-0.42435-0.77128-0.42722-1.2826-0.42722h-6.7561l0.085061 0.085061h6.6711c0.25518 0 0.89935-0.043008 1.2826 0.34216z" fill="#3479af"/>
</svg>
