<svg xmlns="http://www.w3.org/2000/svg" fill-rule="evenodd" fill="#000" viewBox="0 0 16 16">
  <path d="M 7.97735,1 C 11.87378,1 15,4.12622 15,7.97735 15,11.87378 11.87378,15 7.97735,15 4.12622,15 1,11.87378 1,7.97735 1,4.12622 4.12622,1 7.97735,1 Z M 9.69903,9.33657 C 8.9288,10.33334 7.52427,10.51457 6.57281,9.74434 5.62136,9.01942 5.48543,7.61489 6.25566,6.61812 7.0712,5.66666 8.47573,5.48543 9.42719,6.21035 10.37864,6.98058 10.51457,8.38511 9.69903,9.33657 Z M 5.98382,13.91262 8.65696,11.3301 C 7.66019,11.55663 6.61812,11.3754 5.80259,10.6958 4.85113,9.97088 4.44337,8.74757 4.57928,7.61489 L 2.178,10.24272 c 0,0 -0.31716,-0.589 -0.40777,-1.67638 L 5.98382,5.2589 c 1.26861,-0.90615 2.99029,-0.95145 4.21359,0 1.35922,1.08738 1.63107,3.08091 0.63431,4.57605 l -3.08091,4.39482 c -0.45308,0 -1.35923,-0.13592 -1.76699,-0.31715 z" />
</svg>
