<svg xmlns="http://www.w3.org/2000/svg" fill-rule="evenodd" fill="#000" viewBox="0 0 16 16">
<g transform="matrix(.53572 0 0 .53572 -.5717 -.5721)">
<path d="m2 17.672v-3.344l11.86-6.2v3.072l-8.76 4.739 8.762 4.835v3.1l-11.862-6.202zm27.814-8.88-10.349 14.437h-3.553l10.369-14.438 3.533 1e-3zm-2.867 12.708c0.237 5e-3 0.465-0.098 0.619-0.278 0.172-0.204 0.26-0.466 0.248-0.732 0.01-0.273-0.078-0.54-0.248-0.753-0.145-0.189-0.37-0.299-0.609-0.299-0.238 0-0.463 0.11-0.608 0.299-0.17 0.213-0.258 0.48-0.248 0.753-0.013 0.265 0.072 0.525 0.237 0.732 0.149 0.181 0.374 0.284 0.609 0.278zm2.186 1.042c-1.23 1.112-3.127 1.108-4.352-0.01-0.552-0.539-0.864-1.278-0.864-2.05s0.312-1.511 0.864-2.05c1.225-1.121 3.127-1.121 4.352 0 0.563 0.533 0.878 1.279 0.867 2.054 0.015 0.775-0.3 1.522-0.866 2.052l-1e-3 4e-3zm-10.312-9.481c0.237 5e-3 0.465-0.098 0.619-0.278 0.172-0.204 0.26-0.466 0.248-0.732 0.01-0.273-0.078-0.54-0.248-0.753-0.146-0.188-0.371-0.299-0.609-0.299-0.237 0-0.462 0.111-0.608 0.299-0.17 0.213-0.258 0.48-0.248 0.753-0.013 0.265 0.072 0.525 0.237 0.732 0.149 0.181 0.374 0.284 0.609 0.278zm2.186 1.039c-1.23 1.112-3.127 1.108-4.352-0.01-0.552-0.539-0.864-1.278-0.864-2.05s0.312-1.511 0.864-2.05c1.225-1.121 3.127-1.121 4.352 0 0.565 0.535 0.88 1.285 0.866 2.063 0.013 0.774-0.301 1.518-0.866 2.047z"/>
</g>
</svg>
