<svg xmlns="http://www.w3.org/2000/svg" fill-rule="evenodd" fill="#000" viewBox="0 0 16 16">
	<path d="m 7.1894531,1.0019531 c -0.044961,0.00236 -0.090445,0.00781 -0.1347656,0.015625 -0.3545349,0.062524 -0.6783274,0.297569 -0.8125,0.6777344 L 5.1972656,4.65625 C 5.0953583,4.9449765 4.8732237,5.1753131 4.5878906,5.2871094 L 1.6601562,6.4335938 C 0.90911521,6.7278363 0.76403687,7.7609872 1.4042969,8.25 l 2.4960937,1.90625 c 0.1202016,0.09172 0.2199823,0.208263 0.2910156,0.341797 0.071034,0.133463 0.112156,0.280715 0.1210938,0.431641 l 0.1855469,3.134765 c 0.047734,0.804041 0.9857823,1.260482 1.6503906,0.802735 l 2.5878906,-1.783204 c 0.1245889,-0.0859 0.267006,-0.143655 0.4160157,-0.169922 0.1490805,-0.02627 0.3027647,-0.02054 0.4492187,0.01758 l 3.0410155,0.791015 c 0.78104,0.202963 1.505543,-0.548359 1.275391,-1.320312 L 13.021484,9.3945312 c -0.04323,-0.144892 -0.05428,-0.297475 -0.0332,-0.4472656 0.02108,-0.1497194 0.07461,-0.2926355 0.15625,-0.4199218 l 1.69336,-2.6464844 C 15.272354,5.2023439 14.782948,4.2813334 13.976562,4.2617188 L 10.833984,4.1855469 C 10.52766,4.178107 10.239366,4.0372231 10.044922,3.8007812 L 8.0507812,1.375 C 7.8267256,1.1025925 7.5041841,0.98543999 7.1894531,1.0019531 Z m 0.2083142,1.7399568 c 0.1757044,0 0.2974409,0.1668507 0.3190296,0.1877776 L 9.2394591,4.8604378 C 9.4854922,5.1575257 9.9663673,5.3812732 10.353516,5.390625 l 2.585937,0.064453 c 0.323628,0.00781 0.499984,0.3379029 0.326172,0.6074219 l -1.392578,2.1601562 c -0.20896,0.3239263 -0.26683,0.7232274 -0.15625,1.0917969 l 0.740234,2.4570309 c 0.09183,0.30601 -0.170966,0.576917 -0.484375,0.496094 L 9.46875,11.623047 C 9.0938618,11.526277 8.6959089,11.59616 8.3769531,11.814453 L 6.2480469,13.269531 C 5.9813514,13.451991 5.6401797,13.287462 5.6210938,12.96875 L 5.46875,10.408203 C 5.4457932,10.024211 5.2570696,9.6690845 4.9492188,9.4355469 L 2.8945312,7.8789062 C 2.6384442,7.684684 2.6907883,7.3126207 2.9921875,7.1953125 l 2.40625,-0.9355469 C 5.7590856,6.119446 6.0907092,5.8461357 6.2196403,5.4833697 L 7.0127241,3.1794575 C 7.1524857,2.7862637 7.2553496,2.7419099 7.3977673,2.7419099 Z" />
	<path d="M 6.6625797,8.7716274 C 7.2063889,8.675678 7.5695182,8.157119 7.473649,7.6133638 7.3777801,7.0694813 6.8592297,6.7064644 6.3154202,6.802363 5.7716109,6.898274 5.4084819,7.4168839 5.5043509,7.9606393 c 0.09587,0.5437552 0.6144322,0.9069374 1.1582288,0.8109881 z" />
	<path d="M 10.057676,8.079623 C 10.601407,7.983799 10.964574,7.4651517 10.868627,6.9213586 10.772807,6.3775528 10.254274,6.0144513 9.710414,6.1103647 9.166683,6.2062647 8.803517,6.7248615 8.899335,7.2686673 8.99528,7.8125113 9.513816,8.1755747 10.057676,8.079623 Z" />
	<path d="m 7.7453149,9.1644463 c -0.05638,0.021744 -0.1079328,0.054426 -0.1517702,0.096075 -0.043728,0.041658 -0.078935,0.091595 -0.103329,0.1468219 -0.024509,0.055345 -0.037857,0.1148355 -0.039356,0.1752431 -0.00147,0.060412 0.00896,0.1205868 0.03072,0.1769691 0.056843,0.1469366 0.1419898,0.2813326 0.2507254,0.3954766 v 0 c 0.1087363,0.114144 0.2388752,0.205622 0.3830509,0.269367 l 1.151e-4,1.15e-4 c 0.143946,0.06374 0.2990526,0.09849 0.4565758,0.102282 h 1.151e-4 2.299e-4 c 0.1574091,0.0039 0.3140111,-0.02357 0.4609483,-0.08032 h 1.151e-4 c 0.1469418,-0.05672 0.281338,-0.141872 0.3953664,-0.250609 h 1.151e-4 v -1.04e-4 C 9.5429666,10.087149 9.6344432,9.95701 9.6981889,9.8130644 9.762165,9.6688883 9.796915,9.5134364 9.800596,9.3557984 9.803462,9.2338305 9.757791,9.1156586 9.6735638,9.0272892 9.5892218,8.9390355 9.4733519,8.8878312 9.3512682,8.8849535 c -0.060409,-0.00147 -0.1204694,0.00912 -0.1768539,0.030836 -0.05638,0.02186 -0.1079328,0.054542 -0.1516548,0.096306 -0.043728,0.041657 -0.078819,0.091596 -0.1032131,0.146937 -0.024393,0.055229 -0.037741,0.1148368 -0.039124,0.1752432 -9.203e-4,0.036474 -0.00896,0.072493 -0.023817,0.1058626 v 1.151e-4 l -1.15e-4,2.299e-4 c -0.014846,0.033485 -0.036128,0.063749 -0.062598,0.089062 -0.02658,0.025313 -0.057762,0.045102 -0.091935,0.058226 l -2.3e-4,1.152e-4 c -0.034288,0.013212 -0.070762,0.019557 -0.1074693,0.018754 -0.03659,-9.206e-4 -0.072718,-0.00912 -0.1062025,-0.02393 h -2.308e-4 l -1.151e-4,-1.158e-4 c -0.033485,-0.014845 -0.063632,-0.036018 -0.088946,-0.062482 v -1.151e-4 0 C 8.3734502,9.4934152 8.353661,9.4622357 8.3404278,9.4279442 8.318682,9.3715639 8.2860018,9.3200115 8.24435,9.2762891 8.2025822,9.2325638 8.1527612,9.1973542 8.0974127,9.1729602 8.0421825,9.1484512 7.9825797,9.1351032 7.9221697,9.1336055 7.861759,9.1321224 7.8016965,9.1425668 7.745316,9.1644448 Z" />
</svg>
