<svg xmlns="http://www.w3.org/2000/svg" fill-rule="evenodd" fill="#000" viewBox="0 0 16 16">
  <path fill="#0c58a1" d="M 5.6672077,1.5001591 H 9.8099348 L 5.5093773,14.242251 A 0.66059617,0.66059617 0 0 1 4.8836248,14.691558 H 1.6595591 A 0.65948245,0.65948245 0 0 1 1.034602,13.821264 L 5.0412961,1.9494662 A 0.66059617,0.66059617 0 0 1 5.6672077,1.5 Z" />
  <path fill="#0078d4" d="M 11.687193,10.046702 H 5.1178247 A 0.30404608,0.30404608 0 0 0 4.910195,10.573174 l 4.2213242,3.94003 a 0.66361914,0.66361914 0 0 0 0.4528075,0.178354 h 3.7198313 z" />
  <path fill="#2b9ae2" d="M 10.9585,1.9488298 A 0.65948245,0.65948245 0 0 0 10.333543,1.5001591 H 5.7165297 a 0.65964156,0.65964156 0 0 1 0.624957,0.4486707 L 10.34834,13.821105 a 0.65964156,0.65964156 0 0 1 -0.6249572,0.870612 h 4.6171722 a 0.65964156,0.65964156 0 0 0 0.624798,-0.870612 z" />
</svg>
