<svg xmlns="http://www.w3.org/2000/svg" fill-rule="evenodd" fill="#000" viewBox="0 0 512 538">
  <path d="m312.97 207.54s2.2107-24.576 50.744-26.285c40.917 2.436 69.585 42.069 79.312 54.744 0 0-35.465 23.502-71.995-17.313-42.127-37.797-58.06-11.146-58.06-11.146z"/>
  <path d="m312.97 207.54s2.2107-24.576 50.744-26.285c40.917 2.436 69.585 42.069 79.312 54.744 0 0-35.465 23.502-71.995-17.313-42.127-37.797-58.06-11.146-58.06-11.146z"/>
  <path d="m312.51 220.85s-4.1448 17.998 19.92 31.916c16.789 9.71 7.347 12.374 7.347 12.374s7.7943 1.4108 20.894-10.509c18.605-16.93 9.149-30.348 9.149-30.348s-19.616-27.822-37.211-6.5061c-1e-7 1e-7 -5.5668 6.5312-20.098 3.0728z"/>
  <path d="m312.51 220.85s-4.1448 17.998 19.92 31.916c16.789 9.71 7.347 12.374 7.347 12.374s7.7943 1.4108 20.894-10.509c18.605-16.93 9.149-30.348 9.149-30.348s-19.616-27.822-37.211-6.5061c-1e-7 1e-7 -5.5668 6.5312-20.098 3.0728z"/>
  <path d="m376.74 229.54s2.5874 26.71-34.158 37.999c0 0 37.669-14.252 78.726 20.829 0 0 4.2977-32.184 23.854-48.693-2.2252 0.64409-32.777 20.787-68.421-10.135z"/>
  <path d="m376.74 229.54s2.5874 26.71-34.158 37.999c0 0 37.669-14.252 78.726 20.829 0 0 4.2977-32.184 23.854-48.693-2.2252 0.64409-32.777 20.787-68.421-10.135z"/>
  <path d="m314.93 215.4s12.254 11.744 23.468-10.835c-1e-7 0-13.934-9.7139-23.468 10.835z"/>
  <path d="m314.93 215.4s12.254 11.744 23.468-10.835c-1e-7 0-13.934-9.7139-23.468 10.835z"/>
  <path d="m324.97 210.57c0.45947 1.5313-0.26263 3.0896-1.6141 3.481-1.3517 0.39142-2.8199-0.5325-3.2802-2.0638-0.45947-1.5307 0.26343-3.089 1.6149-3.4804 1.3517-0.39125 2.8199 0.53247 3.2794 2.0632z"/>
  <path d="m501.88 352.23c2.3984-51.962 1.5143-90.731-34.132-114.79-45.841-52.186-99.731-123.31-88.401-209.45 8.1882-62.254 12.684-1.2432 12.684-1.2432s10.135 88.776 43.531 117.29c85.084 75.112 85.182 116.33 66.318 208.19z"/>
  <path d="m501.88 352.23c2.3984-51.962 1.5143-90.731-34.132-114.79-45.841-52.186-99.731-123.31-88.401-209.45 8.1882-62.254 12.684-1.2432 12.684-1.2432s10.135 88.776 43.531 117.29c85.084 75.112 85.182 116.33 66.318 208.19z"/>
  <path d="m363.33 73.153s12.254 60.12 44.838 97.428c34.233 39.198 25.75 30.525 54.422 66.41 0 0-3.1885-2.8805-12.885 0.071365 0 0-26.215-39.685-52.092-51.774 0 0-32.438-33.238-37.493-69.039-8.2083-58.137-0.72665-65.054 3.2097-43.095z"/>
  <path d="m363.33 73.153s12.254 60.12 44.838 97.428c34.233 39.198 25.75 30.525 54.422 66.41 0 0-3.1885-2.8805-12.885 0.071365 0 0-26.215-39.685-52.092-51.774 0 0-32.438-33.238-37.493-69.039-8.2083-58.137-0.72665-65.054 3.2097-43.095z"/>
  <path d="m391.14 181.84s-29.217-32.774-32.055-41.808c-5.0109-15.955-6.8811-20.54-8.5002-6.8413-0.8978 7.6022 4.6171 42.663 20.031 44.265 10.23 1.0631 20.524 4.3846 20.524 4.3846z"/>
  <path d="m391.14 181.84s-29.217-32.774-32.055-41.808c-5.0109-15.955-6.8811-20.54-8.5002-6.8413-0.8978 7.6022 4.6171 42.663 20.031 44.265 10.23 1.0631 20.524 4.3846 20.524 4.3846z"/>
  <path d="m0.23064 130.92c-1.8937 25.264 8.0926 68.671 21.918 86.991 27.119 55.465 102.29 120.94 205.96 101.21 32.223-9.1945 60.274 5.7759 80.389 22.936 19.347 19.714 26.128 23.097 39.377 15.294-13.739-13.307-28.446-28.859-28.14-49.361 0.96524-14.886 6.391-29.476 15.941-37.426-9.4287-33.086-62.261-34.683-85.802-32.318-30.485 2.0598-61.095 17.79-88.322 20.793-75.603-6.1925-130.41-58.233-148.21-138.35-7.5472-36.9-11.217-15.029-13.11 10.234z"/>
  <path d="m0.23064 130.92c-1.8937 25.264 8.0926 68.671 21.918 86.991 27.119 55.465 102.29 120.94 205.96 101.21 32.223-9.1945 60.274 5.7759 80.389 22.936 19.347 19.714 26.128 23.097 39.377 15.294-13.739-13.307-28.446-28.859-28.14-49.361 0.96524-14.886 6.391-29.476 15.941-37.426-9.4287-33.086-62.261-34.683-85.802-32.318-30.485 2.0598-61.095 17.79-88.322 20.793-75.603-6.1925-130.41-58.233-148.21-138.35-7.5472-36.9-11.217-15.029-13.11 10.234z"/>
  <path d="m69.252 303c53.433 31.787 107.02 42.246 151.22 25.865 0 0 40.355-24.524 96.879 26.991 0 0-63.458 33.73-124.12 31.5-21.952-0.80695-90.731-15.244-135.53-61.065-40.692-41.623-41.347-85.076-23.075-57.536 18.002 27.13 34.623 34.246 34.623 34.246z"/>
  <path d="m69.252 303c53.433 31.787 107.02 42.246 151.22 25.865 0 0 40.355-24.524 96.879 26.991 0 0-63.458 33.73-124.12 31.5-21.952-0.80695-90.731-15.244-135.53-61.065-40.692-41.623-41.347-85.076-23.075-57.536 18.002 27.13 34.623 34.246 34.623 34.246z"/>
  <path d="m162.77 396.44c77.936 7.3585 124.43-19.351 158.33-35.111 5.6811 40.532-61.959 71.024-110.21 66.672-32.274-1.568-77.432-8.6792-105.49-37.896-2.7056-2.8166-21.231-26.439 8.3859-8.193 19.184 9.115 32.868 11.293 48.99 14.528z"/>
  <path d="m162.77 396.44c77.936 7.3585 124.43-19.351 158.33-35.111 5.6811 40.532-61.959 71.024-110.21 66.672-32.274-1.568-77.432-8.6792-105.49-37.896-2.7056-2.8166-21.231-26.439 8.3859-8.193 19.184 9.115 32.868 11.293 48.99 14.528z"/>
  <path d="m329.82 364.28c14.708 29.729 26.659 36.064 67.676 53.992 25.01 11.436 33.21 18.006 27.375 28.42 0 0 31.096-16.644 45.614-38.507 0 0-78.789-13.963-119.73-48.882-10.362 8.5261-20.93 4.9768-20.93 4.9768z"/>
  <path d="m329.82 364.28c14.708 29.729 26.659 36.064 67.676 53.992 25.01 11.436 33.21 18.006 27.375 28.42 0 0 31.096-16.644 45.614-38.507 0 0-78.789-13.963-119.73-48.882-10.362 8.5261-20.93 4.9768-20.93 4.9768z"/>
  <path d="m326.67 367.22s1.277 34.789-48.288 57.621c-35.673 16.433 9.2277 10.238 32.118-0.88559 23.542-11.441 28.668-27.518 25.292-40.72-2.5774-10.079-6.5415-13.225-9.1223-16.015z"/>
  <path d="m326.67 367.22s1.277 34.789-48.288 57.621c-35.673 16.433 9.2277 10.238 32.118-0.88559 23.542-11.441 28.668-27.518 25.292-40.72-2.5774-10.079-6.5415-13.225-9.1223-16.015z"/>
  <path d="m501.09 355.62s-14.346 40.269-27.536 51.454c0 0 8.4305 2.0047 11.427 19.934 8.5925-21.045 16.109-71.388 16.109-71.388z"/>
  <path d="m501.09 355.62s-14.346 40.269-27.536 51.454c0 0 8.4305 2.0047 11.427 19.934 8.5925-21.045 16.109-71.388 16.109-71.388z"/>
  <path d="m472.35 412.06s14.051 48.101-50.035 101.34c-28.155 23.39-57.36 34.686-91.035 41.423 0 0-66.674 10.947-81.935-36.265 0 0 13.674 8.0853 49.165 5.6697 99.927-6.8008 164.9-61.888 173.84-112.17z"/>
  <path d="m472.35 412.06s14.051 48.101-50.035 101.34c-28.155 23.39-57.36 34.686-91.035 41.423 0 0-66.674 10.947-81.935-36.265 0 0 13.674 8.0853 49.165 5.6697 99.927-6.8008 164.9-61.888 173.84-112.17z"/>
  <path d="m286.14 494.35s8.8703 21.389 37.131 20.955c48.839-0.75134 128.14-44.064 142.75-96.16 0 0-41.053 48.777-115.89 66.285-48.612 11.373-63.995 8.9198-63.995 8.9198z"/>
  <path d="m286.14 494.35s8.8703 21.389 37.131 20.955c48.839-0.75134 128.14-44.064 142.75-96.16 0 0-41.053 48.777-115.89 66.285-48.612 11.373-63.995 8.9198-63.995 8.9198z"/>
  <path d="m477.35 414.41c15.793 15.357 11.512 133.7-105.8 163.77 0 0-46.809 14.96-82.35-12.858 46.734 5.8333 115.88-24.697 143.41-52.804 30.643-31.281 49.176-63.401 44.742-98.105z"/>
  <path d="m477.35 414.41c15.793 15.357 11.512 133.7-105.8 163.77 0 0-46.809 14.96-82.35-12.858 46.734 5.8333 115.88-24.697 143.41-52.804 30.643-31.281 49.176-63.401 44.742-98.105z"/>
  <path d="m158.59 219.45c58.49-24.384 109.91-23.889 152.96-11.75 0 0-1.8904 4.1268-5.6591 3.2306-1.3266-0.31531 0.38727 2.8133 6.1582 9.4424-43.866-17.733-96.235-14.566-153.46-0.9229z"/>
  <path d="m158.59 219.45c58.49-24.384 109.91-23.889 152.96-11.75 0 0-1.8904 4.1268-5.6591 3.2306-1.3266-0.31531 0.38727 2.8133 6.1582 9.4424-43.866-17.733-96.235-14.566-153.46-0.9229z"/>
  <path d="m419.97 292.26s-9.4571-9.2505-24.474-16.072c-7.5076-3.4105-17.171-6.7448-26.207-6.9506-11.087-0.25201-20.915-1.9254-32.515 7.0576-37.613 46.214 11.323 102.73 128.81 126.25-12.481-1.0745-147.94-135.83-45.619-110.29z"/>
  <path d="m419.97 292.26s-9.4571-9.2505-24.474-16.072c-7.5076-3.4105-17.171-6.7448-26.207-6.9506-11.087-0.25201-20.915-1.9254-32.515 7.0576-37.613 46.214 11.323 102.73 128.81 126.25-12.481-1.0745-147.94-135.83-45.619-110.29z"/>
  <path d="m423.79 290.44s1.5381-11.019 7.2191-24.486c5.6811-13.467 16.113-28.462 31.435-25.188 23.006 8.9862 46.02 47.079 33.65 117.12-6.3091 22.317-21.591 43.328-21.591 43.328 2.7349 0.51132-3.4503-204.58-50.714-110.77z"/>
  <path d="m423.79 290.44s1.5381-11.019 7.2191-24.486c5.6811-13.467 16.113-28.462 31.435-25.188 23.006 8.9862 46.02 47.079 33.65 117.12-6.3091 22.317-21.591 43.328-21.591 43.328 2.7349 0.51132-3.4503-204.58-50.714-110.77z"/>
  <path d="m424.86 297.59c-41.973-15.358-57.52 19 47.908 108.07-2.225-49.139-11.199-182.41-47.908-108.07z"/>
  <path d="m424.86 297.59c-41.973-15.358-57.52 19 47.908 108.07-2.225-49.139-11.199-182.41-47.908-108.07z"/>
</svg>
