<svg xmlns="http://www.w3.org/2000/svg" fill-rule="evenodd" fill="#000" viewBox="0 0 16 16">
	<path d="m 6.8311567,1.7643423 1.581055,4.6660162 a 1.6,1.6 0 0 1 0.209961,0.05762 l 1.5722653,-3.181641 1.567383,3.200195 a 1.6,1.6 0 0 1 0.200195,-0.0625 l 1.586915,-4.6796872 z m 1.251953,5.2714842 a 0.986,0.986 0 0 0 -0.972656,0.984375 0.985,0.985 0 1 0 0.984375,-0.984375 0.986,0.986 0 0 0 -0.01172,0 z m 4.2568363,0 a 0.985,0.985 0 1 0 0.985352,0.984375 0.986,0.986 0 0 0 -0.985352,-0.984375 z m -8.5175785,0.0068 a 0.986,0.986 0 0 0 -0.9736328,0.985387 0.985,0.985 0 1 0 0.9853516,-0.982422 v -0.0029 a 0.986,0.986 0 0 0 -0.011718,0 z m 5.8925782,0.989258 A 1.6205,1.6205 0 0 1 7.8516647,9.6256345 6.039,6.039 0 0 1 6.8926807,10.78579 5.5145,5.5145 0 0 1 4.95518,11.985986 l -0.1298828,0.0459 -0.1230469,-0.06348 A 1.9825,1.9825 0 0 1 3.6524457,9.6412955 1.6075,1.6075 0 0 1 3.2335003,9.5358265 c -0.044,0.092 -0.088766,0.185774 -0.1347656,0.280274 a 6.41,6.41 0 0 0 -0.640625,1.7255855 c -0.11,0.663 -0.1534609,1.873344 0.7900391,2.527343 1.286,0.8925 2.6533519,0.214211 4.2353519,-0.571289 a 12.2935,12.2935 0 0 1 2.450195,-1.006836 c 0.3195003,-0.079 0.6459143,-0.125398 0.9619143,-0.170898 a 4.45,4.45 0 0 0 1.611328,-0.43457 1.91,1.91 0 0 0 0.935547,-1.323242 l -10e-4,10e-4 A 1.9785,1.9785 0 0 0 13.263751,9.3522565 1.62,1.62 0 0 1 10.724688,8.0436625 Z" />
</svg>
