<svg xmlns="http://www.w3.org/2000/svg" fill-rule="evenodd" fill="#000" viewBox="0 0 16 16">
  <path d="m 3.1649001,15.108877 c -0.12971,-0.06541 -0.2016831,-0.137382 -0.2670918,-0.267092 -0.083267,-0.165124 -0.089536,-0.229316 -0.089536,-0.916775 0,-0.687459 0.00627,-0.751651 0.089536,-0.916775 0.065409,-0.12971 0.1373818,-0.201683 0.2670918,-0.267092 l 0.1775557,-0.08954 h 4.5594272 4.559428 l 0.177555,0.08954 c 0.12971,0.06541 0.201683,0.137382 0.267092,0.267092 0.08326,0.165124 0.08954,0.229316 0.08954,0.916775 0,0.687459 -0.0063,0.751651 -0.08954,0.916775 -0.06541,0.12971 -0.137382,0.201683 -0.267092,0.267092 l -0.177555,0.08953 H 7.901883 3.3424558 Z m 0.9167748,-3.334012 c 0,-0.320418 0.052427,-0.428425 0.4274216,-0.880542 C 4.9348599,10.380996 5.2327378,9.9262108 5.4715537,9.4248912 5.6479407,9.054622 5.8723974,8.3966928 5.8723974,8.2499363 c 0,-0.046396 0.3247173,-0.055235 2.0294856,-0.055235 1.7047682,0 2.0294852,0.00887 2.0294852,0.055235 0,0.1467565 0.2244578,0.8046857 0.4008448,1.1749549 0.238815,0.5013196 0.536693,0.9561048 0.962457,1.4694318 0.374994,0.452117 0.427421,0.560124 0.427421,0.880542 v 0.240041 H 7.901883 4.0816749 Z M 4.7183763,6.921295 V 6.2845936 H 5.0344018 5.3504273 L 5.1792608,6.0069698 C 4.8339832,5.4469463 4.6647795,4.6716924 4.746508,4.0241979 4.842334,3.2650188 5.1265272,2.6858984 5.6699097,2.1425163 6.2132921,1.5991333 6.7924126,1.3149407 7.5515917,1.2191144 c 0.6388958,-0.08064 1.3805786,0.077504 1.9619417,0.4183295 0.3615277,0.2119488 0.9134466,0.7638671 1.1253956,1.1253948 0.340389,0.5806119 0.498993,1.323312 0.418528,1.9598464 -0.05771,0.4564981 -0.220724,0.9400601 -0.432951,1.2842847 l -0.171167,0.2776238 h 0.316026 0.316024 V 6.921295 7.5579965 H 7.901883 4.7183763 Z" />
</svg>
