<svg xmlns="http://www.w3.org/2000/svg" fill-rule="evenodd" fill="#000" viewBox="0 0 16 16">
  <path d="M 5.702288,0.50977135 C 5.0651134,0.71312475 4.4582031,1.0011289 3.8963449,1.3656586 l 0.3410992,2.000558 C 3.7328264,3.8060627 3.3078157,4.329393 2.9839565,4.9168584 L 0.95619414,5.004749 C 0.71819557,5.6298726 0.56477171,6.2830115 0.5,6.9488059 l 1.7766462,0.9814453 c 0.02862,0.6688072 0.1750078,1.3270514 0.4310826,1.9461496 l -1.194894,1.6406252 c 0.3404289,0.575414 0.7556437,1.104024 1.234654,1.569475 l 1.875,-0.778459 c 0.5407697,0.394654 1.1480955,0.691535 1.7912946,0.876813 l 0.5357143,1.958705 c 0.6627819,0.0934 1.3356837,0.09691 1.9984654,0.01256 L 9.508789,13.205781 c 0.646212,-0.176237 1.254375,-0.465163 1.799666,-0.853795 l 1.866629,0.799387 c 0.485036,-0.459427 0.907032,-0.980331 1.253487,-1.552735 L 13.254604,9.9433651 C 13.518211,9.3287857 13.673139,8.6687015 13.710798,8.0014008 L 15.5,7.0450671 C 15.44276,6.3792727 15.297293,5.720776 15.066825,5.0926397 L 13.041155,4.9796374 C 12.724826,4.3891594 12.308692,3.8602186 11.808594,3.4143472 l 0.36621,-1.9963728 C 11.618973,1.0474194 11.015581,0.75145971 10.381417,0.53906828 L 9.0295759,2.0541351 C 8.3713131,1.9336296 7.6971575,1.9286052 7.0373884,2.0415794 Z M 7.8577009,3.6005916 C 10.557025,3.5990853 12.7757,5.1784117 8.6529018,7.0869198 8.3365745,7.2330326 7.9749753,7.2424951 7.6526227,7.1099387 3.513254,5.4108092 5.3843226,3.6041981 7.8577009,3.6026844 Z M 11.28962,6.2833484 c 1.254335,3.6e-4 1.286551,1.6527398 0.437361,3.126395 v 0.00209 C 10.378822,11.749651 7.9014962,12.882145 8.3097098,8.3571486 8.3398364,8.0091879 8.5132658,7.6927266 8.788923,7.480335 9.8960708,6.6254964 10.719469,6.2831847 11.28962,6.2833484 Z M 4.9405691,6.3524053 C 5.4823325,6.3390299 6.2819969,6.6454204 7.3847656,7.4217412 7.6694606,7.6220821 7.8570429,7.9326807 7.9037388,8.2776285 8.5017488,12.712241 6.0008921,11.997465 4.7626953,9.8554744 3.8126534,8.2127598 3.6574458,6.3840839 4.9405691,6.3524053 Z" />
</svg>
