<svg xmlns="http://www.w3.org/2000/svg" fill-rule="evenodd" fill="#000" viewBox="0 0 16 16">
  <path d="m 5.5866224,4.7992816 c -0.6849156,0 -1.2408472,0.5551816 -1.2408472,1.2408472 0,0.6856655 0.5556816,1.2408471 1.2408472,1.2408471 0.6851656,0 1.2408471,-0.5551816 1.2408471,-1.2408471 0,-0.6856656 -0.5556815,-1.2408472 -1.2408471,-1.2408472 z m -0.00799,1.9308328 c -0.414199,0 -0.6291,-0.3134166 -0.6291,-0.7276155 0,-0.414199 0.2576868,-0.5591766 0.6594894,-0.5531267 0.4115255,0.0062 0.6291,0.2070538 0.6291,0.6215028 0,0.4141989 -0.2450405,0.6592394 -0.6594894,0.6592394 z m 5.7638816,0.6001054 c 0.685166,0 1.240847,-0.5556815 1.240847,-1.2408471 0,-0.6851656 -0.555181,-1.2408472 -1.240847,-1.2408472 -0.685166,0 -1.240847,0.5551817 -1.240847,1.2408472 0,0.6856655 0.555681,1.2408471 1.240847,1.2408471 z m -0.0197,-1.8149177 c 0.414449,0 0.603698,0.2453045 0.583267,0.5984607 -0.0178,0.3077037 -0.1196,0.5138405 -0.57567,0.5531267 -0.409081,0.035239 -0.606058,-0.1690671 -0.606058,-0.5835161 0,-0.4141989 0.184262,-0.5680713 0.598461,-0.5680713 z m 2.846155,2.2041198 c 0,-1.7012904 -0.682166,-3.2425506 -1.78653,-4.367262 C 12.17746,2.725987 12.199957,1.8603437 12.459925,1.4663922 12.549914,1.3289091 12.647402,1.1956755 12.751639,1.045944 11.827753,0.8884634 11.0421,1.1534307 10.515414,1.8123496 10.450422,1.8923396 10.39293,1.9398339 10.330437,1.9623311 9.5925281,1.654869 8.7831278,1.48414 7.9342324,1.48414 c -0.852395,0 -1.664545,0.1724788 -2.4044538,0.4814407 C 5.4647866,1.9435837 5.4022943,1.8955897 5.3348026,1.8105998 4.8088674,1.1519309 4.0229642,0.8867136 3.0985781,1.0441942 3.2035652,1.1941757 3.2985535,1.3269094 3.3902921,1.4646424 3.6545096,1.8645931 3.6747571,2.7499841 3.4602831,3.3779067 2.3714173,4.5002684 1.7,6.030055 1.7,7.7176471 c 0,0.7939022 0.1499815,1.5533087 0.4199482,2.2514726 0.067492,0.1924763 0.129984,0.3852023 0.1924763,0.5784293 0.057493,0.177478 0.1124862,0.351706 0.1649797,0.527185 0.1499815,0.517186 0.2424701,1.05162 0.2579682,1.590304 0.0044,0.147482 0.00165,0.294963 -0.0022,0.441945 -0.00165,0.04999 -0.0033,0.102488 -0.00495,0.152481 l 1.2628444,-1.155607 c 0.2299717,0.212474 0.5404335,0.4017 0.9156372,0.56393 -0.3802031,0.265718 -0.6294224,0.706413 -0.6294224,1.205602 0,0.425947 0.1824775,0.8084 0.4714419,1.076867 -0.027497,-0.09249 -0.042495,-0.192476 -0.042495,-0.295463 0,-0.565681 0.4584436,-1.023374 1.023374,-1.023374 0.5651803,0 1.0233739,0.458443 1.0233739,1.023374 0,0.119985 -0.022022,0.23747 -0.059993,0.344457 0.3214604,-0.269717 0.5259352,-0.673917 0.5259352,-1.126361 0,-0.24747 -0.062492,-0.480441 -0.1699791,-0.685166 0.3379584,0.035 0.6894151,0.05499 1.0516205,0.05499 0.2474695,0 0.4881899,-0.0088 0.7241608,-0.025 -0.099988,0.197476 -0.1549809,0.420448 -0.1549809,0.656419 0,0.425948 0.1824775,0.808401 0.4716919,1.076868 -0.027497,-0.09249 -0.042495,-0.192477 -0.042495,-0.295464 0,-0.56568 0.4584435,-1.023374 1.0233742,-1.023374 0.565181,0 1.023374,0.458444 1.023374,1.023374 0,0.119985 -0.02202,0.237471 -0.05999,0.344458 0.32146,-0.269717 0.525935,-0.674167 0.525935,-1.126362 0,-0.450194 -0.202475,-0.852895 -0.521686,-1.122361 0.388453,-0.147482 0.719162,-0.32571 0.97438,-0.523936 l 1.091619,0.998628 c -0.0022,-0.04999 -0.0038,-0.09999 -0.005,-0.152482 -0.0038,-0.147481 -0.0066,-0.294463 -0.0022,-0.441945 0.0154,-0.538684 0.107486,-1.072868 0.257968,-1.590304 0.04999,-0.174979 0.107487,-0.350957 0.164979,-0.527685 0.06749,-0.202475 0.132484,-0.4077 0.202475,-0.6091753 h -5.49e-4 C 14.028882,9.2237116 14.169865,8.4870523 14.169865,7.7171472 Z M 7.9546804,10.275057 C 7.8296958,10.09008 7.7272084,9.8833553 7.6312202,9.6961284 7.5212338,9.4811549 7.4087476,9.2679311 7.2977613,9.0544574 7.0852875,8.6462577 6.7673266,8.2308089 6.6610897,7.7696157 6.236392,8.1150731 5.6949587,8.3220477 5.1045315,8.3220477 c -1.363582,0 -2.4689459,-1.1053639 -2.4689459,-2.4689459 0,-1.363582 1.1053639,-2.4689459 2.4689459,-2.4689459 0.3627053,0 0.706413,0.07749 1.0168747,0.2199729 0.1399828,0.059993 0.2744662,0.1324837 0.4017005,0.2149736 0.6404211,0.4434453 1.0598695,1.1831042 1.0598695,2.0205011 0,0.1199852 -0.00935,0.2374707 -0.027497,0.3537064 0.1249846,-0.039995 0.2597181,-0.059993 0.398451,-0.059993 0.1599803,0 0.3132114,0.029996 0.4556938,0.08249 C 8.388152,6.0858229 8.377128,5.9523394 8.377128,5.8163561 c 0,-0.2124738 0.027497,-0.4204482 0.07999,-0.6179239 0.00275,-0.00992 0.0055,-0.019273 0.00825,-0.029996 0.013748,-0.049994 0.027497,-0.099988 0.044994,-0.1474818 0.011549,-0.034996 0.023647,-0.067492 0.037495,-0.099988 0.0055,-0.013748 0.010449,-0.027497 0.015948,-0.039995 0.3674548,-0.9018889 1.252846,-1.5373107 2.286219,-1.5373107 1.363582,0 2.468946,1.1053639 2.468946,2.4689459 0,1.363582 -1.105364,2.4689458 -2.468946,2.4689458 -0.512687,0 -0.989378,-0.1574806 -1.3838301,-0.4241977 C 9.3962028,7.8098607 9.3262114,7.7573672 9.2612194,7.702374 9.2087259,7.9473438 9.0837413,8.1573179 8.9602565,8.3912891 8.7902774,8.7109997 8.623048,9.0317102 8.4558186,9.3526707 L 7.9561302,10.277057 Z m -0.0035,-3.89627 c -0.6389213,0 -1.1566075,0.5176863 -1.1566075,1.1571075 0,0.5101871 0.3599556,0.9513828 0.5854279,1.3833296 0.097488,0.1849772 0.1924762,0.3719542 0.2899642,0.5579313 0.08249,0.1624799 0.1749785,0.3427077 0.2817153,0.502938 l 0.434197,-0.803901 C 8.5308594,8.8972268 8.6768414,8.6182612 8.8243232,8.3402954 8.964306,8.0750781 9.1082883,7.8466062 9.1082883,7.5353946 c 0,-0.6389213 -0.5176863,-1.1571075 -1.1571075,-1.1571075 z" />
</svg>
