<svg xmlns="http://www.w3.org/2000/svg" fill-rule="evenodd" fill="#000" viewBox="0 0 450 450">
<path d="M 26,248 L 26,201 194,113 194,157 70,224 194,292 194,336 26,248 26,248 Z M 420,122 L 274,327 223,327 370,122 420,122 420,122 Z M 379,302 C 383,302 386,301 388,298 391,295 392,292 392,288 392,284 391,280 388,277 386,275 383,273 380,273 376,273 373,275 371,277 369,280 367,284 367,288 367,292 368,295 371,298 373,301 376,302 379,302 L 379,302 Z M 410,317 C 393,333 366,333 349,317 341,309 337,299 337,288 337,277 341,267 349,259 366,243 393,243 410,259 418,266 423,277 423,288 423,299 418,309 410,317 L 410,317 410,317 Z M 264,183 C 268,183 271,182 273,179 276,176 277,172 277,169 277,165 276,161 273,158 271,155 268,154 265,154 261,154 258,155 256,158 254,161 252,165 252,169 252,172 253,176 256,179 258,182 261,183 264,183 L 264,183 Z M 295,198 C 278,213 251,213 234,197 226,190 222,179 222,168 222,158 226,147 234,139 251,124 278,124 295,139 303,147 308,158 308,169 308,180 303,190 295,198 L 295,198 Z"/>
</svg>
