<svg xmlns="http://www.w3.org/2000/svg" fill-rule="evenodd" fill="#000" viewBox="0 0 16 16">
  <path d="M 8.2975957,8.3945169 C 8.351449,7.203929 9.7424732,6.4759115 10.809426,6.8582411 11.757423,7.1081981 12.393302,8.2494712 11.927285,9.1568758 11.355567,10.404215 9.4231856,10.549811 8.6275706,9.4524459 8.398032,9.1529146 8.2747367,8.7722159 8.2975957,8.3945169 Z" fill="#497ce3"/>
  <path d="m 5.2874857,9.338047 c 0.1513597,2.120124 2.0999604,3.770949 4.1455257,3.991659 2.1582166,0.315387 4.5341976,-0.880435 5.3046756,-2.97354 C 15.415055,8.6541114 14.737299,6.6058569 13.286376,5.5318069 11.824803,4.4094187 10.362908,3.2874427 8.9015357,2.1647969 8.4418822,1.7741218 7.3839983,2.0952267 7.5914299,2.7952499 7.8860863,3.1837681 8.3329107,3.4373153 8.6954964,3.7658367 8.9863328,4.0023401 9.2771693,4.2388435 9.5680057,4.4753469 7.683839,4.4797075 5.799474,4.4747705 3.9154307,4.4849122 3.3629064,4.4873509 2.6996606,5.1424804 3.1497345,5.6652431 3.5470442,6.007833 4.0983063,5.8357383 4.5776848,5.8767308 5.2284318,5.8755762 5.8791787,5.8744215 6.5299257,5.8732669 4.8197523,7.1892435 3.103036,8.4970811 1.3969588,9.8181531 0.92668579,10.173017 0.8142161,11.055621 1.4367357,11.315603 2.0492087,11.580405 2.5918842,11.109614 3.0271089,10.733282 3.7930278,10.10643 4.5589468,9.4795787 5.3248657,8.8527269 c -0.01973,0.1608588 -0.036824,0.323844 -0.03738,0.4853201 z m 7.0521703,1.01538 C 11.090195,11.668958 8.675934,11.530204 7.6312231,10.028602 6.7937224,8.9364789 7.1258391,7.2441643 8.2480496,6.4802046 9.6678512,5.378977 12.043861,5.8120829 12.838915,7.4691473 c 0.480304,0.9437452 0.253579,2.1496346 -0.499259,2.8842797 z" fill="#ea7130"/>
</svg>
