<svg xmlns="http://www.w3.org/2000/svg" fill-rule="evenodd" fill="#000" viewBox="0 0 16 16">
	<path d="M 10.753906 8.1660156 C 10.727279 8.1654127 10.700489 8.166308 10.673828 8.1679688 C 10.461533 8.1811941 10.254333 8.26819 10.115234 8.4257812 C 9.9788069 8.5803389 9.9206469 8.7923463 9.9335938 9 L 10.121094 12.007812 C 10.133914 12.213569 10.207864 12.415291 10.361328 12.550781 C 10.513255 12.684876 10.72065 12.733372 10.923828 12.720703 L 12.775391 12.605469 C 12.977217 12.592889 13.165948 12.543579 13.308594 12.40625 C 13.455217 12.268864 13.510206 12.060203 13.498047 11.865234 C 13.485947 11.671254 13.406467 11.473774 13.248047 11.353516 C 13.089626 11.233257 12.892321 11.202207 12.689453 11.214844 L 11.667969 11.279297 L 11.521484 8.9003906 C 11.508458 8.6914224 11.419734 8.4865338 11.261719 8.3515625 C 11.122893 8.2306388 10.940294 8.1702363 10.753906 8.1660156 z " />
	<path d="M 7.140625 8.0429688 C 6.9892357 8.040399 6.8391883 8.0766581 6.7148438 8.1640625 C 6.5490433 8.2806078 6.452949 8.4713501 6.4179688 8.671875 L 5.8984375 11.646484 C 5.8634575 11.847017 5.8893076 12.058818 6.0058594 12.224609 C 6.122404 12.390425 6.3131543 12.484551 6.5136719 12.519531 L 7.6367188 12.716797 C 8.1056052 12.798587 8.5382759 12.787545 8.9257812 12.671875 C 9.3157243 12.557109 9.6478959 12.340064 9.8964844 12.033203 C 10.149155 11.723975 10.311085 11.339289 10.388672 10.894531 C 10.465662 10.453147 10.442744 10.037278 10.308594 9.6640625 C 10.174732 9.2916783 9.9331695 8.976082 9.6054688 8.7363281 C 9.2810397 8.4928094 8.8794247 8.3350801 8.4140625 8.2539062 L 7.2910156 8.0585938 C 7.2408844 8.049849 7.1910881 8.0438253 7.140625 8.0429688 z M 7.875 9.5664062 L 8.1035156 9.6074219 C 8.4413777 9.6663608 8.6336912 9.7808495 8.7363281 9.9238281 L 8.7363281 9.9257812 C 8.8403329 10.067734 8.8874821 10.280839 8.828125 10.621094 C 8.7687761 10.961341 8.6525012 11.151595 8.5039062 11.253906 C 8.3589303 11.353686 8.1406099 11.396815 7.8027344 11.337891 L 7.5722656 11.296875 L 7.875 9.5664062 z " />
	<path d="M 5.734375 8 C 5.7103284 7.9993242 5.6861695 7.9999872 5.6621094 8.0019531 C 5.4640326 8.0181368 5.2784072 8.1276456 5.1523438 8.28125 L 4.1347656 9.4882812 L 4.0878906 8.9160156 C 4.0708838 8.7079482 3.978094 8.5069282 3.8183594 8.375 C 3.6568718 8.2387082 3.4403968 8.1837001 3.2265625 8.2011719 C 3.0145621 8.2184937 2.8079017 8.3085148 2.671875 8.46875 C 2.5384437 8.6259167 2.4869572 8.8395208 2.5039062 9.046875 L 2.7480469 12.056641 C 2.7651959 12.266455 2.8504649 12.467985 3.0058594 12.605469 L 3.0117188 12.609375 L 3.015625 12.613281 C 3.1764961 12.744293 3.3897596 12.794503 3.5996094 12.777344 C 3.811949 12.759984 4.0155934 12.676329 4.1542969 12.519531 L 4.15625 12.517578 L 4.1582031 12.515625 C 4.2942292 12.355395 4.3513116 12.137787 4.3339844 11.925781 L 4.28125 11.275391 L 5.5058594 12.341797 L 5.5058594 12.339844 C 5.6731164 12.48647 5.8894774 12.574452 6.1074219 12.556641 C 6.3022357 12.540721 6.4887129 12.442016 6.6152344 12.292969 C 6.7405662 12.145492 6.8087488 11.947016 6.7929688 11.753906 C 6.7769618 11.55803 6.6716335 11.372128 6.5195312 11.248047 L 5.3808594 10.253906 L 6.2597656 9.2382812 L 6.2617188 9.2363281 C 6.3966193 9.082065 6.4795075 8.88108 6.4628906 8.6777344 C 6.447245 8.4861011 6.3454101 8.3038465 6.1972656 8.1816406 C 6.0682284 8.0726571 5.9027015 8.0047303 5.734375 8 z " />
	<path d="m 14.125,1.875 v 12.25 H 1.875 V 1.875 Z M 15,1 H 1 v 14 h 14 z" />
</svg>
