<svg xmlns="http://www.w3.org/2000/svg" fill-rule="evenodd" fill="#000" viewBox="0 0 16 16">
  <path d="M2.965 1.235a1.376 1.376 0 0 0-.066.211l-.015.067-.015.072-.013.078-.013.082-.013.087-.012.092-.01.097-.01.101a9.088 9.088 0 0 0-.005.052l-.01.108-.007.112-.008.116c0 .02-.002.039-.003.059l.717.347a9.48 9.48 0 0 1 .04-1.178l.008-.065-.005.06-.007.098-.002.046-.004.107-.001.06-.002.134v.112l.002.123.002.088.005.14.004.1.005.104.003.054a9.01 9.01 0 0 0 .46-.408l.112-.106.056-.054.112-.11.11-.11.108-.108.104-.107a2.24 2.24 0 0 0-.354-.532l-.038-.04a1.577 1.577 0 0 0-.073-.071l-.035-.03-.034-.029a1.31 1.31 0 0 0-.033-.025l-.031-.022-.03-.02-.04-.025-.037-.02-.04-.02-.03-.013-.056-.02-.04-.013-.04-.011-.03-.008L3.62.99a1.187 1.187 0 0 0-.017-.004L3.566.98 3.53.975c-.199-.025-.455 0-.564.26m1.89 8.662-.1-.364-.087-.324-.038-.142-.072-.28-.07-.276-.07-.283a50.69 50.69 0 0 1-.034-.14l-.065-.272-.066-.28a31.325 31.325 0 0 1-.09-.406l-.057-.267-.028-.13-.038-.186-.085-.437-.018-.098-.037-.191-.011-.064-.009-.046-.034.032-.072-.036.005.024c.016.095.032.191.05.288l.058.313.015.085c.034.175.068.35.105.524l.037.176a39.004 39.004 0 0 0 .318 1.392c.037.152.074.303.112.452l.058.224a33.834 33.834 0 0 0 .226.843l.075.272.076.267.115.058.038-.034a16.213 16.213 0 0 1-.207-.694M3.67 5.032a35.616 35.616 0 0 1-.09-.704c-.023-.191-.041-.38-.056-.567l-.013-.167a14.644 14.644 0 0 1-.032-.678l-.716-.346-.002.044-.005.091c-.007.172-.012.354-.013.545-.002.216 0 .441.004.677a24.488 24.488 0 0 0 .055 1.12l.013.175.957.485-.034-.226z"/>
  <path d="m5.054 10.591.015.051.095.323.042.139.045.147.016.052a.465.465 0 0 0 .009.026l.154.494c.136-.028.303.023.479.1l.07.032a.785.785 0 0 0-.522-.284c.586-.391.972-.895.918-1.496a2.06 2.06 0 0 0-.024-.164c-.009.222-.097.384-.354.558l-.031.021c.265-.466.338-.783.307-1.192-.008-.097-.02-.2-.038-.31-.085.608-.412 1.003-.89 1.236zm-.344-.715-.06-.228-.122-.462a45.09 45.09 0 0 1-.333-1.363 29.64 29.64 0 0 1-.155-.705l-.049-.234-.093-.466a10.051 10.051 0 0 1-.047-.253l-.076-.433-.005-.024-.952-.486.003.03v.016c.02.216.038.435.064.655a19.718 19.718 0 0 0 .177 1.245l.02.115a13.72 13.72 0 0 0 .445 1.758l.037.107.076.212c.091.247.192.488.3.722l.963.488c-.052-.177-.1-.357-.151-.54l-.027-.101z"/>
  <path d="M3.955 10.114c.116.248.242.488.382.72l.077.124a1.1 1.1 0 0 0-.318-.063l-.056-.003-.027-.001-.054-.001h-.075l-.067.002-.056.003-.08.006c.486.17.913.376 1.182.689-.107.118-.307.207-.56.28.188.02.331.012.434-.005l.042-.007a.953.953 0 0 0 .019-.004l.034-.009.03-.009.036-.012.019-.008c-.155.129-.251.349-.332.595l-.028.088-.013.044c.205-.334.408-.556.605-.64.221.732.477 1.51.757 2.324l.13.378.135.382a.29.29 0 0 0 .046-.272l-.09-.253-.102-.296-.158-.47-.13-.393-.143-.444-.137-.433-.125-.406-.093-.304-.075-.25-.029-.1-.028-.094-.081-.28-.083-.289-.037-.133-.001-.002-.963-.487a.162.162 0 0 0 .008.022zm-.071-4.387.017.094.036.192.104.534.038.186.056.262.029.135c.028.133.059.268.09.406l.066.28.065.273.033.14.07.282.07.275a37.339 37.339 0 0 0 .198.747l.1.364.076.268.078.273.04.139c0 .005.001.01.004.014l.29-.267-.006.003-.016.007c.344-.325.64-.977.707-1.564.031-.27.028-.559-.009-.873a5.99 5.99 0 0 0-.14-.746 9.58 9.58 0 0 0-.213-.732 1.452 1.452 0 0 1-.222.32l-.05.055-.017.018-.037.036c.254-.394.284-.818.209-1.259a1.607 1.607 0 0 1-.352.567l-.011.01-.007.006a1.768 1.768 0 0 0 .202-.466l.006-.028c.01-.044.017-.088.024-.133l.01-.085a1.14 1.14 0 0 0 .002-.155l-.006-.097a.273.273 0 0 0-.003-.021l-.01-.062a4.449 4.449 0 0 0-.07-.338l-.02-.082-.02-.069-.024-.081-.032-.096a.843.843 0 0 0-.01-.027l-.02-.048a1.253 1.253 0 0 0-.017-.041l-.016-.033a.29.29 0 0 1-.012.039l-.009.02a1.883 1.883 0 0 1-.33.475l-.027.026a.31.31 0 0 0-.013.015l.005-.01-.914.837c.007.007.008.012.008.015"/>
  <path d="m3.53 2.899.013.209.011.148.007.077.013.159.008.082.002.027a16.9 16.9 0 0 0 .028.265l.02.176.023.184.038.287c.018.13.037.266.059.407l.016.107.054.334.06.352.915-.837c.19-.345.232-.56.23-.827-.001-.054-.004-.11-.007-.167l-.004-.058a7.196 7.196 0 0 0-.083-.722 6.26 6.26 0 0 0-.136-.647 3.429 3.429 0 0 0-.105-.328 3.723 3.723 0 0 0-.1-.228l-.104.106-.054.054-.11.11-.11.108-.113.108a16.72 16.72 0 0 1-.055.054l-.111.104c-.147.135-.286.26-.405.356m8.803-1.484c-.029.012-.06.027-.095.045l-.053.03a2.525 2.525 0 0 0-.118.072l-.064.042-.067.047-.07.05-.073.055-.038.029-.077.06-.08.065-.083.068-.085.072-.088.076-.09.079-.092.082a14.14 14.14 0 0 0-.047.043l.302.849c.326-.348.653-.658.975-.922l.113-.092.008-.006-.078.063-.076.066-.083.075-.078.074-.066.063-.047.046-.103.103-.084.086-.12.128-.065.069-.066.073-.105.116-.073.082c.075.008.157.014.244.019l.136.007.141.006.147.005.15.003.154.002h.307l.152-.001.074-.001.146-.003c.12-.358.148-.645.138-.86l-.003-.054-.004-.051a1.56 1.56 0 0 0-.003-.025l-.007-.046-.007-.042a1.344 1.344 0 0 0-.004-.02l-.008-.038-.009-.035-.009-.03-.008-.028-.016-.045-.013-.03-.032-.065-.018-.034-.015-.027-.017-.03-.02-.032-.023-.033-.024-.034c-.138-.186-.373-.394-.683-.266M6.848 10.12l.126-.23.171-.305.15-.265.075-.132.165-.287.164-.28.08-.139.252-.422.165-.271c.143-.235.282-.46.42-.677l.165-.26.082-.126.117-.18.142-.213.136-.207.063-.093.123-.183.02-.03.04-.059.01-.015-.052-.002-.03-.085-.014.023-.189.271-.201.298a32.132 32.132 0 0 0-.388.586l-.11.171c-.147.229-.293.461-.435.69a56.286 56.286 0 0 0-.684 1.136l-.131.227a38.269 38.269 0 0 0-.488.858c-.106.188-.208.37-.307.554l.046.138.058.003a14.248 14.248 0 0 1 .259-.494m3.036-5.088c.163-.219.325-.431.486-.639a18.208 18.208 0 0 1 1.042-1.217l-.302-.846-.036.033-.076.07a18.215 18.215 0 0 0-.707.694l-.18.186-.092.096a27.697 27.697 0 0 0-.846.945l-.128.151.386 1.15.152-.208z"/>
  <path d="m6.582 10.607-.057.106-.152.282-.076.145-.08.154a.933.933 0 0 0-.043.083l-.084.162-.185.358c.15.097.25.307.339.543a.888.888 0 0 0-.196-.644c.783.15 1.494.052 1.928-.475a2.33 2.33 0 0 0 .11-.15c-.183.171-.384.231-.73.167l-.039-.008c.584-.165.894-.362 1.194-.716.07-.084.143-.177.216-.28-.552.423-1.128.48-1.699.288zm.262-.795.162-.286.269-.469a50.999 50.999 0 0 1 .815-1.362c.142-.232.288-.461.435-.69.145-.227.295-.453.442-.676a10.1 10.1 0 0 1 .163-.24c.093-.138.188-.274.283-.41l.015-.023-.38-1.148-.022.027a.16.16 0 0 1-.012.013c-.156.189-.315.38-.47.577a22.302 22.302 0 0 0-.846 1.143l-.075.109a15.518 15.518 0 0 0-1.039 1.768 10.835 10.835 0 0 0-.494 1.167l.387 1.157.075-.137.154-.277.078-.14z"/>
  <path d="M6.076 9.35a8.605 8.605 0 0 0-.264.881l-.037.163a1.102 1.102 0 0 0-.154-.242l-.039-.046a2.149 2.149 0 0 0-.02-.023l-.04-.044-.04-.042-.039-.04-.056-.054-.05-.047-.057-.05-.05-.04c.257.522.437 1.027.404 1.493-.18.01-.412-.077-.672-.219.112.138.215.235.302.303l.039.03.018.012.035.024.033.02.03.017.026.014.024.012.02.008a.5.5 0 0 0 .01.004c-.219-.019-.461.073-.71.2l-.084.043-.085.046c.431-.107.77-.124.997-.035-.111.21-.223.426-.336.646l-.17.334a83.386 83.386 0 0 0-.773 1.578l-.174.366-.175.37a.328.328 0 0 0 .252-.182l.198-.418.181-.376.232-.473.205-.41.203-.401.193-.377.268-.514.19-.36.065-.123.056-.104.051-.098.079-.144.16-.294.082-.15.075-.136v-.003l-.386-1.156a.183.183 0 0 0-.012.024zm3.428-3.589-.06.089-.124.183-.198.3-.142.213-.036.055-.163.252-.166.26c-.11.173-.22.351-.334.536l-.085.14c-.136.222-.276.455-.417.693l-.162.277a42.235 42.235 0 0 0-.396.692l-.247.44-.075.136-.154.28-.155.284a.035.035 0 0 0-.008.016l.446.015c-.008-.004-.016-.005-.026-.01.535.013 1.29-.278 1.812-.697.24-.193.466-.427.686-.71a6.67 6.67 0 0 0 .48-.712c.137-.23.275-.483.41-.758-.13.045-.275.07-.433.081l-.084.005h-.087c.519-.115.88-.433 1.17-.847a1.835 1.835 0 0 1-.628.173c-.033.003-.07.003-.106.003h-.027a2 2 0 0 0 .532-.215l.028-.018c.043-.027.083-.058.124-.088l.076-.061c.057-.05.113-.106.164-.168l.032-.038a.308.308 0 0 0 .015-.02l.041-.057a5.017 5.017 0 0 0 .216-.333l.023-.039a3.98 3.98 0 0 0 .08-.141l.027-.052.04-.083c.01-.017.017-.034.024-.05l.012-.028.02-.05a1.11 1.11 0 0 0 .016-.043l.006-.018a.328.328 0 0 1-.04.02l-.023.01a2.13 2.13 0 0 1-.636.118c-.003 0-.005-.001-.008.001h-.042l-.023.002.012-.004-1.401-.052c0 .011-.003.016-.006.018"/>
  <path d="m11.467 3.203-.155.179-.11.128-.113.136-.137.165a19.615 19.615 0 0 0-.25.314l-.125.162-.064.084-.181.24-.118.158c-.06.08-.121.164-.183.25l-.063.086a20.58 20.58 0 0 0-.19.267l-.13.185-.134.192 1.402.052c.428-.126.632-.266.842-.483a4.24 4.24 0 0 0 .127-.14l.043-.05c.174-.2.349-.422.507-.646a7.08 7.08 0 0 0 .404-.629c.071-.126.13-.243.176-.347.039-.092.071-.18.1-.264l-.145.003-.15.001h-.382l-.153-.003-.15-.003-.074-.002-.144-.006a12.7 12.7 0 0 1-.07-.003l-.136-.007a7.135 7.135 0 0 1-.244-.019"/>
</svg>
