<svg xmlns="http://www.w3.org/2000/svg" fill-rule="evenodd" fill="#000" viewBox="0 0 16 16">
  <path d="M 14.915491,1.8 A 19.842018,19.842018 0 0 1 10.015517,3.3761211 C 7.816724,3.6612751 3.623412,3.9464281 2.790764,3.7452651 A 12.080139,12.080139 0 0 1 1.3629226,3.3087211 L 1.5360886,3.8956191 1,4.3648261 l 0.094878,0.167463 0.2198275,0.01659 0.6739992,0.08399 0.094878,0.301745 0.376921,0.03422 0.18872,0.63667 c 0,0 0.800504,0.0674 1.036922,0.0674 0.236418,0 0.706662,-0.03318 0.706662,-0.03318 l 0.01555,0.251454 0.173166,0.03318 v 0.285154 l -0.37744,0.335963 0.09488,0.01659 v 0.116654 a 8.1999778,8.1999778 0 0 1 -1.19246,0.01763 c -0.345295,-0.05185 -0.408548,-0.05185 -0.408548,-0.05185 l -0.03111,0.03318 -0.01555,0.150872 h 0.07829 l 0.03111,0.654298 1.743584,-0.0674 -0.125986,2.263082 -0.01555,0.284635 -1.476576,-0.08399 -0.01555,-0.603488 h 0.329223 l 0.03163,-0.234863 0.298115,-0.0674 0.04718,-0.06636 -1.11521,-0.268563 -0.848202,0.251454 0.1415398,0.117691 h 0.1415398 l 0.015554,0.201681 0.2981154,0.01659 v 0.588971 l -0.329223,0.08399 0.062734,0.1332439 0.078287,0.05185 v 0.452617 h 0.204274 v 2.0951 l -0.3302595,0.05185 0.04718,0.603489 0.2037555,0.03422 -0.03111,1.37444 0.895382,0.01659 -0.18872,-1.357849 1.350591,-0.03318 -0.09384,0.737252 -0.125986,0.518461 1.366145,0.01659 0.01555,-1.34074 0.942043,-0.08399 -0.04666,0.854942 -0.03163,0.502388 h 0.80154 l -0.03163,-1.374439 0.110432,0.01763 0.03111,-0.654297 h -0.125986 l -0.04666,-0.268563 -0.07881,-0.772507 0.03111,-0.888123 h 0.172647 v -0.538163 l -0.219827,0.01659 0.03163,-0.6325219 0.255601,-0.0254 0.01192,-0.207384 0.145169,-0.02126 0.148798,-0.113025 -0.894863,-0.183016 -0.887605,0.196496 0.08658,0.142058 0.09384,-0.0078 0.109395,-0.0041 0.02022,0.25923 0.247306,-0.01192 0.0047,0.5609739 -1.0644,-0.02437 0.03577,-0.599341 0.03474,-0.544902 v -0.715477 l 0.03007,-0.75436 2.131393,-0.108877 2.536311,-0.146206 0.02385,0.48165 -0.09021,1.156687 -0.03889,1.076324 -0.933229,-0.01659 -0.0047,-0.754361 0.345813,-0.01244 0.01555,-0.213087 0.14154,-0.02126 -0.0073,-0.042 0.14154,-0.0078 0.07829,-0.103692 -1.056105,-0.251453 -1.05455,0.228122 0.07466,0.130134 0.11769,-0.0088 v 0.0591 h 0.145169 v 0.238492 l 0.311077,0.0041 -0.0036,0.662074 h -0.313669 l -0.0047,0.150872 0.110432,0.01244 -0.01192,0.5744549 0.231752,0.01244 -0.02748,2.276044 -0.30641,0.06222 0.0036,0.108877 h 0.106803 v 0.58275 h 0.176276 l -0.04666,0.796356 -0.05807,0.694737 1.11521,0.02903 -0.03577,-0.603488 -0.08192,-0.502389 -0.01607,-0.436026 0.946709,-0.01659 -0.02748,0.673999 -0.0047,0.712365 0.5345333,0.042 0.725845,-0.02903 0.228123,-0.0674 -0.125986,-0.381588 -0.03111,-0.59934 -0.0591,-0.427212 0.903159,-0.03318 -0.0394,0.523646 -0.0036,0.82176 0.362922,0.03318 0.357738,-0.0078 0.172648,-0.05444 -0.103692,-0.777692 -0.03474,-0.587416 0.155538,-0.01659 v -0.525201 l 0.04303,-0.0088 -0.0073,-0.113025 H 12.78358 l -0.03577,-0.385735 -0.01504,-1.669962 0.133245,-0.0041 v -0.54905 l 0.05547,0.0088 V 9.9393191 l -0.197015,-0.01763 0.0047,-0.63667 0.329223,-0.02903 -0.01918,-0.214124 0.145169,-0.01244 -0.0083,-0.042 0.192349,-0.09643 -0.977818,-0.196497 -0.993371,0.201681 0.06273,0.117173 0.155538,-0.01244 0.0083,0.05185 h 0.129615 l 0.0073,0.251453 0.321964,-0.0041 0.02748,0.615932 -1.140614,-0.0088 -0.133245,-0.925971 -0.106803,-0.490464 -0.08606,-0.881384 0.05185,-0.514831 2.269303,-0.172129 0.0073,-0.766804 0.114061,-0.02903 -0.0073,-0.116653 -0.08658,-0.05185 c 0,0 -1.240677,0.184054 -1.63367,0.226049 l -0.192349,0.02074 -0.01192,-0.142058 -0.469207,-0.245751 0.0057,-0.28619 0.161241,-0.0047 0.01192,-0.393511 a 12.86146,12.86146 0 0 0 1.318964,-0.146725 c 0.35722,-0.08399 0.863756,-0.167463 0.863756,-0.167463 l 0.241085,-0.65015 0.475428,-0.138429 0.0394,-0.108876 1.075288,-0.297597 0.122357,-0.100581 -0.408547,-0.89279 0.0394,-0.201681 0.207384,-0.1088772 0.149317,-0.4567641 z m -5.166982,3.4005851 -0.0057,0.324557 0.243677,0.01037 -0.01555,0.307966 -0.477502,0.311076 -0.02955,0.09021 h 0.192349 v 0.0757 l -1.458949,0.07103 0.0099,-0.21568 0.06636,-0.107321 0.0047,-0.06896 v -0.14828 l 0.04148,-0.09851 0.01555,-0.07984 v -0.05703 l 0.06273,-0.251453 z m -3.051142,0.27634 -0.03577,0.218272 0.114062,0.134281 -0.0073,0.234863 0.103692,0.163315 -0.02748,0.192868 0.07829,0.113024 -1.488501,0.05859 -0.0036,-0.05185 0.172647,-0.02126 0.0083,-0.06325 -0.376921,-0.204792 -0.02022,-0.327149 0.180424,-0.0088 0.01555,-0.352553 z m 2.20294,5.0290709 0.903159,0.05859 -0.03111,1.220457 0.11769,0.997 -0.957597,-0.03577 z m -6.046809,0.05185 1.445469,0.07518 -0.125986,0.840944 v 0.704588 l 0.103692,0.393512 -1.413843,0.0674 z m 9.250898,0.0078 v 2.079028 l -0.918713,0.0674 -0.03163,-1.0981 -0.103692,-1.022924 z m -6.956709,0.0477 1.06803,0.0041 0.01089,1.927637 -0.997518,0.01763 -0.05185,-0.624745 -0.0036,-0.622154 z" />
</svg>
