<svg xmlns="http://www.w3.org/2000/svg" fill-rule="evenodd" fill="#000" viewBox="0 0 16 16">
  <path d="M 1.7299746,2.001706 A 0.73959808,0.73815034 0 0 0 1.4137921,2.097342 0.73959808,0.73815034 0 0 0 1.0371056,2.7375139 L 1.0019746,8.253142 A 0.73959808,0.73815034 0 0 0 2.1066615,8.9011207 L 6.9079511,6.1764864 a 0.73959808,0.73815034 0 0 0 0.00781,-1.2764402 L 2.1574098,2.1031972 A 0.73959808,0.73815034 0 0 0 1.7299779,2.0017065 Z m 7.1921757,2.8358837 a 0.67439896,0.67439896 0 0 0 -0.6792068,0.6713998 0.67439896,0.67439896 0 0 0 0.663593,0.6792069 l 5.4160885,0.050745 A 0.67439896,0.67439896 0 0 0 14.999881,5.5753488 0.67439896,0.67439896 0 0 0 14.336288,4.8883352 Z M 6.6054307,7.6695698 A 0.68201121,0.68201121 0 0 0 5.9203685,8.3487767 0.68201121,0.68201121 0 0 0 6.5976236,9.0338389 l 7.7171944,0.037083 A 0.68201121,0.68201121 0 0 0 14.999881,8.3936669 0.68201121,0.68201121 0 0 0 14.322625,7.7066532 Z M 1.6928915,10.503502 a 0.68927599,0.68927599 0 0 0 -0.6928691,0.685062 0.68927599,0.68927599 0 0 0 0.6850621,0.692869 l 12.6219275,0.02342 a 0.68927599,0.68927599 0 0 0 0.692869,-0.687014 0.68927599,0.68927599 0 0 0 -0.685063,-0.692869 z m 0,2.83198 a 0.68927599,0.68927599 0 0 0 -0.6928691,0.685062 0.68927599,0.68927599 0 0 0 0.6850621,0.694821 l 12.6219275,0.02147 a 0.68927599,0.68927599 0 0 0 0.692869,-0.685062 0.68927599,0.68927599 0 0 0 -0.685063,-0.694821 z" />
</svg>
