<svg xmlns="http://www.w3.org/2000/svg" fill-rule="evenodd" fill="#000" viewBox="0 0 16 16">
  <path d="M 0.49029559,5.0002352 C 0.21681823,5.0157335 0,5.2686594 0,5.5803655 V 11.389832 C 0,11.711591 0.2297356,11.97 0.51568959,11.97 H 15.484333 C 15.770289,11.97 16,11.711591 16,11.389832 V 5.5803655 C 16,5.2586064 15.770254,5.0002352 15.484333,5.0002352 H 0.51568959 c -0.008935,0 -0.016577,-5.292e-4 -0.025394,0 z M 12.540587,6.1781107 c 0.106333,0 0.210319,0.010847 0.312529,0.031258 0.106371,0.016365 0.206804,0.048613 0.30085,0.097676 0.09408,0.044981 0.180155,0.1059163 0.257832,0.1836366 0.07772,0.073597 0.138652,0.1578937 0.183632,0.2519798 0.04907,0.094048 0.08482,0.1944842 0.109357,0.3008201 0.02453,0.10225 0.03712,0.2062425 0.03712,0.3125368 v 0.00586 H 13.06215 v -0.00586 c 0,-0.073597 -0.01081,-0.1453075 -0.03126,-0.2148601 C 13.01048,7.0675609 12.9782,7.0030732 12.93322,6.9458044 12.88824,6.8844544 12.829121,6.8396235 12.755484,6.811008 c -0.06951,-0.02865 -0.141298,-0.04294 -0.214893,-0.04294 -0.05318,0 -0.108752,0.00707 -0.166015,0.023434 -0.05319,0.016328 -0.09975,0.04328 -0.140655,0.080064 -0.0409,0.036814 -0.07681,0.079837 -0.105461,0.128938 -0.02861,0.049067 -0.05005,0.101154 -0.06641,0.1543409 -0.01633,0.053149 -0.02891,0.1067894 -0.03712,0.1640545 -0.0041,0.053149 -0.0059,0.1088304 -0.0059,0.1660576 v 1.994412 c 0,0.081802 0.0053,0.1623914 0.01758,0.2441938 0.01637,0.081802 0.04328,0.1607661 0.08006,0.2344044 0.04094,0.069515 0.0965,0.1269348 0.166053,0.1719198 0.0736,0.04499 0.150671,0.06642 0.232434,0.06642 0.08588,0 0.166658,-0.01966 0.240295,-0.06056 0.07768,-0.04499 0.138614,-0.102401 0.183594,-0.1719196 0.04498,-0.069515 0.07371,-0.1485202 0.08596,-0.2344045 0.01637,-0.085884 0.02343,-0.1682499 0.02343,-0.2500522 V 8.8347568 H 12.558164 V 8.2468019 h 1.172025 v 1.2325734 c 0,0.1144998 -0.0053,0.2293021 -0.01757,0.3437981 -0.01225,0.1104178 -0.04097,0.2179596 -0.08596,0.3242956 -0.04498,0.102212 -0.109621,0.193652 -0.191418,0.275417 -0.07768,0.0818 -0.167301,0.151771 -0.269552,0.209002 -0.09817,0.05319 -0.202118,0.09269 -0.312567,0.117221 -0.110377,0.02453 -0.223434,0.03712 -0.337931,0.03712 -0.110415,0 -0.219693,-0.01432 -0.330108,-0.04298 -0.106336,-0.02453 -0.208508,-0.06585 -0.306674,-0.12308 -0.09405,-0.05727 -0.178378,-0.127199 -0.251973,-0.209002 -0.06955,-0.08588 -0.126932,-0.179063 -0.171916,-0.281275 C 11.40954,10.027642 11.37907,9.9199452 11.3627,9.8095274 11.34637,9.6990717 11.33734,9.5897915 11.33734,9.4793737 V 7.484963 c 0,-0.1104178 0.009,-0.219698 0.02536,-0.3301159 0.01636,-0.1145376 0.0468,-0.223969 0.09182,-0.3262228 0.04498,-0.1022124 0.104175,-0.1954292 0.177774,-0.2813135 0.07772,-0.089966 0.165562,-0.1617111 0.263694,-0.2148601 0.09817,-0.057268 0.202118,-0.096769 0.312529,-0.1172212 0.110415,-0.02453 0.221658,-0.037116 0.332073,-0.037116 z M 2.185816,6.2269494 h 0.9571477 c 0.1267774,0 0.2504058,0.010809 0.373093,0.031258 0.1267775,0.020447 0.2468527,0.058175 0.3613864,0.1113627 0.114497,0.053187 0.2204107,0.1229284 0.3144566,0.2128947 0.094084,0.085884 0.1693456,0.1863202 0.2266092,0.3008578 0.061349,0.110418 0.1026255,0.2287352 0.1230765,0.3555188 0.024567,0.1227015 0.03515,0.248238 0.03515,0.3750216 v 1.73661 c 0,0.1267837 -0.010583,0.2541342 -0.03515,0.3809196 -0.020409,0.1226639 -0.061727,0.241019 -0.1230765,0.3555184 -0.057267,0.110418 -0.1325254,0.210854 -0.2266092,0.30082 -0.094046,0.08592 -0.1999596,0.153925 -0.3144566,0.207074 -0.1145337,0.05319 -0.2346089,0.09087 -0.3613864,0.111325 -0.1226872,0.02041 -0.2463156,0.03126 -0.373093,0.03126 H 2.185816 Z m 0.6797679,0.5899584 v 3.3305602 h 0.2773799 c 0.069522,0 0.1375351,-0.0053 0.2070569,-0.01758 0.069522,-0.01633 0.1341785,-0.0415 0.1914304,-0.07424 C 3.6027961,10.02296 3.6546846,9.9816752 3.6996704,9.9325744 3.7487464,9.8794251 3.7882734,9.8220432 3.816888,9.7606924 3.845499,9.6952598 3.86516,9.6289953 3.877443,9.5594767 3.889689,9.489924 3.896945,9.4199935 3.896945,9.350475 V 7.613864 c 0,-0.069515 -0.00726,-0.139487 -0.019502,-0.2090018 C 3.8651601,7.3353097 3.8455065,7.2708596 3.816888,7.2095088 3.7882769,7.144076 3.7487461,7.0867316 3.6996704,7.0376267 3.6546846,6.9844776 3.6027966,6.9414241 3.5414511,6.9086888 3.4841992,6.8759949 3.4195424,6.8526294 3.3500207,6.8403456 3.2804989,6.8239799 3.2124856,6.816912 3.1429638,6.816912 Z m 3.5179959,0.6621961 c 0.013833,-4.537e-4 0.027213,0 0.041049,0 0.1104151,0 0.2196926,0.014362 0.3301077,0.042978 0.1104152,0.02453 0.2144013,0.064035 0.3125292,0.1171834 0.098166,0.053186 0.1879408,0.1211897 0.2656592,0.207074 0.077681,0.081802 0.138652,0.1751326 0.1836321,0.2773827 0.049066,0.098168 0.081271,0.2038992 0.097637,0.3183953 0.020409,0.1104178 0.031257,0.2216633 0.031257,0.3320813 v 0.7345092 c 0,0.1104557 -0.010847,0.2234399 -0.031257,0.3379397 -0.016365,0.1104556 -0.048533,0.2161825 -0.097637,0.3183955 -0.044984,0.09817 -0.1059515,0.191498 -0.1836321,0.277382 -0.073633,0.0818 -0.159704,0.148029 -0.2578318,0.201216 -0.098166,0.05315 -0.2058596,0.09087 -0.3203566,0.111325 -0.1104151,0.02045 -0.2196926,0.03126 -0.3301077,0.03126 -0.1104529,0 -0.2234343,-0.01081 -0.3379313,-0.03126 C 5.9762828,10.734556 5.8722966,10.696828 5.7741309,10.643641 5.6760031,10.590492 5.5881555,10.524228 5.5104371,10.442425 5.4368421,10.356541 5.3758708,10.265101 5.326805,10.167008 5.2818248,10.06472 5.2476503,9.9570615 5.2272031,9.8466475 5.2108377,9.7321099 5.20377,9.6191257 5.20377,9.5087078 V 8.7741997 c 0,-0.1104179 0.00707,-0.2216635 0.023433,-0.3320813 C 5.2476503,8.3276185 5.281787,8.2218912 5.326805,8.1237231 5.3758708,8.0214731 5.4385807,7.9281429 5.5162954,7.8463405 5.593976,7.7604562 5.6818198,7.6924532 5.7799892,7.6392664 5.8781171,7.5861174 5.9821448,7.5466165 6.0925561,7.522083 6.1891344,7.4970241 6.2868087,7.482242 6.383576,7.479105 Z m 3.0492083,0.017575 c 0.013833,-3.406e-4 0.027213,0 0.041012,0 0.1063332,0 0.2103571,0.010847 0.3125669,0.031258 0.1063332,0.016365 0.2067666,0.046795 0.300812,0.091818 0.09408,0.044985 0.176414,0.1041022 0.250008,0.1777405 0.07772,0.073597 0.142394,0.1578937 0.191456,0.2519798 0.04907,0.089966 0.08486,0.1886257 0.109395,0.2949617 0.02449,0.1022122 0.03708,0.2044661 0.03708,0.3067161 V 8.662869 H 9.9933994 v -0.00586 c 0,-0.073597 -0.01062,-0.1453831 -0.03515,-0.2148979 C 9.9378025,8.3725986 9.903628,8.309925 9.8586479,8.2526562 9.8136262,8.1953874 9.7562491,8.1541479 9.6867323,8.1295766 9.6171814,8.1009648 9.5474,8.0865986 9.4738051,8.0865986 c -0.0818,0 -0.1608001,0.019654 -0.2343988,0.060557 -0.073633,0.036814 -0.1327521,0.090684 -0.1777361,0.1601991 -0.040898,0.065433 -0.069626,0.1389163 -0.085958,0.2207186 -0.016365,0.081802 -0.023433,0.1643191 -0.023433,0.2461214 v 0.7345092 c 0,0.081802 0.00707,0.164319 0.023433,0.2461214 0.016328,0.081802 0.04506,0.1570243 0.085958,0.2265769 0.044984,0.065432 0.1040996,0.1192998 0.1777361,0.1601988 0.073595,0.03681 0.1525984,0.0547 0.2343988,0.0547 0.073595,0 0.1433763,-0.01259 0.2129272,-0.03712 0.069513,-0.02865 0.1269317,-0.07171 0.1719156,-0.128938 0.04498,-0.057268 0.079151,-0.1199415 0.099602,-0.1894563 0.024529,-0.069553 0.03515,-0.1413011 0.03515,-0.214898 v -0.00586 h 0.6817211 v 0.00586 0.00586 c 0,0.1022501 -0.01259,0.2062048 -0.03708,0.3125368 -0.02457,0.1022495 -0.06033,0.2009505 -0.109394,0.2949995 -0.0491,0.08997 -0.113779,0.172486 -0.191457,0.246121 -0.07363,0.0736 -0.155962,0.132755 -0.250007,0.17774 -0.094047,0.04499 -0.1944802,0.07549 -0.3008134,0.09182 -0.1022475,0.02045 -0.2062753,0.03126 -0.3125669,0.03126 -0.1104151,0 -0.221658,-0.01081 -0.3320731,-0.03126 C 9.0312802,10.734556 8.9273696,10.696828 8.829204,10.643641 8.735158,10.58641 8.6490868,10.518369 8.5713722,10.436567 8.4977734,10.350683 8.4368437,10.257352 8.38774,10.159184 8.3427599,10.056972 8.3123309,9.951241 8.2959618,9.8407891 8.2796342,9.7303712 8.2705633,9.6191257 8.2705633,9.5087078 V 8.7741997 c 0,-0.1104179 0.00907,-0.2216635 0.025399,-0.3320813 C 8.3123271,8.3317005 8.3427599,8.2277119 8.38774,8.1295815 8.4368437,8.0273314 8.4977772,7.9359289 8.5713722,7.8541643 8.6490906,7.76828 8.735158,7.6982739 8.829204,7.6451249 8.9273696,7.587856 9.031284,7.548393 9.1417331,7.5279415 9.2383492,7.5100638 9.3360235,7.4990273 9.4327908,7.496684 Z M 6.3875109,8.086602 C 6.3161839,8.090912 6.2464778,8.111359 6.1784765,8.14716 6.1048815,8.183974 6.0457244,8.237844 6.0007405,8.3073591 c -0.044984,0.065433 -0.075485,0.1389163 -0.091816,0.2207186 -0.016365,0.081802 -0.025398,0.1643191 -0.025398,0.2461214 v 0.7345092 c 0,0.081802 0.00903,0.164319 0.025398,0.2461214 0.016328,0.081802 0.046832,0.1570243 0.091816,0.2265769 0.049066,0.069515 0.1099615,0.1233814 0.1835943,0.1601984 0.077681,0.03681 0.1584945,0.0547 0.2402948,0.0547 0.081762,0 0.1588346,-0.01788 0.2324334,-0.0547 0.077718,-0.03681 0.138652,-0.09068 0.1836321,-0.1601984 0.049066,-0.069553 0.083237,-0.1447784 0.099602,-0.2265769 0.016328,-0.081802 0.023433,-0.164319 0.023433,-0.2461214 V 8.7741997 c 0,-0.081802 -0.00711,-0.1643191 -0.023433,-0.2461214 C 6.9239316,8.442194 6.8897572,8.3669342 6.8406951,8.3015014 6.795715,8.2319488 6.7347814,8.1781194 6.657063,8.1413021 6.5793861,8.1044886 6.5005716,8.0866035 6.4187713,8.0866035 c -0.010243,0 -0.02109,-6.051e-4 -0.031257,0 z" />
</svg>
