<svg xmlns="http://www.w3.org/2000/svg" fill-rule="evenodd" fill="#000" viewBox="0 0 16 16">
  <path d="m7.177 1.277c0.061 0 0.123-0.023 0.169-0.07l0.389-0.389v2.216c0 0.132 0.107 0.239 0.239 0.239s0.239-0.107 0.239-0.239v-2.216l0.389 0.389c0.047 0.047 0.108 0.07 0.169 0.07s0.123-0.023 0.169-0.07c0.094-0.093 0.094-0.245 0-0.339l-0.795-0.798c-0.023-0.022-0.049-0.04-0.079-0.052-1e-3 0-2e-3 -1e-3 -4e-3 -1e-3 -0.027-0.011-0.056-0.017-0.087-0.017s-0.06 6e-3 -0.087 0.017c-1e-3 0-2e-3 1e-3 -4e-3 1e-3 -0.03 0.012-0.056 0.03-0.079 0.052l-0.798 0.798c-0.094 0.093-0.094 0.245 0 0.339 0.047 0.047 0.108 0.07 0.17 0.07zm-3.704 9.128-1.87 0.983 0.146-0.573c0.033-0.128-0.045-0.259-0.173-0.291-0.129-0.032-0.258 0.045-0.291 0.173l-0.278 1.094c-1e-3 5e-3 -1e-3 0.01-2e-3 0.015-2e-3 9e-3 -4e-3 0.017-5e-3 0.026v0.023c0 8e-3 0 0.016 1e-3 0.023 1e-3 8e-3 3e-3 0.016 4e-3 0.023 2e-3 7e-3 3e-3 0.015 6e-3 0.022 3e-3 8e-3 6e-3 0.016 0.01 0.024 2e-3 5e-3 3e-3 0.01 6e-3 0.014 1e-3 1e-3 2e-3 3e-3 3e-3 4e-3 1e-3 2e-3 2e-3 5e-3 3e-3 7e-3 9e-3 0.015 0.019 0.028 0.031 0.041l9e-3 9e-3c0.011 0.011 0.023 0.02 0.036 0.029 4e-3 3e-3 9e-3 6e-3 0.014 8e-3 0.011 6e-3 0.022 0.011 0.034 0.015 4e-3 2e-3 8e-3 3e-3 0.013 4e-3 2e-3 1e-3 4e-3 2e-3 7e-3 3e-3 1e-3 0 2e-3 1e-3 3e-3 1e-3l1.094 0.278c0.02 5e-3 0.04 7e-3 0.059 7e-3 0.107 0 0.204-0.072 0.232-0.18 0.033-0.128-0.045-0.258-0.173-0.291l-0.49-0.125 1.793-0.942c0.117-0.062 0.162-0.206 0.101-0.323s-0.206-0.162-0.323-0.101zm11.527 1.434c0-3e-3 -1e-3 -6e-3 -1e-3 -9e-3 -1e-3 -8e-3 -2e-3 -0.016-4e-3 -0.024-1e-3 -5e-3 -1e-3 -0.01-2e-3 -0.015l-0.278-1.094c-0.033-0.128-0.163-0.205-0.291-0.173-0.128 0.033-0.206 0.163-0.173 0.291l0.147 0.578-1.922-0.989c-0.118-0.06-0.262-0.014-0.323 0.103-0.061 0.118-0.014 0.262 0.103 0.323l1.833 0.943-0.482 0.123c-0.128 0.033-0.206 0.163-0.173 0.291 0.028 0.108 0.125 0.18 0.232 0.18 0.019 0 0.039-2e-3 0.059-7e-3l1.094-0.278c1e-3 0 2e-3 -1e-3 3e-3 -1e-3 3e-3 -1e-3 5e-3 -2e-3 7e-3 -3e-3 0.017-5e-3 0.032-0.012 0.047-0.02 4e-3 -2e-3 8e-3 -5e-3 0.013-8e-3 0.014-9e-3 0.027-0.019 0.039-0.031 2e-3 -2e-3 5e-3 -4e-3 7e-3 -7e-3 0.014-0.015 0.025-0.031 0.034-0.049 1e-3 -2e-3 2e-3 -3e-3 3e-3 -4e-3 2e-3 -4e-3 3e-3 -9e-3 5e-3 -0.013 4e-3 -8e-3 7e-3 -0.016 0.01-0.024 2e-3 -7e-3 4e-3 -0.014 5e-3 -0.021 2e-3 -8e-3 3e-3 -0.016 4e-3 -0.024s1e-3 -0.015 1e-3 -0.023c2e-3 -5e-3 3e-3 -0.01 3e-3 -0.015zm-4.47-6.598-1.916-0.958v-0.69h-1.278v0.69l-1.916 0.958v-0.052h-1.277v1.277h0.399v2.714h-0.399v1.277h1.277v-0.051l1.916 0.958v0.69h1.277v-0.69l1.916-0.958v0.051h1.277v-1.276h-0.399v-2.715h0.399v-1.277h-1.276v0.052zm-3.194-0.423v0.052h1.277v-0.052l1.916 0.958v0.103l-1.915 0.958v-0.051h-1.278v0.052l-1.916-0.959v-0.103l1.916-0.958zm-1.916 5.053v-0.69h-0.399v-2.715h0.399v-0.051l1.916 0.958v0.69h0.399v2.714h-0.399v0.051l-1.916-0.957zm5.509-0.69h-0.399v0.69l-1.916 0.958v-0.051h-0.4v-2.715h0.399v-0.69l1.916-0.958v0.051h0.399l1e-3 2.715z"/>
</svg>
