<svg xmlns="http://www.w3.org/2000/svg" fill="#000" viewBox="0 0 16 16">
	<path d="m 8.382654,3.3443157 c 0,-1.357286 -1.10411,-2.461382 -2.461382,-2.461382 -1.430408,0 -2.285556,1.072456 -2.285556,2.109744 h 1.406496 c 0,-0.291844 0.27286,-0.703248 0.87906,-0.703248 0.581588,0 1.054872,0.473298 1.054872,1.054886 0,0.581588 -0.424522,1.054872 -1.49506,1.054872 H 1.651622 v 1.406496 h 3.829462 c 1.806798,0 2.90157,-1.104096 2.90157,-2.461368 z m 0,0 c 0,-1.357286 -1.10411,-2.461382 -2.461382,-2.461382 -1.430408,0 -2.285556,1.072456 -2.285556,2.109744 h 1.406496 c 0,-0.291844 0.27286,-0.703248 0.87906,-0.703248 0.581588,0 1.054872,0.473298 1.054872,1.054886 0,0.581588 -0.424522,1.054872 -1.49506,1.054872 H 1.651622 v 1.406496 h 3.829462 c 1.806798,0 2.90157,-1.104096 2.90157,-2.461368 z" />
	<path d="m 11.50296,12.421552 c 0,1.357342 -1.10411,2.461382 -2.461382,2.461382 -1.430408,0 -2.28557,-1.0724 -2.28557,-2.109744 h 1.40651 c 0,0.291844 0.27286,0.703304 0.87906,0.703304 0.581588,0 1.054872,-0.47334 1.054872,-1.054942 0,-0.581588 -0.534828,-1.054872 -1.49506,-1.054872 H 4.351928 V 9.9601837 H 8.60139 c 1.806798,0 2.90157,1.1040963 2.90157,2.4613683 z m 0,0 c 0,1.357342 -1.10411,2.461382 -2.461382,2.461382 -1.430408,0 -2.28557,-1.0724 -2.28557,-2.109744 h 1.40651 c 0,0.291844 0.27286,0.703304 0.87906,0.703304 0.581588,0 1.054872,-0.47334 1.054872,-1.054942 0,-0.581588 -0.534828,-1.054872 -1.49506,-1.054872 H 4.351928 V 9.9601837 H 8.60139 c 1.806798,0 2.90157,1.1040963 2.90157,2.4613683 z" />
	<path d="m 11.871622,3.0529337 c -1.551368,0 -2.64572,1.179766 -2.64572,2.731134 h 1.24572 c 0,-0.771134 0.56,-1.331134 1.4,-1.331134 0.84,0 1.26,0.56 1.26,1.331134 0,0.771134 -0.545496,1.406496 -2.03,1.406496 h -9.45 v 1.40651 h 9.66 c 2.19842,0 3.22,-1.413006 3.22,-2.813006 0,-1.551368 -1.05,-2.731134 -2.66,-2.731134 z" />
	<path d="M 3.495436,9.9601837 H 1.651622 v 1.4183123 h 1.843814 z" />
</svg>
