<svg xmlns="http://www.w3.org/2000/svg" fill-rule="evenodd" fill="#000" viewBox="0 0 500 500">
  <path
     d="M 318.422,453.543 463.705,49.541 c 2.463,-6.852 -1.42,-11.848 -8.668,-11.149 L 340.786,49.398 c -7.247,0.699 -15.076,6.848 -17.47,13.723 L 188.843,449.216 c -2.396,6.875 1.571,12.457 8.852,12.457 h 111.206 c 3.64,0 7.596,-2.78 8.828,-6.207 z"
     fill="#536b8a" />
  <path
     d="m 44.963,38.392 114.251,11.006 c 7.247,0.699 15.084,6.845 17.49,13.717 l 137.318,392.333 c 1.202,3.437 -0.777,6.225 -4.418,6.225 H 197.695 c -7.281,0 -15.193,-5.562 -17.657,-12.414 L 36.295,49.541 c -2.463,-6.852 1.42,-11.848 8.668,-11.149 z"
     fill="#5d87bf" />
</svg>
