<svg xmlns="http://www.w3.org/2000/svg" fill-rule="evenodd" fill="#000" viewBox="0 0 16 16">
  <path d="M13.892 9.154a3.896 3.896 0 0 0-.644-.972l-.412-.36c-.068-.06-.08-.12-.016-.176a3.184 3.184 0 0 0 .824-1.068 3.68 3.68 0 0 0 .292-1.08 2.716 2.716 0 0 0 0-.612q-.064-.692-.144-.92-.052-.208-.104-.36c-.44-1.132-1.452-1.892-2.108-2.28a5.532 5.532 0 0 0-.62-.252A6.532 6.532 0 0 0 9.84.818a5.888 5.888 0 0 0-.848-.08H1.684v3.34h7.104a3.136 3.136 0 0 1 .696.08c.304.064.564.192.708.488a1.464 1.464 0 0 1 .088.46v.336a.788.788 0 0 1-.224.424 1.36 1.36 0 0 1-.848.3c-.544.04-1.092.008-1.64.016H1.684v9.08h3.34c.104 0 .12-.04.12-.136v-5.42c0-.292 0-.292.288-.292h3.596a2.296 2.296 0 0 1 1.144.248.032.032 0 0 0 .02 0l.116.108a1.16 1.16 0 0 1 .304 1.272 1.128 1.128 0 0 1-.392.508 1.952 1.952 0 0 1-1.032.328c-.456.008-.912 0-1.368 0-.116 0-.148.04-.148.144v2.952c0 .28 0 .292.284.28a16.156 16.156 0 0 0 1.82-.052q.944-.132 1.608-.32a.476.476 0 0 0 .028-.012 4.864 4.864 0 0 0 1.376-.716 2.6 2.6 0 0 0 .648-.64.204.204 0 0 0 .04-.04 3.528 3.528 0 0 0 .648-1.3 7.072 7.072 0 0 0 .168-.84 3.788 3.788 0 0 0-.4-2.176zm-6.496-5.22"/>
</svg>
