<svg xmlns="http://www.w3.org/2000/svg" fill-rule="evenodd" fill="#000" viewBox="0 0 16 16">
  <path d="M 15.8778 3.74 L 4.26803 3.74 C 3.41693 3.73917 2.64559 4.2409 2.30134 5.01928 L 0.00944896 10.5401 C -0.00628531 10.5774 -0.00218364 10.6201 0.0203591 10.6536 C 0.0429019 10.6872 0.0808515 10.7072 0.121303 10.7068 L 5.3636 10.7068 C 5.73398 10.7068 5.89843 10.3482 5.60805 10.0616 L 3.68284 8.25859 C 2.67097 7.26672 3.10505 4.96669 5.20656 4.96669 L 15.4697 4.96669 C 15.5212 4.96684 15.5672 4.93448 15.5845 4.88594 L 15.9904 3.90445 C 15.9964 3.88989 15.9995 3.87427 15.9993 3.85852 C 15.9981 3.79242 15.944 3.73958 15.8778 3.74 Z" />
  <path d="M 14.7208 6.54967 L 12.7496 6.54967 C 12.6205 6.54855 12.5035 6.62549 12.4533 6.74449 L 10.2452 12.0779 C 10.2359 12.095 10.2311 12.1141 10.2311 12.1335 C 10.2313 12.1653 10.2441 12.1957 10.2668 12.2181 C 10.2894 12.2405 10.32 12.2529 10.3518 12.2527 L 11.0874 12.2527 C 11.9522 12.2574 12.7355 11.743 13.0748 10.9475 L 13.0748 10.9475 L 14.8297 6.71116 C 14.8353 6.69699 14.8383 6.68194 14.8386 6.66671 C 14.8378 6.60212 14.7854 6.55007 14.7208 6.54967 Z" />
  <path d="M 10.8467 6.66967 C 10.8465 6.63765 10.8335 6.60702 10.8108 6.58451 C 10.788 6.56201 10.7572 6.54948 10.7252 6.54967 L 5.13693 6.54967 C 4.83397 6.54967 4.56878 6.92005 4.88952 7.21635 L 6.73548 8.93563 C 6.73548 8.93563 7.4829 9.62453 7.32289 10.6105 C 7.18511 11.4786 6.59251 12.0098 6.16065 12.2009 L 6.16065 12.2009 C 6.14708 12.2063 6.13951 12.2209 6.14284 12.2351 C 6.14617 12.2494 6.1594 12.259 6.17399 12.2579 L 8.32587 12.2579 C 8.45506 12.2592 8.57219 12.1822 8.62217 12.0631 L 10.837 6.7119 C 10.8435 6.69878 10.8468 6.68431 10.8467 6.66967 Z" />
</svg>
