<svg xmlns="http://www.w3.org/2000/svg" fill-rule="evenodd" fill="#000" viewBox="0 0 16 16">
  <path d="m 2.4986236,8.4264845 5.17313,-7.23144 c 0.2348,-0.26791996 0.5301,-0.26384996 0.7414,0.0372 l 5.0023304,7.0814 c 0.17635,0.26096 0.16843,0.50172 -0.10393,0.64865 l -1.79186,1.0428605 c -0.574,-0.6531705 -1.43899,-0.6531705 -1.9691504,-0.1044105 l -1.9997,-1.45095 c 0.19532,-2.04621 -2.66008,-2.20433 -2.66696,-0.18804 l -1.7527,1.02132 c -0.55752,-0.317 -0.80388,-0.53372 -0.63256,-0.85659 z m 0.043,2.1883905 -2.49668998,3.4775 c -0.13331,0.22013 0.0465,0.64487 0.32243,0.64487 l 15.16677038,-0.0124 c 0.40924,0 0.54589,-0.37511 0.42165,-0.63247 l -2.8529,-3.99853 -1.29627,0.77274 c -0.1151,1.79454 -2.7833004,1.64881 -2.6418904,-0.15852 l -2.15027,-1.5638005 c -0.48504,0.43924 -1.08654,0.38816 -1.78578,-0.0744 z" />
</svg>
