<svg xmlns="http://www.w3.org/2000/svg" fill-rule="evenodd" fill="#000" viewBox="0 0 16 16">
  <path d="m 7.146043,10.244014 c 0.04557,0.318198 0.176323,0.636932 0.266334,0.94505 0.03296,0.112838 0.06151,0.30021 0.152163,0.379973 0.177698,0.156278 0.644851,0.09255 0.8643,0.09255 0.979845,0 1.930061,-0.27986 2.530226,-1.13406 0.428334,-0.6096181 0.554597,-1.376432 0.554597,-2.1106093 0,-1.7967266 -0.901013,-3.3775101 -1.063805,-5.1347655 C 10.401658,2.7620505 10.507768,2.2383885 10.72743,1.770076 10.855345,1.4974282 11.123358,1.1945806 11.144187,0.88802833 11.180502,0.35332377 10.675814,0.04508156 10.230866,0.28395664 9.724313,0.55589806 9.447473,1.3633221 9.301724,1.8960814 c -0.527322,1.9276475 0.68761,3.8685262 0.972208,5.7332977 0.183532,1.2027 -0.105251,2.5536159 -1.448035,2.7798929 -0.587125,0.09895 -1.107788,-0.11706 -1.679854,-0.165258 M 13.896002,5.2667558 C 13.657035,5.3549602 13.371796,5.5513107 13.104638,5.4772496 12.899817,5.4204531 12.720563,5.0504031 12.590205,4.8887372 12.203167,4.4088098 11.79759,3.832771 11.299864,3.4711639 c 0.07856,0.4348163 0.07783,1.0208409 0.270274,1.4175733 0.153752,0.3169687 0.44904,0.5778333 0.633029,0.8820448 0.108245,0.1789608 0.208944,0.605777 0.366056,0.7236566 0.157203,0.1179412 0.567515,0.023281 0.746467,-0.00327 0.637457,-0.094537 1.246236,-0.3621741 1.771482,-0.7431236 0.167221,-0.1212823 0.42036,-0.2759234 0.496566,-0.4813144 C 15.697753,4.9593054 15.463978,4.5968172 15.148257,4.5824832 14.967169,4.5742248 14.80242,4.6952287 14.659572,4.7942065 14.520725,4.4728548 14.213616,4.1783138 13.991602,3.9121567 13.547569,3.3798113 13.094712,2.8651963 12.613204,2.368577 12.421701,2.1710772 12.093214,1.6964704 11.819091,1.6362112 c -0.258789,-0.05689 -0.367246,0.4545121 -0.3568,0.6378608 0.01628,0.2855493 0.539691,0.6156527 0.718123,0.8190425 0.594759,0.6779458 1.245778,1.39549 1.715588,2.173612 M 5.5578165,12.039579 C 5.3030594,11.77128 5.0716974,11.351552 4.7625131,11.153058 c -0.2438855,-0.156562 -0.7096935,-0.06023 -0.9456374,0.06748 0.224522,0.496561 0.8453654,0.997122 1.2217141,1.386073 0.1400989,0.144782 0.4123273,0.36438 0.4650437,0.567028 0.06857,0.263513 -0.1528671,0.621685 -0.1901588,0.882047 C 4.6471527,13.571597 4.118486,12.758854 3.5776034,12.134083 3.3975554,11.92611 3.1818341,11.559808 2.931135,11.44319 2.7482926,11.35813 2.32687,11.597202 2.2096072,11.74088 c -0.092304,0.113091 0.036793,0.218401 0.109611,0.298699 0.197866,0.218148 0.3922372,0.440046 0.5865597,0.661535 0.3997501,0.45567 0.8060627,0.910364 1.2177176,1.354569 0.2183822,0.235633 0.5087817,0.480493 0.6774098,0.75604 0.098012,0.160123 -0.053298,0.284114 -0.086375,0.441022 -0.070859,0.336249 0.1648399,0.597145 0.4767741,0.651266 C 6.0897502,16.059943 6.61411,14.808131 6.805431,14.087184 7.348083,12.042475 6.3367199,9.8242579 5.8021599,7.8813624 6.484211,8.6163906 7.40752,10.205993 8.612097,9.5824508 7.90604,8.5174444 6.754027,7.7934419 6.0232282,6.7473035 5.8629698,6.5178455 6.3053529,6.0878489 6.535187,6.1382519 6.762944,6.1882129 7.044579,6.642655 7.207129,6.8103076 7.685612,7.3038112 8.133614,7.8288811 8.612097,8.3223846 8.797003,8.5130962 8.986064,8.8060305 9.222953,8.9209159 9.348882,8.6089235 9.477711,8.3583603 9.42756,8.0073682 9.370659,7.6091887 9.080807,7.3430004 8.828615,7.0623199 8.406819,6.5928506 7.949593,6.1221846 7.573642,5.613245 L 9.009154,5.89676 C 8.964713,5.5566368 8.832708,5.2163552 8.735032,4.8887079 8.699539,4.769725 8.682345,4.5918041 8.590656,4.5024352 8.380675,4.2978001 7.775011,4.363228 7.512557,4.3818454 6.358801,4.4637193 5.3069073,5.083954 4.8294926,6.2117764 c -0.555543,1.3123584 -0.1457188,2.68356 0.2701818,3.9692056 0.1919617,0.593427 0.4530413,1.22368 0.4581421,1.858597 M 4.3361044,10.495998 4.1223041,9.4564449 c -1.0740617,-0.087417 -2.04247,0.030113 -2.9321098,0.7128821 -0.19764455,0.15168 -0.44734475,0.319267 -0.56756315,0.547182 -0.1797202,0.340754 0.00858,0.778658 0.3537648,0.909359 C 1.4621817,11.809742 1.8683159,11.232444 2.228651,10.990415 2.8260887,10.589149 3.6234183,10.359533 4.3361044,10.495998 m 1.2522551,1.543581 -0.030543,0.0315 z"/>
</svg>
