<svg xmlns="http://www.w3.org/2000/svg" fill-rule="evenodd" fill="#000" viewBox="0 0 16 16">
   <path d="m 5.9565902,6.6784841 c 0,0.3748383 0.9148134,0.2698781 2.0435156,0.2698781 1.1283709,0 2.0436622,0.085232 2.0436622,-0.2698781 0,-1.0302503 -4.0871778,-1.0302503 -4.0871778,0 z M 4.1575009,8.7379817 C 7.9595081,8.812919 7.3190455,8.7728906 7.9955275,9.4057096 8.7055019,8.8020024 7.8721722,8.8638649 11.843269,8.7149334 11.875497,7.725838 10.202341,7.0174711 9.0214219,7.0396928 H 6.9818004 C 5.3309171,7.0709821 4.0761473,7.9589734 4.1575009,8.7379817 Z m -0.00148,0.208075 -0.013663,0.2161762 c -0.00279,0.081081 0.3817816,0.172889 0.3817816,0.2467686 0,0.085196 -0.3841695,0.1867765 -0.3805693,0.2803481 0.109957,2.6946964 1.7758412,4.8358624 3.8273652,4.8511804 L 7.6175995,10.451956 7.9709336,9.6642754 7.4713717,9.1683305 C 7.2638023,8.9635894 4.1560195,8.9460567 4.1560195,8.9460567 Z M 8.5196313,9.1683305 8.020069,9.6642754 8.3734031,10.451956 8.020069,14.54053 c 2.051524,-0.01532 3.717408,-2.156484 3.827365,-4.8511804 0.0036,-0.093572 -0.380569,-0.1951522 -0.380569,-0.2803481 0,-0.07388 0.384574,-0.1656881 0.381782,-0.2467686 l -0.01366,-0.2161762 c 0,0 -3.1077822,0.017533 -3.3153517,0.2222738 z M 9.908791,4.3089085 C 9.0635042,5.7751112 6.9388236,5.7751108 6.0935447,4.3089074 5.2482657,2.842704 6.3106114,0.99999926 8.0011769,1 c 1.6905655,8e-7 2.7529001,1.8427058 1.9076141,3.3089085 z M 4.2939331,3.6429328 C 4.333444,3.4930943 4.1469688,3.1643368 4.664556,3.0811633 4.6007174,3.5060536 5.0325444,3.6855772 4.4309924,4.0651699 3.958927,4.3654287 3.5600895,4.484972 3.3852935,4.6875135 3.1536222,5.0020865 3.34096,5.250793 2.8273963,5.5221096 2.6146632,5.6915407 2.785296,6.3408316 2.9660416,6.5603114 3.1447902,6.7928415 3.2448479,7.2906966 3.7011034,7.6517205 3.8075776,7.7310084 3.9416484,7.7615016 4.292199,7.9522406 4.1115431,8.1248689 4.0289793,8.3116714 4.0074904,8.5134987 3.2482247,8.2500883 3.3537556,8.332572 2.9793894,7.9033985 2.6298754,7.4493345 2.0681199,6.5799702 2.227994,5.8545028 2.3154256,5.4608095 2.5003106,5.3851699 2.7480067,5.0397863 3.5024688,3.8658844 4.0257531,4.1738747 4.2939331,3.6429328 Z m 8.9591429,1.396883 c 0.247696,0.3453836 0.43258,0.4210232 0.520011,0.8147161 C 13.932961,6.5799992 13.371204,7.4493631 13.02169,7.9034271 12.647323,8.3326006 12.752854,8.2501169 11.993587,8.5135264 11.972098,8.3117 11.889535,8.1248971 11.708879,7.9522692 12.05943,7.7615302 12.193501,7.731037 12.299975,7.6517496 12.756231,7.2907252 12.85629,6.7928705 13.035039,6.56034 13.215785,6.3408606 13.386418,5.6915702 13.173686,5.5221391 12.660122,5.2508225 12.847461,5.0021156 12.615789,4.687543 12.440993,4.4850015 12.042156,4.3654582 11.57009,4.0651994 10.968539,3.6856069 11.400365,3.5060833 11.336528,3.081193 c 0.517587,0.083174 0.331112,0.411931 0.370622,0.5617695 0.268179,0.5309417 0.791465,0.2229517 1.545926,1.3968533 z M 3.9742134,9.9228412 4.0278884,10.41021 C 3.8381199,10.328995 3.6623683,10.243496 3.5072282,10.151699 3.0668816,10.153889 3.0056252,9.9652675 2.8612118,9.891032 2.7874711,9.851745 2.7681474,9.852668 2.736097,9.924696 c -0.017454,0.039226 0.065982,0.239606 0.1665892,0.420552 0.1556762,0.233025 0.1815725,0.64161 0.3413689,1.011555 0.1485164,0.317578 -0.021303,0.421896 0.358136,0.855687 0.132548,0.210462 0.097406,0.406874 0.092886,0.605852 C 3.1616292,12.724336 2.9898969,12.322309 2.7045458,11.291188 2.6339976,11.039074 2.5610472,10.778374 2.465353,10.530126 2.2353715,9.9519244 2.1516747,9.195014 3.1478634,9.4358129 c 0.3749498,0.081509 0.4540124,0.3206983 0.82635,0.4870283 z M 12.854799,9.4342071 c 0.996189,-0.2407989 0.912492,0.5161116 0.68251,1.0943139 -0.09569,0.248247 -0.168644,0.508947 -0.239192,0.761061 -0.285351,1.031122 -0.457586,1.434754 -0.991035,1.52876 -0.0045,-0.198978 -0.03916,-0.396995 0.09339,-0.607458 0.37944,-0.433791 0.20962,-0.538108 0.358137,-0.855686 0.159796,-0.369945 0.185692,-0.77853 0.341368,-1.011555 0.100608,-0.180946 0.184044,-0.3813268 0.16659,-0.4205523 -0.03205,-0.072028 -0.05138,-0.072952 -0.125115,-0.033664 -0.144414,0.074236 -0.20567,0.2628563 -0.646016,0.2606683 -0.155141,0.0918 -0.330893,0.177294 -0.520661,0.25851 l 0.05368,-0.4873691 C 12.400792,9.7549055 12.479854,9.5157168 12.854804,9.4342071 Z M 4.6919481,12.50357 4.8926614,12.85388 c -0.1682184,0.262149 -0.2204262,0.596749 -0.2820079,1.014 -0.109402,0.317407 0.6402305,0.712844 1.1232266,1.025939 1.0613166,0.80427 1.1412902,0.616903 1.2733492,0.830943 0.048337,0.104757 0.049001,0.336575 -0.3499402,0.260016 C 6.2113585,15.899371 5.8580793,15.657038 5.355112,15.423748 4.2066419,14.985024 3.9764338,14.081244 4.225233,13.495679 4.3376242,13.188846 4.3862225,12.859631 4.6919481,12.50357 Z m 7.0551369,0.992109 c 0.248799,0.585565 0.01859,1.489345 -1.129879,1.928069 -0.502968,0.23329 -0.856246,0.475623 -1.3021768,0.56103 -0.398941,0.07656 -0.3982767,-0.155259 -0.3499402,-0.260016 0.1320595,-0.21404 0.2120327,-0.02667 1.273349,-0.830943 0.482996,-0.313095 1.232629,-0.708532 1.123227,-1.025939 -0.06158,-0.417251 -0.11379,-0.751851 -0.282009,-1.014 l 0.200714,-0.35031 c 0.305726,0.356061 0.354324,0.685276 0.466715,0.992109 z" />
</svg>
