<svg xmlns="http://www.w3.org/2000/svg" fill-rule="evenodd" fill="#000" viewBox="0 0 16 16">
<path d="m 0.99494033,7.9108694 c 0,5.6455706 1.35442997,7.0000006 6.99999997,7.0000006 5.6455707,0 7.0000007,-1.35443 7.0000007,-7.0000006 0,-5.64557 -1.35443,-6.99999993 -7.0000007,-6.99999993 -5.64557,0 -6.99999997,1.35442993 -6.99999997,6.99999993 z M 5.7425303,12.30178 c -1.61302,0.008 -2.51506,-1.48493 -1.92481,-2.9370906 l 2.19585,-4.98957 c 0.5395,-1.53402 3.04997,-1.95119 3.96313,0 l 2.1954607,4.98957 c 0.59377,1.4349406 -0.30513,2.9546306 -1.924811,2.9370906 -0.5356997,0.0374 -1.5972497,-0.48033 -2.2540497,-0.43936 -0.88897,-0.01 -1.49486,0.46187 -2.25077,0.43936 z M 10.13344,10.149139 7.9949403,5.2448194 5.8277703,10.149139 c 1.2997,-0.5738196 2.95313,-0.6084496 4.3056697,0 z" />
</svg>
