<svg xmlns="http://www.w3.org/2000/svg" fill-rule="evenodd" fill="#000" viewBox="0 0 16 16">
  <path d="m 2.0601936,13.329963 h 1.0504287 c 0.58222,0 1.1539807,-0.345396 1.1539807,-1.200772 V 4.0662807 c 0,-1.0842548 -0.3447774,-1.2007722 -1.4170144,-1.2007722 H 2.1256924 V 1.3937512 H 13.928607 V 6.7428875 H 12.55239 c 0,-1.2780845 -0.139602,-2.2117919 -0.488163,-2.9094848 C 11.679542,3.0593383 10.893112,2.8655085 9.5149662,2.8655085 H 6.7083835 v 4.2648817 h 0.5442409 c 1.5899229,0 2.0116214,-0.4165928 1.9783904,-2.6384212 h 1.2413612 v 6.920396 H 9.2310148 C 9.1198968,9.1855183 9.0011385,8.390362 7.0076159,8.4145122 H 6.675152 v 3.7146788 c 0,1.084255 0.4293398,1.200772 1.5025411,1.200772 H 8.9479532 V 14.80172 H 2.0601936 Z" />
</svg>
