<svg xmlns="http://www.w3.org/2000/svg" fill-rule="evenodd" fill="#000" viewBox="0 0 16 16">
  <path d="m 11.122346,15.499525 0.64648,-1.037522 C 7.3950922,14.395059 7.0735602,8.2528266 11.425585,7.7912512 c 1.218033,0.02201 1.579083,0.1919456 2.956667,1.1626422 C 14.832686,-1.1500974 0.99900252,-0.8220263 1.6278101,8.9668621 1.9945315,8.7448237 2.5111234,8.3520827 2.7225312,8.2352276 3.7880545,7.646212 5.2666759,7.5022231 6.6570373,8.6895241 6.7984781,8.3697457 6.9823046,8.0583877 7.2233759,7.7583911 5.9343073,6.726833 4.3690514,6.4379602 2.771803,7.0292224 3.9106359,1.0644054 12.180773,1.1600905 13.244232,7.0210028 10.720783,6.1542931 8.6725438,7.2841392 7.7613387,8.9895208 6.5418808,11.271808 7.3250157,14.818295 11.122346,15.5 Z" />
</svg>
