<svg xmlns="http://www.w3.org/2000/svg" fill-rule="evenodd" fill="#000" viewBox="0 0 16 16">
   <path d="M 14.504814,2.59346 10.711904,3.28478 11.370994,1 6.1075436,2.03135 l -0.082,1.3847 -4.61142,-0.82427 c -0.31762,-0.0185 -0.50267998,0.20959 -0.37151,0.52626 l 6.6734,11.70266 c 0.14363,0.23446 0.47434,0.24361 0.61934,0 L 14.879004,3.11692 c 0.14767,-0.26459 -0.0786,-0.57472 -0.3742,-0.52346 z m -6.4804604,11.90643 -6.53575,-11.46127 4.51155,0.80642 -0.21268,3.59201 1.8493,-0.42679 -0.51565,2.52504 1.40476,-0.4268 -0.69712,3.37414 c -0.0348,0.22065 0.25268,0.33803 0.39482,0.0222 l 4.1076104,-8.19744 -2.02714,0.39123 0.27577,-0.956 3.85303,-0.70228 z" />
</svg>
