<svg xmlns="http://www.w3.org/2000/svg" fill-rule="evenodd" fill="#000" viewBox="0 0 16 16">
	<path d="m 4.4921013,1.9420767 c -4.65614005,2.68432 -4.65613005,9.4315303 0,12.1158503 4.65613,2.68431 10.5078997,-0.6893 10.5078997,-6.0579303 0,-5.36862 -5.8517697,-8.74223004 -10.5078997,-6.05792 z m -1.9921,6.15792 5.45,5.4000003 c -2.8856,-0.0593 -5.37585,-2.25608 -5.45,-5.4000003 z m 6.7,5.2500003 -6.55,-6.5500003 c 0.84928,-4.12484 6.58764,-6.18006004 9.7999997,-2.05 l -0.75,0.65001 c -2.2334297,-2.93342 -6.5982497,-2.36366 -7.9499997,1.09999 l 5.75,5.7500003 c 1.4499997,-0.5 2.5499997,-1.75 2.8999997,-3.2500003 h -2.4 v -1 h 3.5 c 0,2.6000003 -1.85,4.8000003 -4.2999997,5.3500003 z" />
</svg>
