<svg xmlns="http://www.w3.org/2000/svg" fill-rule="evenodd" fill="#000" viewBox="0 0 16 16">
  <path d="M 4.0185159,13.757767 C 3.7501223,13.573506 3.5379948,13.395073 3.5379948,13.395073 L 10.44029,1.4399638 c 0,0 0.284116,0.1053756 0.518798,0.2178917 0.295822,0.1417907 0.540851,0.2800193 0.540851,0.2800193 3.345708,1.9316698 4.493861,6.2162689 2.562191,9.5619602 -1.931718,3.345853 -6.2163172,4.493844 -9.5620729,2.562174 0,0 -0.2343425,-0.134715 -0.4815412,-0.304242 z M 10.916617,2.9482207 5.0833793,13.051647 C 7.871509,14.661426 11.442006,13.704658 13.051736,10.91661 14.661385,8.1283989 13.704779,4.5579671 10.916617,2.9482207 Z M 2.255936,12.002587 C 2.0213669,11.662885 1.9378663,11.499997 1.9378663,11.499997 0.73198942,9.4054382 0.64355035,6.7419036 1.9379149,4.5000008 3.2322793,2.258098 5.5831199,1.002966 8.0000388,0.99998674 c 0,0 0.3263113,-8.4197e-4 0.598008,0.0251781 0.4093262,0.039216 0.6814601,0.092034 0.6814601,0.092034 L 2.6787337,12.550028 c 0,0 -0.1565899,-0.162079 -0.4227977,-0.547441 z M 7.3017879,2.2093934 C 5.542754,2.4231724 3.901628,3.432061 2.9482607,5.0833878 1.9948934,6.7346173 1.9417523,8.6602962 2.6361171,10.290638 Z" />
</svg>
