<svg xmlns="http://www.w3.org/2000/svg" fill-rule="evenodd" fill="#000" viewBox="0 0 16 16">
	<path d="m 12.241011,8.3608565 h 1.24818 v 1.57192 h -0.41532 l -0.0665,-0.32977 c -0.4547,0.6843995 -2.21812,0.5776295 -2.27928,-1.11444 -0.0123,-1.91447 2.5144,-1.99731 2.71512,-0.5099 h -0.62495 c -0.12187,-0.52101 -0.69217,-0.58801 -1.03793,-0.38146 -0.29849,0.1783 -0.41318,0.55194 -0.3996,0.89242 0.003,0.59581 0.31618,1.03431 0.92018,0.96702 0.29519,-0.0329 0.56036,-0.19035 0.5984,-0.61752 h -0.65829 v -0.47827 z m 2.30897,1.03011 v -2.36681 h -0.65263 v 2.9064 h 2.10265 v -0.53959 z M 4.5239612,9.2389465 c -0.30123,0.72491 -1.25918,0.9476595 -1.93025,0.59479 1.65501,1.4072295 5.76655,2.0636295 8.8698598,0.4580995 C 7.4956512,13.535436 -0.03622883,11.684146 1.3116763e-4,8.4899065 0.03853117,5.1168665 7.8816012,3.5669865 11.475791,6.6998365 c -2.6863198,-1.5199 -7.0594098,-1.06456 -8.8334998,0.3864 0.99448,-0.51572 2.61621,0.38504 1.88167,2.15271 z m -2.15661,-0.13298 c 0.37279,0.81393 1.49738,0.72384 1.80804,-0.0186 0.34275,-0.81943 -0.022,-1.78372 -0.90452,-1.80563 -0.8476,-0.021 -1.2956,1.02587 -0.90352,1.82426 z m 8.0834598,0.82459 v -1.21771 c 0.0197,-0.38563 -0.17263,-0.59485 -0.44467,-0.65415 -0.2819498,-0.0615 -0.6628798,-0.006 -0.8350798,0.31386 v -0.29365 h -0.29534 v 1.85165 h 0.31376 v -1.04506 c 0,-0.36356 0.27271,-0.67244 0.72156,-0.53888 0.1244898,0.037 0.2171798,0.1323 0.2259998,0.33127 v 1.25267 z m -5.1699098,-1.85165 v 0.25062 c 0.11357,-0.30679 0.89322,-0.46548 1.26883,-0.004 0.13486,0.16568 0.21034,0.40015 0.21034,0.67968 0,0.14709 -0.0347,0.50538 -0.25267,0.73347 -0.26717,0.2795995 -0.9237,0.3562295 -1.2265,-0.0578 v 0.9548195 h -0.31379 V 8.0789065 Z m 0.29038,1.54794 c 0.3713,0.18154 0.86089,0.0862 0.88252,-0.61971 0.0176,-0.57296 -0.49082,-0.8655 -0.87851,-0.61483 -0.39471,0.2552 -0.3845,0.9586 -0.004,1.23454 z m 1.67868,-0.53019 c -0.008,0.1815 0.0571,0.3631 0.20288,0.48462 0.24231,0.20193 0.79994,0.18329 0.87646,-0.23936 h 0.30788 c -0.11087,0.6880895 -0.93252,0.7433595 -1.33966,0.47991 -0.28863,-0.18676 -0.36577,-0.52618 -0.38015,-0.82376 0.0104,-1.28695 1.81019,-1.3169 1.7508,0.0986 h -1.41821 z m 0,-0.2698 h 1.08563 c -0.0875,-0.73942 -1.04304,-0.66213 -1.08563,0 z" />
</svg>
