<svg xmlns="http://www.w3.org/2000/svg" fill-rule="evenodd" fill="#000" viewBox="0 0 16 16">
    <path d="m 5.5228538,1.4520173 a 6.9996878,6.9996878 0 0 1 7.8311112,2.04174 c -0.0791,-0.01005 -0.989186,-0.109254 -2.538846,0.372993 C 8.6625958,2.0159873 6.8002518,1.4804233 5.5228538,1.4520173 Z M 7.6943868,12.145803 A 12.923442,12.923442 0 0 1 5.5610928,10.413908 14.386353,14.386353 0 0 1 4.3575498,9.0591583 c -1.141268,1.3831557 -1.582435,2.6362997 -1.182129,3.2385077 0.491862,0.737902 2.266148,0.785099 4.519184,-0.150989 z M 10.141677,4.0996803 C 7.7728308,2.3712813 5.0351438,1.5903333 3.8471148,2.7825133 c -0.745549,0.747953 -0.868569,2.589102 0.655524,4.964941 a 16.957756,16.957756 0 0 1 2.503447,-1.998694 15.874612,15.874612 0 0 1 3.1349362,-1.64908 z m -6.2602562,4.304609 c -1.459634,-2.159515 -1.579376,-3.927246 -1.405226,-4.700327 a 6.9953176,6.9953176 0 0 0 -0.252376,8.2508647 c -0.059,-0.54343 0.190757,-1.873926 1.656728,-3.5514117 z m 9.8643292,-4.39966 c -0.05637,-0.01049 -0.86267,-0.145964 -2.392008,0.347209 0.114061,0.107725 0.228559,0.218508 0.34415,0.332788 a 7.9429872,7.9429872 0 0 1 1.502024,2.008963 0.18245425,0.18245425 0 0 1 -0.07145,0.247788 0.18463933,0.18463933 0 0 1 -0.248225,-0.07145 9.5090346,9.5090346 0 0 0 -1.228234,-1.481485 12.994675,12.994675 0 0 0 -0.907901,-0.820279 17.271753,17.271753 0 0 0 -3.2872352,1.756805 15.09126,15.09126 0 0 0 -2.505851,2.071238 15.439562,15.439562 0 0 0 1.516665,1.7415097 12.364717,12.364717 0 0 0 2.026006,1.644928 16.152991,16.152991 0 0 0 2.5049772,-1.560584 0.83754147,0.83754147 0 1 1 0.396374,0.34415 21.148086,21.148086 0 0 1 -2.3236152,1.561677 c 1.3387992,0.740742 2.6623022,1.06042 3.7845602,0.912271 A 6.9935696,6.9935696 0 0 0 13.745752,4.0048493 Z M 8.3309008,12.526444 c -2.206932,1.112643 -3.78893,1.210535 -4.649633,0.983286 a 6.9959732,6.9959732 0 0 0 8.5012752,0.106414 c -0.574021,0.0048 -2.032999,-0.09287 -3.8522982,-1.091448 z" />
</svg>
