<svg xmlns="http://www.w3.org/2000/svg" fill-rule="evenodd" viewBox="0 0 16 16">
  <path fill="#005a9c" d="M 5.8086778,13.02437 C 3.8698073,9.666147 1.930937,6.3079242 -0.00793343,2.9497015 c 3.87774063,0 7.75548123,0 11.63322143,0 C 9.6864181,6.3079242 7.747548,9.666147 5.8086778,13.02437 Z" />
  <path fill="#0066b0" d="m 11.631208,2.9497015 c -0.970422,1.6750847 -1.9408434,3.3501696 -2.9112652,5.0252543 1.9408432,0 3.8816872,0 5.8225302,0 C 13.572051,6.2998711 12.60163,4.6247862 11.631208,2.9497015 Z" />
  <path fill="#0076cc" d="M 11.631208,13.00021 C 10.660786,11.325126 9.6903646,9.6500405 8.7199428,7.9749558 c 1.9408432,0 3.8816872,0 5.8225302,0 -0.970422,1.6750847 -1.940843,3.3501702 -2.911265,5.0252542 z" />
  <path fill="#0086e8" d="M 14.530393,7.9991157 C 14.043169,7.1615732 13.555945,6.3240309 13.068721,5.4864885 c 0.974448,0 1.948896,0 2.923345,0 -0.487225,0.8375424 -0.974449,1.6750847 -1.461673,2.5126272 z" />
  <path fill="#0086e8" d="m 14.530393,2.9738614 c -0.487224,0.8375424 -0.974448,1.6750847 -1.461672,2.5126271 0.974448,0 1.948896,0 2.923345,0 C 15.504841,4.6489461 15.017617,3.8114038 14.530393,2.9738614 Z" />
</svg>
