<svg xmlns="http://www.w3.org/2000/svg" fill-rule="evenodd" fill="#000" viewBox="0 0 16 16">
  <path
     d="m 1.2199381,9.6103959 c -0.025308,0 -0.031665,-0.012674 -0.018991,-0.031665 L 1.3338828,9.4078145 a 0.09067468,0.09067468 0 0 1 0.069605,-0.031665 h 2.2596539 c 0.025308,0 0.031665,0.018991 0.018991,0.037981 l -0.107587,0.1645598 a 0.09646156,0.09646156 0 0 1 -0.063289,0.037982 z" />
  <path
     d="m 1.0615814,10.207758 c 0.014422,-0.2176653 -5.502e-4,0.0058 0.018947,-0.2299253 l 2.2534953,-0.019531 c 0.021375,-0.00301 0.038465,0.017495 0.031665,0.037981 l -0.050655,0.1520483 c -0.00795,0.02433 -0.031541,0.04004 -0.057054,0.03798 -0.9630775,0.03181 -1.2850812,0.01613 -2.1963977,0.02145 z" />
  <path
     d="m 1.7959363,10.774863 c -0.025308,0 -0.031665,-0.01899 -0.01899,-0.03798 l -0.036404,-0.154336 c 0.014101,-0.02175 0.16246,-0.03968 0.1882889,-0.04189 H 3.194772 c 0.025308,0 0.037981,0.01899 0.037981,0.0443 l -0.012674,0.151926 c -0.00158,0.02378 -0.020519,0.04272 -0.044298,0.0443 z" />
  <path
     d="M 8.3659994,9.4962884 C 7.9672348,9.5975588 7.6950477,9.6735218 7.3026403,9.7747921 7.2076866,9.8000995 7.2013699,9.8064569 7.1192533,9.7115032 7.0242996,9.6039162 6.954694,9.5342699 6.8217589,9.4710625 6.422994,9.2748384 6.0369033,9.3318106 5.6761199,9.5660162 5.245731,9.8445199 5.0240772,10.255918 5.0305162,10.768627 c 0.00632,0.506352 0.3545482,0.924108 0.8545019,0.993754 0.4303889,0.05705 0.7911722,-0.09495 1.0758704,-0.417755 0.057054,-0.06961 0.107587,-0.145569 0.1709166,-0.234206 H 5.9101218 c -0.1329353,0 -0.1645593,-0.08228 -0.1202612,-0.189867 0.08228,-0.196224 0.2342056,-0.525342 0.3228019,-0.689902 a 0.17091668,0.17091668 0 0 1 0.1582426,-0.10127 h 2.3039523 c -0.012675,0.170917 -0.012675,0.341793 -0.037984,0.512709 A 2.6994158,2.6994158 0 0 1 8.01785,11.882683 c -0.4557371,0.601183 -1.050726,0.9746 -1.8039167,1.07587 -0.6202964,0.08228 -1.1962946,-0.03798 -1.7026464,-0.417755 A 1.9881188,1.9881188 0 0 1 3.7074401,11.135646 C 3.6251605,10.445744 3.8277013,9.8254476 4.2453753,9.2810736 4.6948365,8.692442 5.2898254,8.3190253 6.0175865,8.1860902 6.6125754,8.0785032 7.1822162,8.1481087 7.6949255,8.4962179 a 1.9840843,1.9840843 0 0 1 0.7342409,0.8924835 c 0.038106,0.056972 0.012756,0.088637 -0.063164,0.107587 z" />
  <path
     d="M 10.461053,12.996535 C 9.885055,12.98386 9.3597129,12.819301 8.9165274,12.439528 A 1.9851032,1.9851032 0 0 1 8.2329421,11.217926 C 8.1188347,10.502675 8.3152218,9.8697458 8.7456514,9.3064217 9.2077055,8.6987994 9.7647124,8.3823143 10.517903,8.2493791 c 0.645604,-0.1141075 1.253267,-0.050655 1.803917,0.3228018 0.500036,0.3417927 0.810163,0.8038464 0.892484,1.4114686 0.107587,0.8545015 -0.139252,1.5507205 -0.727884,2.1457095 a 2.9003672,2.9003672 0 0 1 -1.519096,0.810163 c -0.170794,0.0317 -0.34167,0.03802 -0.506271,0.05701 z m 1.506422,-2.557108 A 1.8216442,1.8216442 0 0 0 11.948485,10.23057 C 11.834377,9.6039569 11.258583,9.2494902 10.657278,9.3887421 10.068646,9.5216773 9.688872,9.895094 9.5496201,10.490083 a 1.0424124,1.0424124 0 0 0 0.5823149,1.196294 c 0.348109,0.151926 0.696259,0.132936 1.031735,-0.03798 0.499995,-0.259553 0.772182,-0.664635 0.803805,-1.208969 z" />
  <path d="m 14.125,1.875 v 12.25 H 1.875 V 1.875 Z M 15,1 H 1 v 14 h 14 z" />
</svg>
