<svg xmlns="http://www.w3.org/2000/svg" fill-rule="evenodd" fill="#000" viewBox="0 0 16 16">
  <path d="m 4.0217169,0.140395 -3.87749,3.89627 c -0.0539,0.0336 -0.0868,0.0927 -0.087,0.15646 l 0,3.84821 c -0.005,0.0641 0.019,0.092 0.0619,0.13984 l 7.79814,7.85325 c 3.5e-4,1.9e-4 7.2e-4,5.6e-4 10e-4,7.4e-4 0.10603,0.0914 0.21432,0.0506 0.27224,-0.005 l 7.8024201,-7.84206 c 0.0519,-0.0612 0.0641,-0.0702 0.0637,-0.1467 l 0,-3.84821 c -1.9e-4,-0.0718 -0.0417,-0.13701 -0.10644,-0.1673 l -3.85988,-3.87858 c -0.0719,-0.0722 -0.18844,-0.0722 -0.26034,0 l -3.7703401,3.78859 -3.77753,-3.79546 c -0.10434,-0.08 -0.2061,-0.0558 -0.26035,0 z m 0.30674,0.56983 3.47044,3.48724 -1.65629,1.66431 -1.81415,-1.82294 z m 7.8064101,0.005 3.469,3.48579 -1.66312,1.66322 -1.80588,-1.81462 z m -8.1746401,0.0101 0,3.33439 -1.79437,1.80306 -1.65916,-1.6672 z m 7.8064201,0.009 0,3.32862 -1.7904201,1.79908 -1.65628,-1.66431 z m -7.6118801,3.65346 1.72749,1.73585 -1.72856,1.73693 -1.72749,-1.73585 z m 7.8024601,0.007 1.72282,1.73116 -1.72497,1.72501 -1.7185,-1.72718 z m -3.7253801,0.23812 1.48404,1.49087 -1.48404,1.49123 z m -7.80642,0.007 1.47865,1.48617 -1.47865,1.48581 z m 15.2629501,0.003 0,2.97812 -1.48189,-1.48906 z m -7.8247601,0.0137 0,2.93513 -1.46031,-1.46774 z m -1.72065,1.72899 1.65628,1.66431 -1.72892,1.73729 -1.65629,-1.6643 z m 3.83326,0 1.7181401,1.72646 -1.65629,1.66431 -1.7181301,-1.72646 z m -7.81181,0.003 1.79581,1.80451 0,3.32464 -3.44994,-3.46667 z m 11.7817301,0.005 1.65269,1.66069 -3.46397,3.46484 0,-3.30549 z m -5.8865501,1.91796 1.71814,1.72646 -1.72893,1.73729 -1.71814,-1.72645 z m -3.73114,0.25835 1.47649,1.484 -1.47649,1.48364 z m 7.4381901,0.0137 0,2.93006 -1.45815,-1.46485 z m -1.7185,1.72682 1.64442,1.65202 -3.4607201,3.49411 0,-3.32103 z m -3.9828601,0.005 1.79833,1.80667 0,3.3185 -3.44922,-3.46628 z"/>
</svg>
