<svg xmlns="http://www.w3.org/2000/svg" viewBox="0 0 16 16">
   <path fill="#80bc00" d="m 6.2235,6.1645 v -0.837 c 0.0815,-0.006 0.1635,-0.01 0.247,-0.013 2.2885,-0.0715 3.7905,1.967 3.7905,1.967 0,0 -1.622,2.2505 -3.361,2.2505 A 2.1,2.1 0 0 1 6.2235,9.4235 V 6.888 c 0.891,0.1075 1.07,0.5 1.606,1.394 L 9.021,7.2775 A 3.156,3.156 0 0 0 6.685,6.137 4.303,4.303 0 0 0 6.2235,6.1645 m 0,-2.7645 v 1.25 c 0.082,-0.0065 0.1645,-0.012 0.247,-0.015 3.183,-0.107 5.2565,2.6105 5.2565,2.6105 0,0 -2.382,2.896 -4.863,2.896 a 3.7,3.7 0 0 1 -0.6405,-0.056 v 0.7725 a 4.264,4.264 0 0 0 0.5335,0.0345 c 2.309,0 3.979,-1.179 5.596,-2.575 0.2675,0.215 1.3655,0.737 1.591,0.966 -1.5375,1.287 -5.1205,2.3245 -7.15,2.3245 -0.196,0 -0.3845,-0.012 -0.569,-0.03 v 1.086 H 15 V 3.4 Z m 0,6.0255 v 0.66 C 4.088,9.7045 3.495,7.4855 3.495,7.4855 a 4.617,4.617 0 0 1 2.7285,-1.32 V 6.889 h -0.003 a 2.05,2.05 0 0 0 -1.592,0.728 c 0,0 0.391,1.4055 1.595,1.81 M 2.4305,7.3885 a 5.288,5.288 0 0 1 3.793,-2.061 V 4.65 C 3.424,4.8745 1,7.2455 1,7.2455 c 0,0 1.373,3.9695 5.2235,4.3325 v -0.72 C 3.4,10.5025 2.4305,7.3885 2.4305,7.3885 Z" />
</svg>
