<svg xmlns="http://www.w3.org/2000/svg" fill="#000" viewBox="0 0 16 16">
	<path d="M 10.356727,8.310366 C 9.8577859,8.51146 8.5553149,8.862971 8.9247387,7.931209 9.1774847,7.424645 9.8199264,6.7392436 10.499686,6.9709026 c 0.57922,-0.08768 0.738291,0.013552 1.290481,-0.1503889 0.465241,0.0919 1.49874,0.070559 2.038098,0.024359 0.642566,-0.04255 1.196273,0.3429297 1.833168,0.4880407 0.389589,0.176956 0.379087,0.7596816 -0.04534,0.6759016 -0.342571,0.173757 -0.588553,0.087397 -0.911893,0.3321849 -0.606709,-0.102315 -1.088729,-0.00203 -1.734872,-0.045513 -0.607401,0.03496 -1.344123,0.1552548 -1.946589,0.1431648 -0.14447,0.0044 -0.539881,-0.026295 -0.666016,-0.1282349 z" />
	<path d="M 2.7423615,14.475465 C 2.531092,14.396825 2.0203622,14.575408 2.2277009,13.936489 2.7267361,13.506611 3.2381872,13.084967 3.7308695,12.646158 5.0354035,11.514294 6.6635044,10.4062 7.8217611,9.1183279 8.6225829,8.9576419 8.4259902,10.786024 7.8104098,10.98552 7.3888636,11.456391 6.6004026,12.168235 6.0992044,12.571665 5.5094442,13.031951 4.8462189,13.364186 4.2624446,13.751031 3.6953831,14.156872 3.7571204,13.934298 3.192465,14.391202 Z" />
	<path d="M 1.9787245,4.6983261 C 1.757242,4.4634941 1.4995536,4.2007276 1.2717632,3.9645356 0.90400547,3.9474966 0.61498544,2.974834 1.3763777,3.213376 2.2264638,3.30034 2.5440031,3.4223359 3.07229,3.7386919 3.8452801,4.1840529 4.5942646,4.801771 5.3201122,5.310735 5.7668931,5.761556 6.8808872,6.540053 6.382537,7.340848 5.8161675,7.978908 5.2346529,6.9919637 4.6536666,6.8376457 4.1533413,6.2863107 3.4631728,5.8014809 2.8715456,5.3420819 2.6212615,5.1882219 2.2117468,4.8737291 1.9787245,4.6983261 Z" />
	<path d="M 8.5493743,15.399718 C 8.320568,16.030336 7.7573838,14.740255 7.5996876,14.652237 7.3843531,14.325804 7.355265,13.628281 7.0270228,13.437263 6.8143243,12.851387 6.6128587,12.412355 6.4031281,11.809324 6.1415141,11.276145 5.711344,9.6940029 5.2443814,9.3001569 4.851046,8.6316999 6.8621964,8.480436 6.985585,9.325045 c 0.2689369,0.629914 0.5875402,1.2534 0.7640772,1.914517 0.2014937,0.674007 0.6242936,1.228984 0.7177635,1.93185 0.3102218,0.589711 0.020099,1.840271 0.081949,2.228306 z" />
	<path d="M 9.1506291,1 C 9.7010417,1.316534 10.068542,2.2905575 10.134821,2.8741845 10.081282,3.4828835 9.7557072,5.039659 9.4769216,5.6300973 9.1360281,6.4492326 8.8512028,6.526676 8.0973202,6.928101 7.2881675,7.261593 7.4096591,6.446332 7.7325474,5.988579 7.9772326,5.295807 7.9950914,4.482089 8.3930028,3.875974 8.2698862,3.476068 8.6886684,3.050538 8.5125344,2.669862 8.8151489,2.254426 8.6855664,1.374184 9.0377304,1.024378 Z" />
</svg>
