<svg xmlns="http://www.w3.org/2000/svg" fill-rule="evenodd" fill="#000" viewBox="0 0 16 16">
	<path d="M 2.4272861,11.893636 C 1.9458245,11.773266 1.8291702,11.437994 2.1577695,11.088789 4.1088749,7.7094745 6.0599803,4.3301605 8.0110856,0.95084607 8.7894036,1.1079049 8.3617719,1.6818848 8.0743993,2.1128364 6.1920281,5.3731029 4.3096573,8.6333695 2.4272861,11.893636 Z" />
	<path d="m 1.7505395,10.726885 c 4.0896318,0 8.1792639,0 12.2688955,0 0.136491,0.47714 -0.09552,0.745825 -0.562252,0.635853 -3.9022141,0 -7.804429,0 -11.7066435,0 0,-0.211951 0,-0.423902 0,-0.635853 z" />
	<path d="m 8.1300552,14.627255 c -2.045582,-1.181051 -4.0911641,-2.362103 -6.1367461,-3.543156 0.21067,-0.945725 0.9577998,-0.116424 1.4590859,0.10822 1.6651958,0.961429 3.330391,1.922858 4.9955866,2.884288 -0.1059752,0.183549 -0.2119508,0.367099 -0.3179264,0.550648 z" />
	<path d="M 13.461045,5.3928718 C 11.415463,4.2118195 9.369881,3.0307676 7.324299,1.8497156 7.5349689,0.90398961 8.2820987,1.7332905 8.7833848,1.957935 10.44858,2.9193644 12.113776,3.8807937 13.778972,4.8422232 13.672996,5.0257725 13.567021,5.2093221 13.461045,5.3928718 Z" />
	<path d="M 2.312936,5.3904509 C 1.9561543,5.0454858 2.022756,4.6968029 2.4819302,4.5586703 4.3652056,3.4713291 6.2484808,2.3839877 8.1317559,1.2966463 8.8454602,1.9519365 7.7537058,2.1843473 7.308523,2.5061629 5.6433273,3.4675923 3.9781317,4.4290218 2.312936,5.3904509 Z" />
	<path d="M 13.347899,11.893751 C 11.303083,8.3521299 9.2582666,4.8105087 7.2134507,1.2688872 7.7386115,0.67336025 8.021894,1.3306823 8.2514342,1.7950248 10.133805,5.0552913 12.016176,8.3155576 13.898547,11.575824 13.714998,11.6818 13.531448,11.787776 13.347899,11.893751 Z" />
	<path d="m 2.2370052,4.4181514 c 0.4771399,-0.1364904 0.7458247,0.095523 0.6358529,0.5622518 0,2.1746869 0,4.3493735 0,6.5240608 -0.4771398,0.13649 -0.7458246,-0.09552 -0.6358529,-0.562252 0,-2.1746871 0,-4.3493736 0,-6.5240606 z" />
	<path d="m 12.900947,4.4181514 c 0.47714,-0.1364904 0.745825,0.095523 0.635853,0.5622518 0,2.1746869 0,4.3493735 0,6.5240608 -0.47714,0.13649 -0.745825,-0.09552 -0.635853,-0.562252 0,-2.1746871 0,-4.3493736 0,-6.5240606 z" />
	<path d="m 8.0218074,14.358106 c -0.6424539,-0.606288 0.3950807,-0.786189 0.7836538,-1.093782 1.4253168,-0.822932 2.8506338,-1.645863 4.2759498,-2.468794 0.642454,0.606288 -0.39508,0.786189 -0.783654,1.093783 -1.425316,0.822931 -2.8506329,1.645862 -4.2759496,2.468793 z" />
	<path d="m 14.379497,11.711307 c -0.467484,0.948475 -2.061121,0.843015 -2.400123,-0.161131 -0.416946,-0.900711 0.477506,-2.0445743 1.457128,-1.8321013 0.883234,0.1161526 1.436165,1.2350783 0.942995,1.9932323 z" />
	<path d="M 3.7078938,5.5481309 C 3.2404099,6.4966043 1.6467746,6.391148 1.3077703,5.3870036 0.89083159,4.4862741 1.7852521,3.3425116 2.7648727,3.554849 3.648004,3.6713524 4.1949923,4.7901481 3.7078938,5.5481309 Z" />
	<path d="M 1.3943087,11.711307 C 0.82227306,10.841467 1.6633581,9.5412701 2.6946923,9.7071891 3.6897808,9.7772232 4.2742324,11.10769 3.6091744,11.872828 3.0717576,12.593482 1.809632,12.526935 1.3943087,11.711307 Z" />
	<path d="m 12.065912,5.5481309 c -0.572036,-0.8698396 0.269049,-2.1700371 1.300383,-2.0041183 0.995179,0.070055 1.579519,1.4006005 0.914444,2.1657855 -0.537444,0.7210539 -1.79896,0.6530944 -2.214827,-0.1616672 z" />
	<path d="M 7.8869028,15.461307 C 6.84171,15.524439 6.1401652,14.135082 6.80581,13.32529 c 0.5646387,-0.8261 2.0284712,-0.646859 2.3363492,0.323814 0.3393421,0.82301 -0.3549259,1.856066 -1.2552564,1.812203 z" />
	<path d="M 7.8869028,3.1349544 C 6.8417088,3.1980888 6.1401656,1.8087287 6.80581,0.99893712 7.3704405,0.1728283 8.834376,0.35207122 9.1421455,1.3228192 9.4816956,2.1459538 8.7882568,3.180244 7.8869028,3.1349544 Z" />
</svg>
