<svg xmlns="http://www.w3.org/2000/svg" fill-rule="evenodd" fill="#000" viewBox="0 0 16 16">
  <path d="M 0.49726892,14.258458 H 1.8222903 c 0.734418,0 1.4556428,-0.412168 1.4556428,-1.432905 V 3.2039195 c 0,-1.2938631 -0.4349057,-1.4329057 -1.7874361,-1.4329057 H 0.57988977 V 0.0147361 H 15.468205 v 6.3832324 h -1.735974 c 0,-1.525164 -0.176095,-2.6393759 -0.615773,-3.471947 C 12.631212,2.0023148 11.639201,1.7710138 9.9007942,1.7710138 H 6.3605423 v 5.0893695 h 0.6865109 c 2.005544,0 2.5374796,-0.4971286 2.4955609,-3.1484813 h 1.5658669 v 8.258249 H 9.5426141 C 9.4024488,9.3128093 9.2526458,8.3639331 6.737997,8.3927521 H 6.3186237 v 4.4328009 c 0,1.293863 0.5415735,1.432905 1.8953204,1.432905 h 0.9716132 v 1.756278 H 0.49726892 Z"/>
</svg>
