<svg xmlns="http://www.w3.org/2000/svg" fill-rule="evenodd" fill="#000" viewBox="0 0 16 16">
  <path d="M 9.6013745,1 C 9.6718896,1.946135 8.7694438,2.8011189 7.8280876,2.6719123 7.0053515,2.6050156 6.3368925,1.8221955 6.3908189,1 4.5938795,1 2.7969389,1 0.99999954,1 c 0,4.6666665 0,9.333333 0,14 4.66666606,0 9.33333346,0 13.99999946,0 0,-4.666667 0,-9.3333335 0,-14 -1.799541,0 -3.599083,0 -5.3986245,0 z M 7.6812853,13.501393 C 7.4470279,12.380838 7.237828,11.229655 6.9879198,10.128229 c -0.2458651,1.124388 -0.4917301,2.248776 -0.7375952,3.373164 -0.3130773,0 -0.6261533,0 -0.9392306,0 -0.3547053,-1.652109 -0.7094092,-3.304218 -1.0641145,-4.9563273 0.3091747,0 0.6183481,0 0.9275228,0 0.218708,1.1205335 0.4119163,2.2718143 0.6465341,3.3731643 0.2549711,-1.124388 0.5099423,-2.2487761 0.7649135,-3.3731643 0.2892271,0 0.5784555,0 0.8676826,0 0.2359927,1.134434 0.4469098,2.2994903 0.698569,3.4147923 0.2415293,-1.138264 0.4830572,-2.2765281 0.7245865,-3.4147923 0.3035367,0 0.6070747,0 0.9106114,0 -0.3941647,1.6521093 -0.7883293,3.3042183 -1.182494,4.9563273 -0.3078738,0 -0.6157463,0 -0.9236201,0 z m 5.1072287,0 c -0.10537,-0.367713 -0.210741,-0.735427 -0.316112,-1.10314 -0.556341,0 -1.11268,0 -1.669021,0 -0.08109,0.367713 -0.162176,0.735427 -0.243263,1.10314 -0.309175,0 -0.6183479,0 -0.9275226,0 0.3998016,-1.652109 0.7996036,-3.304218 1.1994056,-4.9563273 0.487827,0 0.975655,0 1.463482,0 0.486094,1.6521093 0.972186,3.3042183 1.458279,4.9563273 -0.321749,0 -0.643499,0 -0.965248,0 z" />
  <path d="M 11.390075,9.7665858 C 11.255218,10.372793 11.120361,10.979 10.985504,11.585207 c 0.419749,0 0.839496,0 1.259245,0 -0.154804,-0.606207 -0.309608,-1.212414 -0.464412,-1.8186212 -0.130087,0 -0.260174,0 -0.390262,0 z" />
</svg>