<svg xmlns="http://www.w3.org/2000/svg" fill-rule="evenodd" fill="#000" viewBox="0 0 16 16">
  <path d="M 7.921,0.714 C 7.739,1.408 6.185,1.852 6.078,2.733 l -0.175,-0.526 c -0.914,1.165 -0.834,1.755 -0.834,1.755 l -0.076,-0.422 c -0.667,1.116 -0.526,1.663 -0.449,1.830 l 0.032,0.057 c 0,0 -0.014,-0.018 -0.032,-0.057 l -0.176,-0.310 c -0.693,1.918 -0.087,2.507 -0.087,2.507 l -0.373,-0.433 c -0.164,1.469 0.263,2.073 0.263,2.073 l -0.268,-0.252 c -0.034,0.998 0.620,1.591 0.620,1.591 l -0.431,-0.295 c 0.829,3.625 2.477,3.723 2.69,3.720 l -0.656,0.021 c 0.438,0.468 0.997,0.650 1.375,0.721 0.206,-1.093 0.395,-3.741 0.424,-10.680 0.028,6.938 0.218,9.586 0.424,10.680 0.378,-0.071 0.937,-0.253 1.375,-0.721 l -0.656,-0.021 c 0.212,0.003 1.860,-0.095 2.689,-3.720 l -0.431,0.295 c 0,0 0.654,-0.592 0.620,-1.591 l -0.268,0.252 c 0,0 0.428,-0.604 0.263,-2.073 l -0.373,0.433 c 0,0 0.605,-0.588 -0.087,-2.507 l -0.175,0.310 c -0.018,0.039 -0.032,0.057 -0.032,0.057 l 0.032,-0.057 c 0.077,-0.167 0.218,-0.714 -0.449,-1.830 l -0.076,0.422 c 0,0 0.081,-0.590 -0.834,-1.755 l -0.175,0.526 c -0.107,-0.880 -1.661,-1.324 -1.843,-2.019 z" />
</svg>
