<svg xmlns="http://www.w3.org/2000/svg" fill-rule="evenodd" fill="#000" viewBox="0 0 16 16">
  <path
     d="M 7.9364326,2.3389321 C 7.2304792,2.7253622 6.5303974,3.1117153 5.8180526,3.4907641 5.5107467,3.6457879 5.2254288,3.8239235 4.9178896,3.9914291 4.5349153,4.1762281 4.1723991,4.4092087 3.7792466,4.5995531 3.5824115,4.7035987 3.3700367,4.8453684 3.1669646,4.9067831 2.9578969,5.0811348 2.7839704,5.1002614 2.5804446,5.2548341 2.3333869,5.3364036 2.1496093,5.5134712 1.8994126,5.6050521 1.7607063,5.6761163 1.5783315,5.8235935 1.4181654,5.8494583 1.2641817,6.0080853 1.0354324,6.0603551 0.8789085,6.1508391 0.60170155,6.2562121 0.182318,6.5423861 0.69678865,6.7883378 0.95413162,7.2722073 1.2916165,7.0746681 1.6179747,6.8275558 1.9560537,6.659344 2.2713922,6.4118271 2.6255813,6.2560508 2.8487862,6.1330045 3.0450059,5.9908915 3.2792233,5.8840418 3.5549777,5.6789866 3.9027745,5.5404854 4.2068192,5.3493461 4.4233702,5.189685 4.6858046,5.1081715 4.8964752,4.9325451 5.1842971,4.7989242 5.476109,4.6329519 5.7217144,4.4450141 6.0361782,4.3193479 6.3170052,4.1108262 6.6130252,3.9591441 6.9314161,3.7863918 7.2257547,3.5958087 7.5325372,3.4220251 7.9111308,3.2044057 8.3284382,3.0108534 8.6980944,2.7472439 8.6143502,2.5722319 8.2392931,2.4864411 8.0439052,2.3389321 l -0.053713,-0.017193 -0.053713,0.017193 M 9.027886,2.8932287 C 8.7909128,3.0698728 8.4911718,3.1955108 8.247986,3.3680327 7.9603093,3.5023367 7.7045043,3.6774144 7.444469,3.8449817 7.1654707,3.9723812 6.9317631,4.1736992 6.6418141,4.3002703 6.4670287,4.4457563 6.1912549,4.5373633 5.992194,4.6871967 6.0410025,4.9709662 6.4971206,5.1143237 6.759169,5.2973689 7.1028925,5.1355069 7.3799791,4.876726 7.72597,4.7322219 7.9744811,4.5162987 8.2940664,4.3527896 8.570275,4.1693189 8.7696192,4.0763418 9.0111175,3.8629291 9.236281,3.7482169 9.3595226,3.6057932 10.008961,3.4077636 9.704584,3.2433829 9.4785486,3.146963 9.3215616,2.9923523 9.0826069,2.9258597 9.0681476,2.9106177 9.0439538,2.8256454 9.02782,2.8931099 m 1.127938,0.6423835 C 9.9202655,3.7179688 9.6626578,3.8294099 9.414551,4.0210224 9.2947964,4.1818811 8.8130406,4.2307987 9.021389,4.4958154 c 0.2133909,0.00785 0.45059,0.2887653 0.683199,0.358765 0.303195,0.082119 0.575878,-0.3217832 0.846468,-0.464035 0.141398,-0.096092 0.682117,-0.3207834 0.38672,-0.472692 -0.230875,-0.1360114 -0.473174,-0.2885436 -0.73046,-0.399652 l -0.05156,0.017193 m 1.220313,0.7369142 C 11.10871,4.4060734 10.931182,4.6152065 10.68429,4.7600046 10.476109,4.9144708 10.262976,5.0469805 10.0505,5.2262066 9.8222307,5.3527062 9.6527267,5.498785 9.4261139,5.6406454 9.2117402,5.8421352 8.9572968,5.9798993 8.714187,6.1758806 8.448363,6.3720018 8.1858714,6.5499238 7.9321387,6.7344606 7.6931697,6.8973045 7.4563406,7.0666389 7.2296105,7.2264136 6.9965477,7.4459804 6.688922,7.55075 6.4878585,7.7810776 5.9230432,8.0253971 6.8141175,8.3868527 6.9902869,8.6314802 7.244878,8.9551757 7.5075506,8.6041195 7.7301732,8.4661169 8.0045377,8.1711468 8.3536271,7.9745875 8.6497105,7.7314291 9.0102154,7.5026636 9.1317929,7.3087374 9.5219921,7.0531215 9.7945452,6.8025616 10.134356,6.6057606 10.398803,6.3393185 10.725746,6.1381644 10.963056,5.8745575 11.285848,5.677607 11.591633,5.371037 12.000375,5.1434611 12.312811,4.8451036 12.605679,4.6450628 12.009614,4.5643869 11.88744,4.4250755 11.721517,4.3681017 11.558574,4.1687656 11.376135,4.2725165 M 8.5294069,4.6012273 C 8.3400853,4.7365542 8.10625,4.8373062 7.9297378,5.0016259 7.6827136,5.0796769 7.5393272,5.2879002 7.3101889,5.3634049 7.1014706,5.5374267 6.8273817,5.6881186 6.6001609,5.8516523 6.3871498,5.9896153 6.1653986,6.1368883 5.9341549,6.2770883 5.6926517,6.450944 5.4219662,6.6029178 5.1908189,6.7691183 4.8333334,6.9854942 4.4514737,7.2713368 4.0800829,7.4717433 3.8873011,7.5881093 3.7128712,7.7309448 3.5024275,7.8284142 3.2143865,8.0547431 2.9135439,8.2253429 2.6041249,8.4299973 2.2875317,8.7259919 3.1606552,9.1046019 3.2379064,9.4097717 3.5514623,9.3961458 3.8039699,9.0392882 4.09404,8.9223548 4.3181684,8.7015974 4.6320176,8.5531323 4.8749946,8.3634517 5.0755503,8.1986887 5.4357521,8.0066399 5.5329445,7.8977406 5.8368593,7.7385953 6.0827491,7.4789466 6.3960812,7.3085077 6.7565976,7.047515 7.1596727,6.7723774 7.5476382,6.4963557 7.8324894,6.2969858 8.1344388,6.0992699 8.4134922,5.8925767 8.7346822,5.6730236 9.0388968,5.4540263 9.3544872,5.2437197 9.6141571,5.0171105 8.9591744,4.8695865 8.8109497,4.6944306 8.7026885,4.6990092 8.6147251,4.5411553 8.5295092,4.6011987 M 5.5023609,4.987918 C 5.2600458,5.1197671 5.0472952,5.2555883 4.7998459,5.391838 4.5285119,5.5214058 4.2849492,5.7341902 3.9898623,5.8526954 3.7975735,6.0206647 3.5714827,6.1231648 3.3474939,6.238376 3.1388433,6.3971725 2.888549,6.4565846 2.7545279,6.616578 2.5276993,6.6742773 2.3701727,6.8765671 2.1014018,6.986167 1.8740927,7.1389745 1.6062089,7.2240266 1.407447,7.3943759 1.4588001,7.6553953 1.9188367,7.9782302 1.983209,8.1355603 2.035596,8.276131 2.2278516,8.1622679 2.3930704,8.0804324 2.5468856,7.9311262 2.7613526,7.8560222 2.935006,7.7379983 3.1005636,7.5334469 3.4329248,7.4656131 3.536574,7.3469373 3.8227501,7.1346874 4.1198757,6.9998636 4.408819,6.7926253 4.8701265,6.5237353 5.3110219,6.2103176 5.76876,5.9225473 5.8976759,5.8045676 6.5253799,5.6303099 6.247876,5.4579004 6.0559236,5.2743105 5.8404238,5.1584176 5.6162593,5.0214906 5.583418,5.0228595 5.5381598,4.9136551 5.5023906,4.9878883 m 7.2660164,0.032219 C 12.436801,5.3043695 12.077231,5.554119 11.773659,5.7829045 11.557624,5.9994921 11.287122,6.1757127 11.029226,6.4062302 10.804967,6.5212615 10.637774,6.7848306 10.33662,6.9514139 10.061401,7.1870426 9.5246573,7.4651895 10.123677,7.6799964 c 0.292305,0.1532921 0.444414,0.3824709 0.68748,0.4684207 0.517785,-0.035498 0.905905,-0.7588824 1.372306,-1.0530514 0.374801,-0.2775801 0.643028,-0.599887 1.016748,-0.8462075 0.09212,-0.2896622 0.97898,-0.6097365 0.537913,-0.8204177 -0.224879,-0.102118 -0.417022,-0.250392 -0.617418,-0.3376876 -0.117178,-0.018309 -0.256409,-0.206943 -0.352338,-0.070917 m 1.540429,0.8314449 C 13.95925,6.102172 13.664234,6.4670273 13.322669,6.7303279 12.951895,7.0431849 12.705087,7.3449849 12.318813,7.6606557 11.843294,8.1280281 11.335774,8.5205549 10.883443,8.9908202 10.339436,9.4765264 9.7871968,9.9579235 9.2615965,10.473132 8.8103609,10.865959 8.3476539,11.307731 7.90218,11.710515 c -0.3782413,0.385077 -0.8786844,0.741946 -1.2017525,1.127673 0.2816637,0.377618 0.6593277,0.724538 0.9952604,1.090056 0.5185136,0.627181 0.9103921,-0.59326 1.3768059,-0.826814 0.3549154,-0.350804 0.4921361,-0.50979 0.812207,-0.853857 0.4380232,-0.414016 0.8604722,-0.887924 1.2910232,-1.283129 0.203917,-0.236888 0.52539,-0.531779 0.792442,-0.832488 0.356881,-0.3671749 0.786462,-0.7840372 1.133226,-1.091933 0.18306,-0.240185 0.477385,-0.5366152 0.730894,-0.8049687 C 14.36482,7.7025441 14.899731,7.1830021 15.393389,6.6313055 15.688971,6.4703118 15.444909,6.3032388 15.24342,6.2469943 15.075144,6.1237835 14.929093,6.0516979 14.758658,5.9915069 14.628449,5.9277782 14.430683,5.6856829 14.308804,5.8515553 M 9.3802928,7.7314467 C 8.9985456,8.0316507 8.6106131,8.3674358 8.2179745,8.6725033 7.8361755,8.9608728 7.464927,9.2723933 7.0750052,9.5899286 6.6237047,9.9833262 6.1391345,10.308107 5.7142643,10.699667 5.4697499,10.887168 4.7617772,11.225166 5.325016,11.472153 5.6583688,11.68802 5.9661451,12.543455 6.3917941,12.241121 6.8922615,11.750946 7.4410676,11.330355 7.940824,10.845989 8.2964505,10.619615 8.5619195,10.244151 8.9272262,10.011336 9.2873635,9.6715979 9.653978,9.3534361 10.031267,9.0356469 10.246347,8.8141731 10.805423,8.5525622 10.296345,8.3269315 10.065316,8.1568342 9.868514,8.0294065 9.625216,7.8603906 9.5358254,7.8680148 9.4391283,7.6464704 9.38029,7.7314376 Z M 5.7558801,8.2965241 C 5.4078911,8.5461632 5.0933743,8.7470008 4.7525797,9.0194716 4.5381778,9.1348271 4.2952586,9.3701525 4.0478881,9.4996381 3.7784469,9.6663342 3.4915618,9.8408397 3.9294573,10.038913 4.2356952,10.350765 4.6419167,11.121064 5.056308,10.53253 5.3293086,10.264364 5.6536483,10.077772 5.9320759,9.815487 6.1500155,9.6118731 6.9774443,9.2887597 6.5981006,8.9559589 6.3242658,8.7538352 6.0340963,8.3929469 5.7558955,8.2963263 m -1.2375,2.4621107 c 0.3064135,0.262261 -0.255966,-0.259118 -1.1e-6,7e-6 z" />
</svg>
