<svg xmlns="http://www.w3.org/2000/svg" fill-rule="evenodd" fill="#000" viewBox="0 0 16 16">
  <path d="M 5.2578125,1 C 5.0212919,1.0123526 4.8341105,1.2046389 4.828125,1.4414062 V 3.109375 h 0.9003906 c 0,-0.5539796 0.003,-1.1081297 0,-1.6621094 C 5.7244579,1.203459 5.5289178,1.0061961 5.2851562,1 Z M 7.96875,1 C 7.7357661,1.0181805 7.5543404,1.2097322 7.5488281,1.4433594 V 3.109375 h 0.9003907 c 0,-0.5549796 0.003,-1.1095829 0,-1.6640625 C 8.4442854,1.2096377 8.2605338,1.0165716 8.0253906,1 Z m 2.726562,0 C 10.459401,1.015607 10.274548,1.2089387 10.269531,1.4453125 V 3.109375 h 0.900391 c 0,-0.5559796 0.0035,-1.1119892 0,-1.6679688 C 11.163937,1.2046387 10.976755,1.0123523 10.740234,1 Z M 7.9023438,3.5 C 6.8270718,3.4994375 5.7500375,3.5006094 4.6738281,3.5058594 4.1809231,3.5250926 3.7482906,3.8397345 3.578125,4.3027344 3.5109637,4.5172935 3.4844678,4.7425092 3.5,4.9667969 v 6.2500001 c -0.0038,0.210914 0.042381,0.419732 0.1347656,0.609375 0.1456353,0.289523 0.4008658,0.508895 0.7089844,0.609375 0.2013576,0.05578 0.4106119,0.07756 0.6191406,0.06445 h 6.0722654 c 0.209176,0.01327 0.4191,-0.0085 0.621094,-0.06445 0.371552,-0.120815 0.662289,-0.413006 0.78125,-0.785156 0.05429,-0.200289 0.07541,-0.40812 0.0625,-0.615235 V 4.7851562 C 12.503863,4.5736092 12.457686,4.3641427 12.365234,4.1738281 12.219236,3.8838396 11.963203,3.6643829 11.654297,3.5644531 11.483251,3.5141394 11.305082,3.4923632 11.126953,3.5 10.051994,3.502 8.9776156,3.5005625 7.9023438,3.5 Z M 6.6777344,4.7050781 c 0.1194865,0 0.2352331,2.266e-4 0.3476562,0.00195 0.1124232,0.00173 0.2224708,0.00435 0.328125,0.00781 0.020501,0.010089 0.036992,0.026581 0.046875,0.046875 L 7.390625,4.84375 C 7.369435,4.878083 7.3482892,4.9529552 7.2910156,4.958984 L 7.1796875,4.9707027 C 7.0179188,4.9700628 6.9187306,4.966164 6.7578125,4.982421 6.6041974,4.982521 6.4450281,4.971811 6.3203125,5.0957022 6.2750235,5.222612 6.3096205,5.3844523 6.3117925,5.4422496 6.625927,6.2495028 7.050105,7.0309612 7.3712565,7.8423295 7.6418795,8.4290005 7.6191537,8.4393187 8.24011,10.009978 8.2634952,10.06752 8.8915521,8.5407115 9.5160862,6.862038 9.722027,6.2841362 9.7392678,6.2595969 9.9192641,5.6349001 9.9163801,5.5755038 10.016087,5.2974768 9.9736767,5.2549631 9.9102247,5.1932589 9.8252945,5.1388781 9.738991,5.1161047 9.6030509,5.0870473 9.5539981,5.0307699 9.4154561,5.0181997 L 9.0900924,4.9008879 c -0.025214,-0.02253 -0.06545,-0.1002423 -0.070561,-0.1333093 l 0.015625,-0.042969 1.7070316,-0.015625 h 0.564453 c 0.131255,-0.00673 0.262814,0.00511 0.390625,0.035156 l 0.0059,0.044922 c -0.0029,0.037514 -0.01351,0.074062 -0.03125,0.1074219 -0.07525,0.02593 -0.153201,0.043615 -0.232422,0.052734 -0.188833,0.00805 -0.374686,0.049056 -0.548828,0.1210937 -0.09647,0.080465 -0.172106,0.182206 -0.220703,0.296875 L 9.3325285,8.787731 c -0.4314459,1.0097913 -0.7848272,1.73168 -0.9672941,2.286488 l -0.1523438,0.449219 c -0.034156,0.02516 -0.074679,0.0407 -0.1171875,0.04492 -0.044067,-5.63e-4 -0.087943,-0.0058 -0.1308593,-0.01563 C 7.546347,10.492163 7.2051005,9.6722157 6.9414062,9.09375 L 5.328125,5.5 C 5.2631604,5.3584552 5.1747234,5.2284396 5.0664062,5.1152344 4.8730819,5.028032 4.7078968,5.0483292 4.4980469,5.0136718 4.42809,4.9998808 4.2847534,4.9432128 4.2519531,4.8789062 4.2258111,4.8595129 4.2072068,4.831951 4.1992188,4.8007812 l 0.037109,-0.085937 c 0.2848838,0 0.5708792,0.00284 0.8554688,0.00977 H 5.265625 c 0.052681,0 0.110554,-4.463e-4 0.1738281,-0.00391 0.2283781,-0.010386 0.6405549,-0.015625 1.2382813,-0.015625 z M 1.8574219,4.828125 C 1.7184817,4.8282891 1.5804012,4.8292031 1.4414062,4.8300781 1.2047395,4.8363023 1.0125885,5.023352 1,5.2597656 v 0.025391 c 0.00486,0.1419264 0.074724,0.2737317 0.1894531,0.3574219 0.088225,0.06064 0.1938372,0.090814 0.3007813,0.085937 H 3.1074219 V 4.8300781 c -0.4166098,0 -0.8331794,-0.00245 -1.25,-0.00195 z m 11.0351561,0 v 0.9003906 h 1.619141 c 0.123543,0.00608 0.244641,-0.035919 0.33789,-0.1171875 C 14.941264,5.5270348 14.995413,5.409595 15,5.2851562 V 5.2578122 C 14.9908,5.1113117 14.91248,4.9779142 14.789062,4.8984372 14.704872,4.8481122 14.607746,4.8236602 14.509766,4.8281252 Z M 1.859375,7.5488281 C 1.7207082,7.5489922 1.5819793,7.5499063 1.4433594,7.5507812 1.2092306,7.5568467 1.0176781,7.739117 1,7.9726562 V 8.03125 C 1.019155,8.2645333 1.2113074,8.4457297 1.4453125,8.4511719 H 3.1074219 V 7.5507812 c -0.4158598,0 -0.8320465,-0.00245 -1.2480469,-0.00195 z m 11.033203,0 c -3.33e-4,0.2999891 -3.33e-4,0.6004017 0,0.9003907 h 1.617188 C 14.626777,8.4548758 14.7419,8.4181196 14.833984,8.3457031 14.92947,8.2650602 14.989155,8.1499022 15,8.0253906 V 7.9667969 C 14.980124,7.7341763 14.7881,7.5539434 14.554688,7.5488281 Z M 1.4550781,10.269531 c -0.083534,0.0047 -0.164952,0.02807 -0.2382812,0.06836 C 1.090673,10.416504 1.0100121,10.550939 1,10.699219 v 0.04101 c 0.011391,0.238355 0.2048101,0.427514 0.4433594,0.433594 H 3.109375 c -0.006,-0.29999 0.00619,-0.600402 -0.00781,-0.90039 -0.5214809,-0.006 -1.0429722,10e-4 -1.5644531,-0.002 -0.027259,-0.0027 -0.054677,-0.0033 -0.082031,-0.002 z m 11.4374999,0.002 c -5e-4,0.299989 0,0.600448 0,0.898438 0.55398,0 1.10763,0.0035 1.66211,0 0.237883,-0.0049 0.431888,-0.192133 0.445312,-0.429688 v -0.04492 c -0.01703,-0.234928 -0.20983,-0.418428 -0.445312,-0.423828 z m -8.064453,2.619141 c 9.999e-4,0.556479 -0.0025,1.111489 0,1.667969 0.00599,0.236767 0.193167,0.429053 0.4296875,0.441406 h 0.025391 c 0.1244652,-0.0045 0.2419456,-0.05864 0.3261719,-0.150391 0.081974,-0.09295 0.1246847,-0.214081 0.1191406,-0.33789 v -1.621094 z m 2.7207031,0 c 0,0.539647 0.00162,1.078827 0.00195,1.619141 -0.00639,0.122318 0.034124,0.242467 0.1132813,0.335937 0.080067,0.08909 0.1911509,0.144282 0.31055,0.15425 H 8.03125 c 0.2326206,-0.01988 0.4128535,-0.2119 0.4179688,-0.445312 v -1.664063 z m 2.7246099,0 v 1.662109 c 0.0048,0.236472 0.189761,0.429938 0.425781,0.445313 h 0.04297 c 0.159439,-0.0089 0.302866,-0.09981 0.378906,-0.240235 0.0427,-0.09212 0.06087,-0.193712 0.05273,-0.294921 v -1.572266 z" />
</svg>
