<svg xmlns="http://www.w3.org/2000/svg" fill-rule="evenodd" fill="#000" viewBox="0 0 16 16">
   <path fill="#3e5ba9" d="M 13.507967,12.320477 C 14.442582,11.130608 14.999999,9.6304171 14.999999,8.0000133 14.999999,4.1340239 11.866003,1 7.9999856,1 7.1590204,1 6.3527382,1.1484398 5.6057545,1.4203166 8.4476006,2.9110482 12.206692,7.7746846 13.507967,12.320477 Z" />
   <path fill="#9f1d20" d="M 6.9974432,5.4651972 C 5.9054828,4.288825 4.6826177,3.3545698 3.387455,2.7349505 1.9241601,4.0179715 1,5.9009469 1,8.0000133 1,9.7649726 1.6534448,11.37715 2.7312997,12.608451 3.6814858,9.7536882 5.467797,7.002145 6.9974432,5.4651972 Z" />
   <path fill="#9f1d20" d="m 8.2872679,7.0524823 c -1.51543,1.6332249 -3.0255497,4.4922467 -3.5720692,7.1300327 0.9796141,0.521545 2.0975729,0.817539 3.2848146,0.817539 1.2205971,0 2.3680117,-0.3127 3.3670687,-0.861902 C 10.791218,11.477327 9.7041806,9.040447 8.2872679,7.0524823 Z" />
</svg>
